{
.appVersion = "3091";
DisplayStrings = (
y,
"¹",
"/tcedilla",
n,
"/ncaron",
"ñ",
"/ncommaaccent"
);
copyright = "Copyright 2021 The Albert Sans Project Authors (https://github.com/usted/Albert-Sans)";
customParameters = (
{
name = "Use Typo Metrics";
value = 1;
},
{
name = fsType;
value = (
);
},
{
name = "Variable Font Origin";
value = "9F107B1E-3A61-4335-981B-27DD48125C7E";
},
{
name = "Use Line Breaks";
value = 1;
},
{
name = license;
value = "This Font Software is licensed under the SIL Open Font License, Version 1.1. This license is available with a FAQ at: https://scripts.sil.org/OFL";
},
{
name = licenseURL;
value = "https://scripts.sil.org/OFL";
},
{
name = Axes;
value = (
{
Name = Weight;
Tag = wght;
}
);
}
);
date = "2021-08-28 16:00:31 +0000";
designer = "Andreas Rasmussen";
designerURL = "https://www.andreasrasmussen.net";
familyName = "Albert Sans";
fontMaster = (
{
ascender = 720;
capHeight = 700;
custom = Thin;
customParameters = (
{
name = typoAscender;
value = 950;
},
{
name = typoDescender;
value = -250;
},
{
name = typoLineGap;
value = 0;
},
{
name = winAscent;
value = 1100;
},
{
name = winDescent;
value = 320;
},
{
name = underlineThickness;
value = 50;
},
{
name = underlinePosition;
value = -100;
},
{
name = strikeoutPosition;
value = 300;
},
{
name = strikeoutSize;
value = 50;
},
{
name = subscriptXOffset;
value = 0;
},
{
name = subscriptXSize;
value = 650;
},
{
name = subscriptYOffset;
value = 75;
},
{
name = subscriptYSize;
value = 600;
},
{
name = superscriptXOffset;
value = 0;
},
{
name = superscriptXSize;
value = 650;
},
{
name = superscriptYOffset;
value = 350;
},
{
name = superscriptYSize;
value = 600;
},
{
name = hheaAscender;
value = 950;
},
{
name = hheaDescender;
value = -250;
},
{
name = hheaLineGap;
value = 0;
}
);
descender = -200;
guideLines = (
{
locked = 1;
position = "{0, 250}";
},
{
position = "{0, -186}";
},
{
position = "{0, 711}";
}
);
horizontalStems = (
20
);
iconName = Light;

glyphs = (
{
glyphname = A;
lastChange = "2021-08-28 17:38:57 +0000";
layers = (
{
anchors = (
{
name = ogonek;
position = "{586.771, 0}";
},
{
name = top;
position = "{444.01, 700}";
}
);
guideLines = (
{
angle = -70.8724;
position = "{643.01, 86.5}";
},
{
angle = 70.5773;
position = "{245.51, 86.5}";
}
);
hints = (
{
horizontal = 1;
place = "{35.761, -47.239}";
type = Stem;
},
{
horizontal = 1;
place = "{560.761, -20}";
target = down;
type = TopGhost;
},
{
horizontal = 1;
place = "{-139.239, 21}";
target = up;
type = BottomGhost;
}
);
layerId = "0CF0EA28-C756-4A9E-9D7C-CFEF350B4CFE";
paths = (
{
closed = 1;
nodes = (
"75.771 0 LINE",
"171.183 173 LINE",
"508.183 173 LINE",
"533.771 0 LINE",
"651.771 0 LINE",
"542.01 700 LINE",
"346.01 700 LINE",
"-41.229 0 LINE"
);
},
{
closed = 1;
nodes = (
"495.08 268 LINE",
"223.08 268 LINE",
"408.113 605 LINE",
"444.113 605 LINE"
);
}
);
width = 710;
},
{
anchors = (
{
name = ogonek;
position = "{529.271, 0}";
},
{
name = top;
position = "{398.913, 697}";
}
);
guideLines = (
{
angle = -69.1455;
position = "{632.51, 105}";
},
{
angle = 68.9077;
position = "{163.01, 105}";
}
);
hints = (
{
horizontal = 1;
place = "{560.761, -20}";
target = down;
type = TopGhost;
},
{
horizontal = 1;
place = "{-139.239, 21}";
target = up;
type = BottomGhost;
}
);
layerId = "6E968933-CD79-43C6-9231-80D77C940F4D";
paths = (
{
closed = 1;
nodes = (
"-16.729 0 LINE",
"106.043 210 LINE",
"495.043 210 LINE",
"533.271 0 LINE",
"556.271 0 LINE",
"428.51 700 LINE",
"367.51 700 LINE",
"-39.729 0 LINE"
);
},
{
closed = 1;
nodes = (
"492.021 230 LINE",
"117.021 230 LINE",
"378.532 680 LINE",
"410.532 680 LINE"
);
}
);
width = 615.99653;
},
{
anchors = (
{
name = ogonek;
position = "{663.97, 1}";
},
{
name = top;
position = "{488.01, 700}";
}
);
guideLines = (
{
angle = -70.3462;
position = "{676.01, 70}";
},
{
angle = 70.71;
position = "{299.51, 70}";
}
);
hints = (
{
horizontal = 1;
place = "{235.761, 1.761}";
type = Stem;
},
{
horizontal = 1;
place = "{157.761, -20}";
target = down;
type = TopGhost;
},
{
horizontal = 1;
place = "{-139.239, 21}";
target = up;
type = BottomGhost;
}
);
layerId = "BAF31694-0472-4296-B0EA-1654553C45D2";
paths = (
{
closed = 1;
nodes = (
"135.771 0 LINE",
"212.619 140 LINE",
"539.619 140 LINE",
"561.771 0 LINE",
"740.771 0 LINE",
"626.01 700 LINE",
"351.01 700 LINE",
"-44.229 0 LINE"
);
},
{
closed = 1;
nodes = (
"515.66 286 LINE",
"292.66 286 LINE",
"439.969 554 LINE",
"474.969 554 LINE"
);
}
);
width = 795.9967;
},
{
anchors = (
{
name = ogonek;
position = "{565.271, 0}";
},
{
name = top;
position = "{426.311, 699}";
}
);
guideLines = (
{
angle = 69.7174;
position = "{213.51, 92}";
},
{
angle = -69.9919;
position = "{639.01, 92}";
}
);
hints = (
{
horizontal = 1;
place = "{560.761, -20}";
target = down;
type = TopGhost;
},
{
horizontal = 1;
place = "{-139.239, 21}";
target = up;
type = BottomGhost;
}
);
layerId = "9F107B1E-3A61-4335-981B-27DD48125C7E";
paths = (
{
closed = 1;
nodes = (
"40.271 0 LINE",
"144.871 184 LINE",
"502.871 184 LINE",
"533.271 0 LINE",
"615.271 0 LINE",
"499.51 700 LINE",
"354.51 700 LINE",
"-40.729 0 LINE"
);
},
{
closed = 1;
nodes = (
"491.795 254 LINE",
"184.795 254 LINE",
"396.586 630 LINE",
"429.586 630 LINE"
);
}
);
width = 673.9967;
}
);
leftMetricsKey = "=H*0.1";
rightMetricsKey = "=H*0.1";
unicode = 0041;
},
{
glyphname = Aacute;
lastChange = "2021-08-28 16:04:16 +0000";
layers = (
{
anchors = (
{
name = ogonek;
position = "{586.767, 0}";
},
{
name = top;
position = "{444.006, 700}";
}
);
hints = (
{
horizontal = 1;
place = "{-13.113, -96.113}";
type = Stem;
},
{
horizontal = 1;
place = "{511.887, -20}";
target = down;
type = TopGhost;
},
{
horizontal = 1;
place = "{-188.113, 21}";
target = up;
type = BottomGhost;
}
);
layerId = "0CF0EA28-C756-4A9E-9D7C-CFEF350B4CFE";
paths = (
{
closed = 1;
nodes = (
"75.767 0 LINE",
"171.179 173 LINE",
"508.179 173 LINE",
"533.767 0 LINE",
"651.767 0 LINE",
"542.006 700 LINE",
"346.006 700 LINE",
"-41.233 0 LINE"
);
},
{
closed = 1;
nodes = (
"495.075 268 LINE",
"223.075 268 LINE",
"408.109 605 LINE",
"444.109 605 LINE"
);
},
{
closed = 1;
nodes = (
"350.643 823.861 LINE",
"333.818 739.273 LINE",
"576.45 848.029 LINE",
"595.88 945.708 LINE"
);
}
);
width = 710;
},
{
anchors = (
{
name = ogonek;
position = "{529.268, 0}";
},
{
name = top;
position = "{398.91, 697}";
}
);
background = {
hints = (
{
horizontal = 1;
place = "{0, 21}";
type = Stem;
},
{
horizontal = 1;
place = "{196, 47}";
type = Stem;
},
{
horizontal = 1;
place = "{685, 20}";
type = Stem;
},
{
horizontal = 1;
place = "{765, 21}";
type = Stem;
},
{
horizontal = 1;
place = "{878, 20}";
type = Stem;
}
);
paths = (
{
closed = 1;
nodes = (
"874.45 0 LINE",
"548.45 705 LINE",
"498.45 705 LINE",
"172.45 0 LINE",
"226.45 0 LINE",
"315.45 196 LINE",
"728.45 196 LINE",
"817.45 0 LINE"
);
},
{
closed = 1;
nodes = (
"706.45 243 LINE",
"337.45 243 LINE",
"522.45 648 LINE"
);
},
{
closed = 1;
nodes = (
"548.45 765 LINE",
"655.45 868 LINE",
"594.45 898 LINE",
"506.45 765 LINE"
);
}
);
};
hints = (
{
horizontal = 1;
place = "{521.818, -20}";
target = down;
type = TopGhost;
},
{
horizontal = 1;
place = "{-178.182, 21}";
target = up;
type = BottomGhost;
}
);
layerId = "6E968933-CD79-43C6-9231-80D77C940F4D";
paths = (
{
closed = 1;
nodes = (
"-16.732 0 LINE",
"106.039 210 LINE",
"495.039 210 LINE",
"533.268 0 LINE",
"556.268 0 LINE",
"428.507 700 LINE",
"367.507 700 LINE",
"-39.732 0 LINE"
);
},
{
closed = 1;
nodes = (
"492.018 230 LINE",
"117.018 230 LINE",
"378.528 680 LINE",
"410.528 680 LINE"
);
},
{
closed = 1;
nodes = (
"305.948 762.546 LINE",
"301.794 741.665 LINE",
"514.506 870.924 LINE",
"519.45 895.782 LINE"
);
}
);
width = 615.99574;
},
{
anchors = (
{
name = ogonek;
position = "{663.97, 1}";
},
{
name = top;
position = "{488.01, 700}";
}
);
hints = (
{
horizontal = 1;
place = "{182.001, -51.999}";
type = Stem;
},
{
horizontal = 1;
place = "{104.001, -20}";
target = down;
type = TopGhost;
},
{
horizontal = 1;
place = "{-192.999, 21}";
target = up;
type = BottomGhost;
}
);
layerId = "BAF31694-0472-4296-B0EA-1654553C45D2";
paths = (
{
closed = 1;
nodes = (
"135.771 0 LINE",
"212.619 140 LINE",
"539.619 140 LINE",
"561.771 0 LINE",
"740.771 0 LINE",
"626.01 700 LINE",
"351.01 700 LINE",
"-44.229 0 LINE"
);
},
{
closed = 1;
nodes = (
"515.66 286 LINE",
"292.66 286 LINE",
"439.969 554 LINE",
"474.969 554 LINE"
);
},
{
closed = 1;
nodes = (
"398.973 856.919 LINE",
"375.042 736.608 LINE",
"637.622 835.044 LINE",
"664.52 970.269 LINE"
);
}
);
width = 796.00047;
},
{
anchors = (
{
name = ogonek;
position = "{565.268, 0}";
},
{
name = top;
position = "{426.308, 699}";
}
);
hints = (
{
horizontal = 1;
place = "{515.468, -20}";
target = down;
type = TopGhost;
},
{
horizontal = 1;
place = "{-184.532, 21}";
target = up;
type = BottomGhost;
}
);
layerId = "9F107B1E-3A61-4335-981B-27DD48125C7E";
paths = (
{
closed = 1;
nodes = (
"40.268 0 LINE",
"144.868 184 LINE",
"502.868 184 LINE",
"533.268 0 LINE",
"615.268 0 LINE",
"499.507 700 LINE",
"354.507 700 LINE",
"-40.732 0 LINE"
);
},
{
closed = 1;
nodes = (
"491.792 254 LINE",
"184.792 254 LINE",
"396.583 630 LINE",
"429.583 630 LINE"
);
},
{
closed = 1;
nodes = (
"334.381 802.43 LINE",
"322.42 742.298 LINE",
"553.346 857.551 LINE",
"567.3 927.705 LINE"
);
}
);
width = 673.99465;
}
);
leftMetricsKey = A;
rightMetricsKey = A;
unicode = 00C1;
},
{
glyphname = Abreve;
lastChange = "2021-08-28 16:04:16 +0000";
layers = (
{
anchors = (
{
name = ogonek;
position = "{586.768, 0}";
},
{
name = top;
position = "{444.007, 700}";
}
);
hints = (
{
horizontal = 1;
place = "{-5.702, -88.702}";
type = Stem;
},
{
horizontal = 1;
place = "{519.298, -20}";
target = down;
type = TopGhost;
},
{
horizontal = 1;
place = "{-180.702, 21}";
target = up;
type = BottomGhost;
},
{
place = "{23.048, -115.247}";
type = Stem;
},
{
place = "{258.048, -114.24}";
type = Stem;
},
{
horizontal = 1;
place = "{565.62, -91.079}";
type = Stem;
},
{
horizontal = 1;
place = "{565.62, -18.575}";
type = Stem;
}
);
layerId = "0CF0EA28-C756-4A9E-9D7C-CFEF350B4CFE";
paths = (
{
closed = 1;
nodes = (
"75.768 0 LINE",
"171.18 173 LINE",
"508.18 173 LINE",
"533.768 0 LINE",
"651.768 0 LINE",
"542.007 700 LINE",
"346.007 700 LINE",
"-41.232 0 LINE"
);
},
{
closed = 1;
nodes = (
"495.077 268 LINE",
"223.077 268 LINE",
"408.11 605 LINE",
"444.11 605 LINE"
);
},
{
closed = 1;
nodes = (
"636.47 908.449 LINE",
"570.47 908.449 LINE",
"561.456 863.134 OFFCURVE",
"536.048 835.945 OFFCURVE",
"471.048 835.945 CURVE SMOOTH",
"406.048 835.945 OFFCURVE",
"391.456 863.134 OFFCURVE",
"400.47 908.449 CURVE",
"335.47 908.449 LINE",
"331.264 887.302 LINE SMOOTH",
"314.638 803.721 OFFCURVE",
"359.221 746.322 OFFCURVE",
"453.221 746.322 CURVE SMOOTH",
"548.221 746.322 OFFCURVE",
"615.438 802.714 OFFCURVE",
"632.063 886.295 CURVE SMOOTH"
);
}
);
width = 710;
},
{
anchors = (
{
name = ogonek;
position = "{529.275, 0}";
},
{
name = top;
position = "{398.916, 697}";
}
);
hints = (
{
horizontal = 1;
place = "{524.785, -20}";
target = down;
type = TopGhost;
},
{
horizontal = 1;
place = "{-175.215, 21}";
target = up;
type = BottomGhost;
},
{
place = "{29.785, -154.335}";
type = Stem;
},
{
place = "{241.785, -152.347}";
type = Stem;
},
{
horizontal = 1;
place = "{584.347, 21}";
target = up;
type = BottomGhost;
},
{
horizontal = 1;
place = "{689.743, -20}";
target = down;
type = TopGhost;
}
);
layerId = "6E968933-CD79-43C6-9231-80D77C940F4D";
paths = (
{
closed = 1;
nodes = (
"-16.725 0 LINE",
"106.046 210 LINE",
"495.046 210 LINE",
"533.275 0 LINE",
"556.275 0 LINE",
"428.513 700 LINE",
"367.513 700 LINE",
"-39.725 0 LINE"
);
},
{
closed = 1;
nodes = (
"492.024 230 LINE",
"117.024 230 LINE",
"378.535 680 LINE",
"410.535 680 LINE"
);
},
{
closed = 1;
nodes = (
"555.49 880.867 LINE",
"534.49 880.867 LINE",
"523.217 824.192 OFFCURVE",
"480.69 791.38 OFFCURVE",
"418.69 791.38 CURVE",
"356.69 791.38 OFFCURVE",
"328.217 824.192 OFFCURVE",
"339.49 880.867 CURVE",
"318.49 880.867 LINE",
"317.501 875.896 LINE SMOOTH",
"308.008 828.17 OFFCURVE",
"329.932 772.489 OFFCURVE",
"414.932 772.489 CURVE",
"500.932 772.489 OFFCURVE",
"545.008 828.17 OFFCURVE",
"554.501 875.896 CURVE SMOOTH"
);
}
);
width = 616.00574;
},
{
anchors = (
{
name = ogonek;
position = "{663.97, 1}";
},
{
name = top;
position = "{488.01, 700}";
}
);
hints = (
{
horizontal = 1;
place = "{189.122, -44.878}";
type = Stem;
},
{
horizontal = 1;
place = "{111.122, -20}";
target = down;
type = TopGhost;
},
{
horizontal = 1;
place = "{-185.878, 21}";
target = up;
type = BottomGhost;
},
{
place = "{44.122, -99.374}";
type = Stem;
},
{
place = "{301.122, -99.374}";
type = Stem;
},
{
horizontal = 1;
place = "{554.707, -57.614}";
type = Stem;
},
{
horizontal = 1;
place = "{554.707, 8.01}";
type = Stem;
}
);
layerId = "BAF31694-0472-4296-B0EA-1654553C45D2";
paths = (
{
closed = 1;
nodes = (
"135.772 0 LINE",
"212.619 140 LINE",
"539.619 140 LINE",
"561.772 0 LINE",
"740.772 0 LINE",
"626.01 700 LINE",
"351.01 700 LINE",
"-44.228 0 LINE"
);
},
{
closed = 1;
nodes = (
"515.66 286 LINE",
"292.66 286 LINE",
"439.969 554 LINE",
"474.969 554 LINE"
);
},
{
closed = 1;
nodes = (
"711.4 934.474 LINE",
"624.4 934.474 LINE",
"616.093 892.714 OFFCURVE",
"591.149 867.856 OFFCURVE",
"526.149 867.856 CURVE SMOOTH",
"461.149 867.856 OFFCURVE",
"446.093 892.714 OFFCURVE",
"454.4 934.474 CURVE",
"367.4 934.474 LINE",
"363.642 915.582 LINE SMOOTH",
"340.898 801.238 OFFCURVE",
"400.833 740.586 OFFCURVE",
"500.833 740.586 CURVE SMOOTH",
"601.833 740.586 OFFCURVE",
"684.898 801.238 OFFCURVE",
"707.642 915.582 CURVE SMOOTH"
);
}
);
width = 796.00047;
},
{
anchors = (
{
name = ogonek;
position = "{565.269, 0}";
},
{
name = top;
position = "{426.309, 699}";
}
);
hints = (
{
horizontal = 1;
place = "{521.249, -20}";
target = down;
type = TopGhost;
},
{
horizontal = 1;
place = "{-178.751, 21}";
target = up;
type = BottomGhost;
},
{
place = "{391.249, -114.61}";
type = Stem;
},
{
place = "{471.249, -69.511}";
type = Stem;
},
{
horizontal = 1;
place = "{198.746, 21}";
target = up;
type = BottomGhost;
},
{
horizontal = 1;
place = "{238.834, -20}";
target = down;
type = TopGhost;
}
);
layerId = "9F107B1E-3A61-4335-981B-27DD48125C7E";
paths = (
{
closed = 1;
nodes = (
"40.269 0 LINE",
"144.869 184 LINE",
"502.869 184 LINE",
"533.269 0 LINE",
"615.269 0 LINE",
"499.508 700 LINE",
"354.508 700 LINE",
"-40.731 0 LINE"
);
},
{
closed = 1;
nodes = (
"491.793 254 LINE",
"184.793 254 LINE",
"396.584 630 LINE",
"429.584 630 LINE"
);
},
{
closed = 1;
nodes = (
"606.52 898.641 LINE",
"557.52 898.641 LINE",
"547.553 848.531 OFFCURVE",
"515.771 819.467 OFFCURVE",
"451.771 819.467 CURVE",
"387.771 819.467 OFFCURVE",
"367.553 848.531 OFFCURVE",
"377.52 898.641 CURVE",
"329.52 898.641 LINE",
"326.53 883.608 LINE SMOOTH",
"312.575 813.454 OFFCURVE",
"348.212 756.329 OFFCURVE",
"439.212 756.329 CURVE",
"531.212 756.329 OFFCURVE",
"589.376 812.452 OFFCURVE",
"603.33 882.606 CURVE SMOOTH"
);
}
);
width = 673.99465;
}
);
leftMetricsKey = A;
rightMetricsKey = A;
unicode = 0102;
},
{
glyphname = Acircumflex;
lastChange = "2021-08-28 16:04:16 +0000";
layers = (
{
anchors = (
{
name = ogonek;
position = "{586.767, 0}";
},
{
name = top;
position = "{444.006, 700}";
}
);
hints = (
{
horizontal = 1;
place = "{-6.503, -89.503}";
type = Stem;
},
{
horizontal = 1;
place = "{518.497, -20}";
target = down;
type = TopGhost;
},
{
horizontal = 1;
place = "{-181.503, 21}";
target = up;
type = BottomGhost;
}
);
layerId = "0CF0EA28-C756-4A9E-9D7C-CFEF350B4CFE";
paths = (
{
closed = 1;
nodes = (
"75.767 0 LINE",
"171.179 173 LINE",
"508.179 173 LINE",
"533.767 0 LINE",
"651.767 0 LINE",
"542.006 700 LINE",
"346.006 700 LINE",
"-41.233 0 LINE"
);
},
{
closed = 1;
nodes = (
"495.076 268 LINE",
"223.076 268 LINE",
"408.109 605 LINE",
"444.109 605 LINE"
);
},
{
closed = 1;
nodes = (
"612.645 828.896 LINE",
"486.27 912.477 LINE",
"326.645 828.896 LINE",
"308.818 739.273 LINE",
"469.044 825.875 LINE",
"594.818 739.273 LINE"
);
}
);
width = 710;
},
{
anchors = (
{
name = ogonek;
position = "{529.268, 0}";
},
{
name = top;
position = "{398.91, 697}";
}
);
background = {
hints = (
{
horizontal = 1;
place = "{0, 21}";
type = Stem;
},
{
horizontal = 1;
place = "{196, 47}";
type = Stem;
},
{
horizontal = 1;
place = "{685, 20}";
type = Stem;
},
{
horizontal = 1;
place = "{760, 21}";
type = Stem;
},
{
horizontal = 1;
place = "{862, 20}";
type = Stem;
}
);
paths = (
{
closed = 1;
nodes = (
"870.89 0 LINE",
"544.89 705 LINE",
"494.89 705 LINE",
"168.89 0 LINE",
"222.89 0 LINE",
"311.89 196 LINE",
"724.89 196 LINE",
"813.89 0 LINE"
);
},
{
closed = 1;
nodes = (
"702.89 243 LINE",
"333.89 243 LINE",
"518.89 648 LINE"
);
},
{
closed = 1;
nodes = (
"518.89 828 LINE",
"592.89 760 LINE",
"639.89 760 LINE",
"539.89 882 LINE",
"499.89 882 LINE",
"399.89 760 LINE",
"444.89 760 LINE"
);
}
);
};
hints = (
{
horizontal = 1;
place = "{525.378, -20}";
target = down;
type = TopGhost;
},
{
horizontal = 1;
place = "{-174.622, 21}";
target = up;
type = BottomGhost;
}
);
layerId = "6E968933-CD79-43C6-9231-80D77C940F4D";
paths = (
{
closed = 1;
nodes = (
"-16.732 0 LINE",
"106.039 210 LINE",
"495.039 210 LINE",
"533.268 0 LINE",
"556.268 0 LINE",
"428.507 700 LINE",
"367.507 700 LINE",
"-39.732 0 LINE"
);
},
{
closed = 1;
nodes = (
"492.018 230 LINE",
"117.018 230 LINE",
"378.528 680 LINE",
"410.528 680 LINE"
);
},
{
closed = 1;
nodes = (
"543.87 797.346 LINE",
"435.89 877.885 LINE",
"295.87 797.346 LINE",
"291.519 775.472 LINE",
"431.539 856.01 LINE",
"539.519 775.472 LINE"
);
}
);
width = 615.99574;
},
{
anchors = (
{
name = ogonek;
position = "{663.975, 1}";
},
{
name = top;
position = "{488.015, 700}";
}
);
hints = (
{
horizontal = 1;
place = "{188.726, -45.274}";
type = Stem;
},
{
horizontal = 1;
place = "{110.726, -20}";
target = down;
type = TopGhost;
},
{
horizontal = 1;
place = "{-186.274, 21}";
target = up;
type = BottomGhost;
}
);
layerId = "BAF31694-0472-4296-B0EA-1654553C45D2";
paths = (
{
closed = 1;
nodes = (
"135.776 0 LINE",
"212.624 140 LINE",
"539.624 140 LINE",
"561.776 0 LINE",
"740.776 0 LINE",
"626.015 700 LINE",
"351.015 700 LINE",
"-44.224 0 LINE"
);
},
{
closed = 1;
nodes = (
"515.665 286 LINE",
"292.665 286 LINE",
"439.973 554 LINE",
"474.973 554 LINE"
);
},
{
closed = 1;
nodes = (
"680.373 858.907 LINE",
"539.8 936.463 LINE",
"368.373 858.907 LINE",
"344.442 738.597 LINE",
"516.462 819.135 LINE",
"656.442 738.597 LINE"
);
}
);
width = 796.00047;
},
{
anchors = (
{
name = ogonek;
position = "{565.27, 0}";
},
{
name = top;
position = "{426.31, 699}";
}
);
hints = (
{
horizontal = 1;
place = "{521.05, -20}";
target = down;
type = TopGhost;
},
{
horizontal = 1;
place = "{-178.95, 21}";
target = up;
type = BottomGhost;
}
);
layerId = "9F107B1E-3A61-4335-981B-27DD48125C7E";
paths = (
{
closed = 1;
nodes = (
"40.27 0 LINE",
"144.87 184 LINE",
"502.87 184 LINE",
"533.27 0 LINE",
"615.27 0 LINE",
"499.508 700 LINE",
"354.508 700 LINE",
"-40.73 0 LINE"
);
},
{
closed = 1;
nodes = (
"491.794 254 LINE",
"184.794 254 LINE",
"396.585 630 LINE",
"429.585 630 LINE"
);
},
{
closed = 1;
nodes = (
"587.373 817.463 LINE",
"467.72 899.643 LINE",
"315.373 817.463 LINE",
"302.615 753.322 LINE",
"455.36 837.507 LINE",
"574.615 753.322 LINE"
);
}
);
width = 673.99465;
}
);
leftMetricsKey = A;
rightMetricsKey = A;
unicode = 00C2;
},
{
glyphname = Adieresis;
lastChange = "2021-08-28 16:04:16 +0000";
layers = (
{
anchors = (
{
name = ogonek;
position = "{586.774, 0}";
},
{
name = top;
position = "{444.012, 700}";
}
);
hints = (
{
horizontal = 1;
place = "{-2.096, -85.096}";
type = Stem;
},
{
horizontal = 1;
place = "{522.904, -20}";
target = down;
type = TopGhost;
},
{
horizontal = 1;
place = "{-177.096, 21}";
target = up;
type = BottomGhost;
},
{
place = "{30.654, -56.256}";
type = Stem;
},
{
place = "{202.654, -56.256}";
type = Stem;
},
{
horizontal = 1;
place = "{592.387, -56.256}";
type = Stem;
}
);
layerId = "0CF0EA28-C756-4A9E-9D7C-CFEF350B4CFE";
paths = (
{
closed = 1;
nodes = (
"75.774 0 LINE",
"171.186 173 LINE",
"508.186 173 LINE",
"533.774 0 LINE",
"651.774 0 LINE",
"542.012 700 LINE",
"346.012 700 LINE",
"-41.226 0 LINE"
);
},
{
closed = 1;
nodes = (
"495.082 268 LINE",
"223.082 268 LINE",
"408.116 605 LINE",
"444.116 605 LINE"
);
},
{
closed = 1;
nodes = (
"404.833 769.483 OFFCURVE",
"437.041 795.665 OFFCURVE",
"443.852 829.903 CURVE SMOOTH",
"450.462 863.134 OFFCURVE",
"428.87 890.323 OFFCURVE",
"395.87 890.323 CURVE SMOOTH",
"361.87 890.323 OFFCURVE",
"330.462 863.134 OFFCURVE",
"323.852 829.903 CURVE SMOOTH",
"317.041 795.665 OFFCURVE",
"337.833 769.483 OFFCURVE",
"371.833 769.483 CURVE SMOOTH"
);
},
{
closed = 1;
nodes = (
"576.833 769.483 OFFCURVE",
"609.041 795.665 OFFCURVE",
"615.852 829.903 CURVE SMOOTH",
"622.462 863.134 OFFCURVE",
"600.87 890.323 OFFCURVE",
"567.87 890.323 CURVE SMOOTH",
"533.87 890.323 OFFCURVE",
"502.462 863.134 OFFCURVE",
"495.852 829.903 CURVE SMOOTH",
"489.041 795.665 OFFCURVE",
"509.833 769.483 OFFCURVE",
"543.833 769.483 CURVE SMOOTH"
);
}
);
width = 710;
},
{
anchors = (
{
name = ogonek;
position = "{529.277, 0}";
},
{
name = top;
position = "{398.919, 697}";
}
);
background = {
hints = (
{
horizontal = 1;
place = "{0, 21}";
type = Stem;
},
{
horizontal = 1;
place = "{196, 47}";
type = Stem;
},
{
horizontal = 1;
place = "{685, 20}";
type = Stem;
},
{
horizontal = 1;
place = "{765, 80}";
type = Stem;
},
{
place = "{279, 69}";
type = Stem;
},
{
place = "{442, 69}";
type = Stem;
}
);
paths = (
{
closed = 1;
nodes = (
"864.57 0 LINE",
"538.57 705 LINE",
"488.57 705 LINE",
"162.57 0 LINE",
"216.57 0 LINE",
"305.57 196 LINE",
"718.57 196 LINE",
"807.57 0 LINE"
);
},
{
closed = 1;
nodes = (
"696.57 243 LINE",
"327.57 243 LINE",
"512.57 648 LINE"
);
},
{
closed = 1;
nodes = (
"629.57 765 LINE",
"629.57 845 LINE",
"560.57 845 LINE",
"560.57 765 LINE"
);
},
{
closed = 1;
nodes = (
"466.57 765 LINE",
"466.57 845 LINE",
"397.57 845 LINE",
"397.57 765 LINE"
);
}
);
};
hints = (
{
horizontal = 1;
place = "{531.707, -20}";
target = down;
type = TopGhost;
},
{
horizontal = 1;
place = "{-168.293, 21}";
target = up;
type = BottomGhost;
},
{
place = "{45.707, -107.641}";
type = Stem;
},
{
place = "{180.707, -108.635}";
type = Stem;
},
{
horizontal = 1;
place = "{615.133, -107.641}";
type = Stem;
}
);
layerId = "6E968933-CD79-43C6-9231-80D77C940F4D";
paths = (
{
closed = 1;
nodes = (
"-16.723 0 LINE",
"106.048 210 LINE",
"495.048 210 LINE",
"533.277 0 LINE",
"556.277 0 LINE",
"428.515 700 LINE",
"367.515 700 LINE",
"-39.723 0 LINE"
);
},
{
closed = 1;
nodes = (
"492.027 230 LINE",
"117.027 230 LINE",
"378.537 680 LINE",
"410.537 680 LINE"
);
},
{
closed = 1;
nodes = (
"367.506 785.415 OFFCURVE",
"384.274 799.335 OFFCURVE",
"387.439 815.244 CURVE SMOOTH",
"390.801 832.147 OFFCURVE",
"379.57 846.067 OFFCURVE",
"362.57 846.067 CURVE SMOOTH",
"345.57 846.067 OFFCURVE",
"329.801 832.147 OFFCURVE",
"326.439 815.244 CURVE SMOOTH",
"323.274 799.335 OFFCURVE",
"333.506 785.415 OFFCURVE",
"350.506 785.415 CURVE SMOOTH"
);
},
{
closed = 1;
nodes = (
"501.506 785.415 OFFCURVE",
"518.274 799.335 OFFCURVE",
"521.439 815.244 CURVE SMOOTH",
"524.801 832.147 OFFCURVE",
"513.57 846.067 OFFCURVE",
"497.57 846.067 CURVE SMOOTH",
"480.57 846.067 OFFCURVE",
"463.801 832.147 OFFCURVE",
"460.439 815.244 CURVE SMOOTH",
"457.274 799.335 OFFCURVE",
"468.506 785.415 OFFCURVE",
"485.506 785.415 CURVE SMOOTH"
);
}
);
width = 616.00574;
},
{
anchors = (
{
name = ogonek;
position = "{663.967, 1}";
},
{
name = top;
position = "{488.007, 700}";
}
);
hints = (
{
horizontal = 1;
place = "{193.868, -40.132}";
type = Stem;
},
{
horizontal = 1;
place = "{115.868, -20}";
target = down;
type = TopGhost;
},
{
horizontal = 1;
place = "{-181.132, 21}";
target = up;
type = BottomGhost;
},
{
place = "{44.868, -31.987}";
type = Stem;
},
{
place = "{247.868, -31.987}";
type = Stem;
},
{
horizontal = 1;
place = "{580.334, -31.987}";
type = Stem;
}
);
layerId = "BAF31694-0472-4296-B0EA-1654553C45D2";
paths = (
{
closed = 1;
nodes = (
"135.768 0 LINE",
"212.616 140 LINE",
"539.616 140 LINE",
"561.768 0 LINE",
"740.768 0 LINE",
"626.007 700 LINE",
"351.007 700 LINE",
"-44.232 0 LINE"
);
},
{
closed = 1;
nodes = (
"515.657 286 LINE",
"292.657 286 LINE",
"439.966 554 LINE",
"474.966 554 LINE"
);
},
{
closed = 1;
nodes = (
"445.983 761.466 OFFCURVE",
"485.312 793.284 OFFCURVE",
"493.619 835.044 CURVE SMOOTH",
"502.123 877.799 OFFCURVE",
"475.65 910.611 OFFCURVE",
"432.65 910.611 CURVE SMOOTH",
"390.65 910.611 OFFCURVE",
"352.123 877.799 OFFCURVE",
"343.619 835.044 CURVE SMOOTH",
"335.312 793.284 OFFCURVE",
"360.983 761.466 OFFCURVE",
"402.983 761.466 CURVE SMOOTH"
);
},
{
closed = 1;
nodes = (
"648.983 761.466 OFFCURVE",
"687.312 793.284 OFFCURVE",
"695.619 835.044 CURVE SMOOTH",
"704.123 877.799 OFFCURVE",
"678.65 910.611 OFFCURVE",
"635.65 910.611 CURVE SMOOTH",
"593.65 910.611 OFFCURVE",
"555.123 877.799 OFFCURVE",
"546.619 835.044 CURVE SMOOTH",
"538.312 793.284 OFFCURVE",
"563.983 761.466 OFFCURVE",
"605.983 761.466 CURVE SMOOTH"
);
}
);
width = 796.00047;
},
{
anchors = (
{
name = ogonek;
position = "{565.272, 0}";
},
{
name = top;
position = "{426.312, 699}";
}
);
hints = (
{
horizontal = 1;
place = "{526.432, -20}";
target = down;
type = TopGhost;
},
{
horizontal = 1;
place = "{-173.568, 21}";
target = up;
type = BottomGhost;
},
{
place = "{37.432, -75.352}";
type = Stem;
},
{
place = "{195.432, -75.352}";
type = Stem;
},
{
horizontal = 1;
place = "{601.803, -75.352}";
type = Stem;
}
);
layerId = "9F107B1E-3A61-4335-981B-27DD48125C7E";
paths = (
{
closed = 1;
nodes = (
"40.272 0 LINE",
"144.872 184 LINE",
"502.872 184 LINE",
"533.272 0 LINE",
"615.272 0 LINE",
"499.511 700 LINE",
"354.511 700 LINE",
"-40.728 0 LINE"
);
},
{
closed = 1;
nodes = (
"491.796 254 LINE",
"184.796 254 LINE",
"396.587 630 LINE",
"429.587 630 LINE"
);
},
{
closed = 1;
nodes = (
"391.804 774.368 OFFCURVE",
"417.99 795.415 OFFCURVE",
"423.373 822.474 CURVE SMOOTH",
"428.755 849.533 OFFCURVE",
"411.34 872.584 OFFCURVE",
"384.34 872.584 CURVE SMOOTH",
"356.34 872.584 OFFCURVE",
"330.755 849.533 OFFCURVE",
"325.373 822.474 CURVE SMOOTH",
"319.99 795.415 OFFCURVE",
"336.804 774.368 OFFCURVE",
"364.804 774.368 CURVE SMOOTH"
);
},
{
closed = 1;
nodes = (
"548.804 774.368 OFFCURVE",
"575.99 795.415 OFFCURVE",
"581.373 822.474 CURVE SMOOTH",
"586.755 849.533 OFFCURVE",
"568.34 872.584 OFFCURVE",
"542.34 872.584 CURVE SMOOTH",
"514.34 872.584 OFFCURVE",
"488.755 849.533 OFFCURVE",
"483.373 822.474 CURVE SMOOTH",
"477.99 795.415 OFFCURVE",
"494.804 774.368 OFFCURVE",
"522.804 774.368 CURVE SMOOTH"
);
}
);
width = 674.00465;
}
);
leftMetricsKey = A;
rightMetricsKey = A;
unicode = 00C4;
},
{
glyphname = Agrave;
lastChange = "2021-08-28 16:04:16 +0000";
layers = (
{
anchors = (
{
name = ogonek;
position = "{586.767, 0}";
},
{
name = top;
position = "{444.006, 700}";
}
);
hints = (
{
horizontal = 1;
place = "{-13.113, -96.113}";
type = Stem;
},
{
horizontal = 1;
place = "{511.887, -20}";
target = down;
type = TopGhost;
},
{
horizontal = 1;
place = "{-188.113, 21}";
target = up;
type = BottomGhost;
}
);
layerId = "0CF0EA28-C756-4A9E-9D7C-CFEF350B4CFE";
paths = (
{
closed = 1;
nodes = (
"75.767 0 LINE",
"171.179 173 LINE",
"508.179 173 LINE",
"533.767 0 LINE",
"651.767 0 LINE",
"542.006 700 LINE",
"346.006 700 LINE",
"-41.233 0 LINE"
);
},
{
closed = 1;
nodes = (
"495.075 268 LINE",
"223.075 268 LINE",
"408.109 605 LINE",
"444.109 605 LINE"
);
},
{
closed = 1;
nodes = (
"355.651 849.036 LINE",
"554.818 739.273 LINE",
"571.643 823.861 LINE",
"374.88 945.708 LINE"
);
}
);
width = 710;
},
{
anchors = (
{
name = ogonek;
position = "{529.268, 0}";
},
{
name = top;
position = "{398.91, 697}";
}
);
background = {
hints = (
{
horizontal = 1;
place = "{0, 21}";
type = Stem;
},
{
horizontal = 1;
place = "{196, 47}";
type = Stem;
},
{
horizontal = 1;
place = "{685, 20}";
type = Stem;
},
{
horizontal = 1;
place = "{765, 21}";
type = Stem;
},
{
horizontal = 1;
place = "{878, 20}";
type = Stem;
}
);
paths = (
{
closed = 1;
nodes = (
"874.45 0 LINE",
"548.45 705 LINE",
"498.45 705 LINE",
"172.45 0 LINE",
"226.45 0 LINE",
"315.45 196 LINE",
"728.45 196 LINE",
"817.45 0 LINE"
);
},
{
closed = 1;
nodes = (
"706.45 243 LINE",
"337.45 243 LINE",
"522.45 648 LINE"
);
},
{
closed = 1;
nodes = (
"498.45 765 LINE",
"540.45 765 LINE",
"452.45 898 LINE",
"391.45 868 LINE"
);
}
);
};
hints = (
{
horizontal = 1;
place = "{521.818, -20}";
target = down;
type = TopGhost;
},
{
horizontal = 1;
place = "{-178.182, 21}";
target = up;
type = BottomGhost;
}
);
layerId = "6E968933-CD79-43C6-9231-80D77C940F4D";
paths = (
{
closed = 1;
nodes = (
"-16.732 0 LINE",
"106.039 210 LINE",
"495.039 210 LINE",
"533.268 0 LINE",
"556.268 0 LINE",
"428.507 700 LINE",
"367.507 700 LINE",
"-39.732 0 LINE"
);
},
{
closed = 1;
nodes = (
"492.018 230 LINE",
"117.018 230 LINE",
"378.528 680 LINE",
"410.528 680 LINE"
);
},
{
closed = 1;
nodes = (
"327.506 870.924 LINE",
"488.794 741.665 LINE",
"492.948 762.546 LINE",
"332.45 895.782 LINE"
);
}
);
width = 615.99574;
},
{
anchors = (
{
name = ogonek;
position = "{663.97, 1}";
},
{
name = top;
position = "{488.01, 700}";
}
);
hints = (
{
horizontal = 1;
place = "{182.001, -51.999}";
type = Stem;
},
{
horizontal = 1;
place = "{104.001, -20}";
target = down;
type = TopGhost;
},
{
horizontal = 1;
place = "{-192.999, 21}";
target = up;
type = BottomGhost;
}
);
layerId = "BAF31694-0472-4296-B0EA-1654553C45D2";
paths = (
{
closed = 1;
nodes = (
"135.771 0 LINE",
"212.619 140 LINE",
"539.619 140 LINE",
"561.771 0 LINE",
"740.771 0 LINE",
"626.01 700 LINE",
"351.01 700 LINE",
"-44.229 0 LINE"
);
},
{
closed = 1;
nodes = (
"515.66 286 LINE",
"292.66 286 LINE",
"439.969 554 LINE",
"474.969 554 LINE"
);
},
{
closed = 1;
nodes = (
"394.622 835.044 LINE",
"618.042 736.608 LINE",
"641.973 856.919 LINE",
"421.52 970.269 LINE"
);
}
);
width = 796.00047;
},
{
anchors = (
{
name = ogonek;
position = "{565.268, 0}";
},
{
name = top;
position = "{426.308, 699}";
}
);
hints = (
{
horizontal = 1;
place = "{515.468, -20}";
target = down;
type = TopGhost;
},
{
horizontal = 1;
place = "{-184.532, 21}";
target = up;
type = BottomGhost;
}
);
layerId = "9F107B1E-3A61-4335-981B-27DD48125C7E";
paths = (
{
closed = 1;
nodes = (
"40.268 0 LINE",
"144.868 184 LINE",
"502.868 184 LINE",
"533.268 0 LINE",
"615.268 0 LINE",
"499.507 700 LINE",
"354.507 700 LINE",
"-40.732 0 LINE"
);
},
{
closed = 1;
nodes = (
"491.792 254 LINE",
"184.792 254 LINE",
"396.583 630 LINE",
"429.583 630 LINE"
);
},
{
closed = 1;
nodes = (
"345.545 858.553 LINE",
"530.42 742.298 LINE",
"542.381 802.43 LINE",
"359.3 927.705 LINE"
);
}
);
width = 673.99465;
}
);
leftMetricsKey = A;
rightMetricsKey = A;
unicode = 00C0;
},
{
glyphname = Amacron;
lastChange = "2021-08-28 16:04:16 +0000";
layers = (
{
anchors = (
{
name = ogonek;
position = "{586.77, 0}";
},
{
name = top;
position = "{444.008, 700}";
}
);
hints = (
{
horizontal = 1;
place = "{1.91, -81.09}";
type = Stem;
},
{
horizontal = 1;
place = "{526.91, -20}";
target = down;
type = TopGhost;
},
{
horizontal = 1;
place = "{-173.09, 21}";
target = up;
type = BottomGhost;
},
{
horizontal = 1;
place = "{611.498, -87.495}";
type = Stem;
}
);
layerId = "0CF0EA28-C756-4A9E-9D7C-CFEF350B4CFE";
paths = (
{
closed = 1;
nodes = (
"75.77 0 LINE",
"171.182 173 LINE",
"508.182 173 LINE",
"533.77 0 LINE",
"651.77 0 LINE",
"542.008 700 LINE",
"346.008 700 LINE",
"-41.23 0 LINE"
);
},
{
closed = 1;
nodes = (
"495.078 268 LINE",
"223.078 268 LINE",
"408.112 605 LINE",
"444.112 605 LINE"
);
},
{
closed = 1;
nodes = (
"277.834 784.588 LINE",
"643.834 784.588 LINE",
"660.86 870.183 LINE",
"294.86 870.183 LINE"
);
}
);
width = 710;
},
{
anchors = (
{
name = ogonek;
position = "{529.27, 0}";
},
{
name = top;
position = "{398.912, 697}";
}
);
hints = (
{
horizontal = 1;
place = "{534.08, -20}";
target = down;
type = TopGhost;
},
{
horizontal = 1;
place = "{-165.92, 21}";
target = up;
type = BottomGhost;
},
{
horizontal = 1;
place = "{635.404, 21}";
target = up;
type = BottomGhost;
},
{
horizontal = 1;
place = "{653.301, -20}";
target = down;
type = TopGhost;
}
);
layerId = "6E968933-CD79-43C6-9231-80D77C940F4D";
paths = (
{
closed = 1;
nodes = (
"-16.73 0 LINE",
"106.042 210 LINE",
"495.042 210 LINE",
"533.27 0 LINE",
"556.27 0 LINE",
"428.509 700 LINE",
"367.509 700 LINE",
"-39.73 0 LINE"
);
},
{
closed = 1;
nodes = (
"492.02 230 LINE",
"117.02 230 LINE",
"378.531 680 LINE",
"410.531 680 LINE"
);
},
{
closed = 1;
nodes = (
"268.234 814.249 LINE",
"578.234 814.249 LINE",
"582.19 834.135 LINE",
"272.19 834.135 LINE"
);
}
);
width = 615.99574;
},
{
anchors = (
{
name = ogonek;
position = "{663.968, 1}";
},
{
name = top;
position = "{488.008, 700}";
}
);
hints = (
{
horizontal = 1;
place = "{198.219, -35.781}";
type = Stem;
},
{
horizontal = 1;
place = "{120.219, -20}";
target = down;
type = TopGhost;
},
{
horizontal = 1;
place = "{-176.781, 21}";
target = up;
type = BottomGhost;
},
{
horizontal = 1;
place = "{592.64, -56.47}";
type = Stem;
}
);
layerId = "BAF31694-0472-4296-B0EA-1654553C45D2";
paths = (
{
closed = 1;
nodes = (
"135.769 0 LINE",
"212.617 140 LINE",
"539.617 140 LINE",
"561.769 0 LINE",
"740.769 0 LINE",
"626.008 700 LINE",
"351.008 700 LINE",
"-44.231 0 LINE"
);
},
{
closed = 1;
nodes = (
"515.658 286 LINE",
"292.658 286 LINE",
"439.967 554 LINE",
"474.967 554 LINE"
);
},
{
closed = 1;
nodes = (
"305.567 769.42 LINE",
"708.567 769.42 LINE",
"732.3 888.736 LINE",
"329.3 888.736 LINE"
);
}
);
width = 796.00047;
},
{
anchors = (
{
name = ogonek;
position = "{565.272, 0}";
},
{
name = top;
position = "{426.312, 699}";
}
);
hints = (
{
horizontal = 1;
place = "{529.622, -20}";
target = down;
type = TopGhost;
},
{
horizontal = 1;
place = "{-170.378, 21}";
target = up;
type = BottomGhost;
},
{
horizontal = 1;
place = "{223.154, 21}";
target = up;
type = BottomGhost;
},
{
horizontal = 1;
place = "{230.17, -20}";
target = down;
type = TopGhost;
}
);
layerId = "9F107B1E-3A61-4335-981B-27DD48125C7E";
paths = (
{
closed = 1;
nodes = (
"40.272 0 LINE",
"144.872 184 LINE",
"502.872 184 LINE",
"533.272 0 LINE",
"615.272 0 LINE",
"499.511 700 LINE",
"354.511 700 LINE",
"-40.728 0 LINE"
);
},
{
closed = 1;
nodes = (
"491.796 254 LINE",
"184.796 254 LINE",
"396.587 630 LINE",
"429.587 630 LINE"
);
},
{
closed = 1;
nodes = (
"275.189 796.417 LINE",
"620.189 796.417 LINE",
"632.15 856.549 LINE",
"287.15 856.549 LINE"
);
}
);
width = 674.00465;
}
);
leftMetricsKey = A;
rightMetricsKey = A;
unicode = 0100;
},
{
glyphname = Aogonek;
lastChange = "2021-08-28 16:04:16 +0000";
layers = (
{
anchors = (
{
name = _ogonek;
position = "{-383.729, 0}";
},
{
name = ogonek;
position = "{586.771, 0}";
},
{
name = top;
position = "{444.01, 700}";
}
);
hints = (
{
place = "{316.761, -46.239}";
type = Stem;
},
{
place = "{316.761, 74.761}";
type = Stem;
},
{
horizontal = 1;
place = "{-352.239, -65.239}";
type = Stem;
},
{
horizontal = 1;
place = "{35.761, -47.239}";
type = Stem;
},
{
horizontal = 1;
place = "{560.761, -20}";
target = down;
type = TopGhost;
},
{
horizontal = 1;
place = "{-139.239, 21}";
target = up;
type = BottomGhost;
}
);
layerId = "0CF0EA28-C756-4A9E-9D7C-CFEF350B4CFE";
paths = (
{
closed = 1;
nodes = (
"540.029 39 LINE SMOOTH",
"437.277 -5 OFFCURVE",
"394.729 -53 OFFCURVE",
"384.584 -104 CURVE SMOOTH",
"368.671 -184 OFFCURVE",
"432.903 -213 OFFCURVE",
"495.903 -213 CURVE SMOOTH",
"524.903 -213 OFFCURVE",
"555.295 -206 OFFCURVE",
"580.086 -197 CURVE",
"594.407 -125 LINE",
"569.617 -134 OFFCURVE",
"544.623 -139 OFFCURVE",
"525.623 -139 CURVE SMOOTH",
"491.623 -139 OFFCURVE",
"474.402 -120 OFFCURVE",
"479.971 -92 CURVE SMOOTH",
"484.745 -68 OFFCURVE",
"502.922 -47 OFFCURVE",
"550.299 -25 CURVE SMOOTH",
"604.271 0 LINE",
"585.808 58 LINE"
);
},
{
closed = 1;
nodes = (
"75.771 0 LINE",
"171.183 173 LINE",
"508.183 173 LINE",
"533.771 0 LINE",
"651.771 0 LINE",
"542.01 700 LINE",
"346.01 700 LINE",
"-41.229 0 LINE"
);
},
{
closed = 1;
nodes = (
"495.08 268 LINE",
"223.08 268 LINE",
"408.113 605 LINE",
"444.113 605 LINE"
);
}
);
width = 710;
},
{
anchors = (
{
name = _ogonek;
position = "{-319.729, 0}";
},
{
name = ogonek;
position = "{529.271, 0}";
},
{
name = top;
position = "{398.913, 697}";
}
);
hints = (
{
place = "{282.761, -118.239}";
type = Stem;
},
{
horizontal = 1;
place = "{-324.239, 21}";
target = up;
type = BottomGhost;
},
{
horizontal = 1;
place = "{560.761, -20}";
target = down;
type = TopGhost;
},
{
horizontal = 1;
place = "{-139.239, 21}";
target = up;
type = BottomGhost;
}
);
layerId = "6E968933-CD79-43C6-9231-80D77C940F4D";
paths = (
{
closed = 1;
nodes = (
"471.288 -15 LINE SMOOTH",
"402.718 -43 OFFCURVE",
"371.955 -77 OFFCURVE",
"364.396 -115 CURVE SMOOTH",
"354.252 -166 OFFCURVE",
"388.677 -189 OFFCURVE",
"440.677 -189 CURVE SMOOTH",
"459.677 -189 OFFCURVE",
"482.473 -185 OFFCURVE",
"505.064 -177 CURVE",
"509.241 -156 LINE",
"486.65 -164 OFFCURVE",
"463.655 -169 OFFCURVE",
"443.655 -169 CURVE SMOOTH",
"404.655 -169 OFFCURVE",
"378.037 -152 OFFCURVE",
"385.595 -114 CURVE SMOOTH",
"391.364 -85 OFFCURVE",
"415.132 -56 OFFCURVE",
"471.707 -33 CURVE SMOOTH",
"549.271 0 LINE",
"545.454 16 LINE"
);
},
{
closed = 1;
nodes = (
"-16.729 0 LINE",
"106.043 210 LINE",
"495.043 210 LINE",
"533.271 0 LINE",
"556.271 0 LINE",
"428.51 700 LINE",
"367.51 700 LINE",
"-39.729 0 LINE"
);
},
{
closed = 1;
nodes = (
"492.021 230 LINE",
"117.021 230 LINE",
"378.532 680 LINE",
"410.532 680 LINE"
);
}
);
width = 615.99553;
},
{
anchors = (
{
name = _ogonek;
position = "{231.47, 1}";
},
{
name = ogonek;
position = "{663.97, 1}";
},
{
name = top;
position = "{488.01, 700}";
}
);
hints = (
{
place = "{54.761, -100.239}";
type = Stem;
},
{
place = "{316.761, 40.761}";
type = Stem;
},
{
horizontal = 1;
place = "{-357.239, -40.239}";
type = Stem;
},
{
horizontal = 1;
place = "{235.761, 1.761}";
type = Stem;
},
{
horizontal = 1;
place = "{157.761, -20}";
target = down;
type = TopGhost;
},
{
horizontal = 1;
place = "{-139.239, 21}";
target = up;
type = BottomGhost;
}
);
layerId = "BAF31694-0472-4296-B0EA-1654553C45D2";
paths = (
{
closed = 1;
nodes = (
"585.598 67 LINE SMOOTH",
"444.857 13 OFFCURVE",
"398.912 -37 OFFCURVE",
"386.38 -100 CURVE SMOOTH",
"370.467 -180 OFFCURVE",
"426.908 -218 OFFCURVE",
"510.908 -218 CURVE SMOOTH",
"547.908 -218 OFFCURVE",
"583.102 -212 OFFCURVE",
"613.892 -203 CURVE",
"633.584 -104 LINE",
"603.595 -114 OFFCURVE",
"576.601 -119 OFFCURVE",
"555.601 -119 CURVE SMOOTH",
"527.601 -119 OFFCURVE",
"512.988 -107 OFFCURVE",
"517.165 -86 CURVE SMOOTH",
"520.944 -67 OFFCURVE",
"537.724 -48 OFFCURVE",
"597.696 -23 CURVE SMOOTH",
"648.072 -1 LINE",
"627.98 84 LINE"
);
},
{
closed = 1;
nodes = (
"135.771 0 LINE",
"212.619 140 LINE",
"539.619 140 LINE",
"561.771 0 LINE",
"740.771 0 LINE",
"626.01 700 LINE",
"351.01 700 LINE",
"-44.229 0 LINE"
);
},
{
closed = 1;
nodes = (
"515.66 286 LINE",
"292.66 286 LINE",
"439.969 554 LINE",
"474.969 554 LINE"
);
}
);
width = 795.99623;
},
{
anchors = (
{
name = _ogonek;
position = "{-359.729, 0}";
},
{
name = ogonek;
position = "{565.271, 0}";
},
{
name = top;
position = "{426.311, 699}";
}
);
hints = (
{
place = "{-114.239, -85.239}";
type = Stem;
},
{
horizontal = 1;
place = "{-208.239, 21}";
target = up;
type = BottomGhost;
},
{
horizontal = 1;
place = "{560.761, -20}";
target = down;
type = TopGhost;
},
{
horizontal = 1;
place = "{-139.239, 21}";
target = up;
type = BottomGhost;
}
);
layerId = "9F107B1E-3A61-4335-981B-27DD48125C7E";
paths = (
{
closed = 1;
nodes = (
"514.051 19 LINE SMOOTH",
"424.492 -19 OFFCURVE",
"385.939 -62 OFFCURVE",
"376.789 -108 CURVE SMOOTH",
"363.064 -177 OFFCURVE",
"416.693 -204 OFFCURVE",
"475.693 -204 CURVE SMOOTH",
"500.693 -204 OFFCURVE",
"527.887 -198 OFFCURVE",
"551.478 -190 CURVE",
"562.02 -137 LINE",
"538.429 -145 OFFCURVE",
"514.434 -150 OFFCURVE",
"495.434 -150 CURVE SMOOTH",
"459.434 -150 OFFCURVE",
"438.015 -132 OFFCURVE",
"444.38 -100 CURVE SMOOTH",
"449.552 -74 OFFCURVE",
"470.326 -50 OFFCURVE",
"520.702 -28 CURVE SMOOTH",
"583.271 0 LINE",
"570.626 42 LINE"
);
},
{
closed = 1;
nodes = (
"40.271 0 LINE",
"144.871 184 LINE",
"502.871 184 LINE",
"533.271 0 LINE",
"615.271 0 LINE",
"499.51 700 LINE",
"354.51 700 LINE",
"-40.729 0 LINE"
);
},
{
closed = 1;
nodes = (
"491.795 254 LINE",
"184.795 254 LINE",
"396.586 630 LINE",
"429.586 630 LINE"
);
}
);
width = 673.99707;
}
);
leftMetricsKey = A;
rightMetricsKey = A;
unicode = 0104;
},
{
glyphname = Aring;
lastChange = "2021-08-28 16:04:16 +0000";
layers = (
{
anchors = (
{
name = ogonek;
position = "{586.768, 0}";
},
{
name = top;
position = "{444.007, 700}";
}
);
hints = (
{
horizontal = 1;
place = "{-18.922, -101.922}";
type = Stem;
},
{
horizontal = 1;
place = "{506.078, -20}";
target = down;
type = TopGhost;
},
{
horizontal = 1;
place = "{-193.922, 21}";
target = up;
type = BottomGhost;
},
{
place = "{47.828, -129.474}";
type = Stem;
},
{
place = "{208.828, -129.474}";
type = Stem;
},
{
horizontal = 1;
place = "{560.456, -134.509}";
type = Stem;
},
{
horizontal = 1;
place = "{722.583, -135.516}";
type = Stem;
}
);
layerId = "0CF0EA28-C756-4A9E-9D7C-CFEF350B4CFE";
paths = (
{
closed = 1;
nodes = (
"75.768 0 LINE",
"171.18 173 LINE",
"508.18 173 LINE",
"533.768 0 LINE",
"651.768 0 LINE",
"542.007 700 LINE",
"346.007 700 LINE",
"-41.232 0 LINE"
);
},
{
closed = 1;
nodes = (
"495.077 268 LINE",
"223.077 268 LINE",
"408.11 605 LINE",
"444.11 605 LINE"
);
},
{
closed = 1;
nodes = (
"603.277 932.617 OFFCURVE",
"561.69 974.911 OFFCURVE",
"498.69 974.911 CURVE SMOOTH",
"437.69 974.911 OFFCURVE",
"378.277 932.617 OFFCURVE",
"364.656 864.141 CURVE SMOOTH",
"351.236 796.672 OFFCURVE",
"393.823 754.378 OFFCURVE",
"454.823 754.378 CURVE SMOOTH",
"517.823 754.378 OFFCURVE",
"576.236 796.672 OFFCURVE",
"589.656 864.141 CURVE SMOOTH"
);
},
{
closed = 1;
nodes = (
"519.848 834.938 OFFCURVE",
"493.641 813.791 OFFCURVE",
"466.641 813.791 CURVE SMOOTH",
"440.641 813.791 OFFCURVE",
"422.848 834.938 OFFCURVE",
"428.857 865.148 CURVE SMOOTH",
"435.066 896.365 OFFCURVE",
"461.072 916.505 OFFCURVE",
"487.072 916.505 CURVE SMOOTH",
"514.072 916.505 OFFCURVE",
"532.066 896.365 OFFCURVE",
"525.857 865.148 CURVE SMOOTH"
);
}
);
width = 710;
},
{
anchors = (
{
name = ogonek;
position = "{529.272, 0}";
},
{
name = top;
position = "{398.914, 697}";
}
);
background = {
hints = (
{
horizontal = 1;
place = "{0, 21}";
type = Stem;
},
{
horizontal = 1;
place = "{196, 47}";
type = Stem;
},
{
horizontal = 1;
place = "{682, 20}";
type = Stem;
},
{
horizontal = 1;
place = "{826, 32}";
type = Stem;
},
{
place = "{297, 36}";
type = Stem;
},
{
place = "{457, 36}";
type = Stem;
}
);
paths = (
{
closed = 1;
nodes = (
"183.53 0 LINE",
"237.53 0 LINE",
"326.53 196 LINE",
"739.53 196 LINE",
"828.53 0 LINE",
"885.53 0 LINE",
"572.53 678 LINE",
"606.53 692 OFFCURVE",
"632.53 725 OFFCURVE",
"632.53 764 CURVE SMOOTH",
"632.53 816 OFFCURVE",
"586.53 858 OFFCURVE",
"534.53 858 CURVE SMOOTH",
"482.53 858 OFFCURVE",
"436.53 816 OFFCURVE",
"436.53 764 CURVE SMOOTH",
"436.53 725 OFFCURVE",
"462.53 692 OFFCURVE",
"496.53 678 CURVE"
);
},
{
closed = 1;
nodes = (
"596.53 730 OFFCURVE",
"568.53 702 OFFCURVE",
"534.53 702 CURVE SMOOTH",
"500.53 702 OFFCURVE",
"472.53 730 OFFCURVE",
"472.53 764 CURVE SMOOTH",
"472.53 798 OFFCURVE",
"500.53 826 OFFCURVE",
"534.53 826 CURVE SMOOTH",
"568.53 826 OFFCURVE",
"596.53 798 OFFCURVE",
"596.53 764 CURVE SMOOTH"
);
},
{
closed = 1;
nodes = (
"717.53 243 LINE",
"348.53 243 LINE",
"533.53 648 LINE"
);
}
);
};
hints = (
{
horizontal = 1;
place = "{510.742, -20}";
target = down;
type = TopGhost;
},
{
horizontal = 1;
place = "{-189.258, 21}";
target = up;
type = BottomGhost;
},
{
place = "{33.742, -168.377}";
type = Stem;
},
{
place = "{199.742, -168.377}";
type = Stem;
},
{
horizontal = 1;
place = "{585.22, -13.267}";
type = Stem;
}
);
layerId = "6E968933-CD79-43C6-9231-80D77C940F4D";
paths = (
{
closed = 1;
nodes = (
"-16.728 0 LINE",
"106.044 210 LINE",
"495.044 210 LINE",
"533.272 0 LINE",
"556.272 0 LINE",
"428.511 700 LINE",
"367.511 700 LINE",
"-39.728 0 LINE"
);
},
{
closed = 1;
nodes = (
"492.022 230 LINE",
"117.022 230 LINE",
"378.533 680 LINE",
"410.533 680 LINE"
);
},
{
closed = 1;
nodes = (
"533.608 916.662 OFFCURVE",
"498.53 951.463 OFFCURVE",
"449.53 951.463 CURVE SMOOTH",
"400.53 951.463 OFFCURVE",
"352.608 916.662 OFFCURVE",
"341.532 860.981 CURVE SMOOTH",
"330.457 805.301 OFFCURVE",
"364.732 771.495 OFFCURVE",
"413.732 771.495 CURVE SMOOTH",
"462.732 771.495 OFFCURVE",
"511.457 805.301 OFFCURVE",
"522.532 860.981 CURVE SMOOTH"
);
},
{
closed = 1;
nodes = (
"492.83 817.232 OFFCURVE",
"457.49 790.386 OFFCURVE",
"417.49 790.386 CURVE SMOOTH",
"377.49 790.386 OFFCURVE",
"353.83 817.232 OFFCURVE",
"362.532 860.981 CURVE SMOOTH",
"371.432 905.725 OFFCURVE",
"405.772 932.571 OFFCURVE",
"445.772 932.571 CURVE SMOOTH",
"485.772 932.571 OFFCURVE",
"510.432 905.725 OFFCURVE",
"501.532 860.981 CURVE SMOOTH"
);
}
);
width = 615.99574;
},
{
anchors = (
{
name = ogonek;
position = "{663.969, 1}";
},
{
name = top;
position = "{488.009, 700}";
}
);
hints = (
{
horizontal = 1;
place = "{179.43, -54.57}";
type = Stem;
},
{
horizontal = 1;
place = "{101.43, -20}";
target = down;
type = TopGhost;
},
{
horizontal = 1;
place = "{-195.57, 21}";
target = up;
type = BottomGhost;
},
{
place = "{83.43, -119.009}";
type = Stem;
},
{
place = "{254.43, -119.009}";
type = Stem;
},
{
horizontal = 1;
place = "{544.022, -121.991}";
type = Stem;
},
{
horizontal = 1;
place = "{714.047, -121.991}";
type = Stem;
}
);
layerId = "BAF31694-0472-4296-B0EA-1654553C45D2";
paths = (
{
closed = 1;
nodes = (
"135.77 0 LINE",
"212.618 140 LINE",
"539.618 140 LINE",
"561.77 0 LINE",
"740.77 0 LINE",
"626.009 700 LINE",
"351.009 700 LINE",
"-44.23 0 LINE"
);
},
{
closed = 1;
nodes = (
"515.659 286 LINE",
"292.659 286 LINE",
"439.968 554 LINE",
"474.968 554 LINE"
);
},
{
closed = 1;
nodes = (
"663.794 936.463 OFFCURVE",
"618.09 983.195 OFFCURVE",
"550.09 983.195 CURVE SMOOTH",
"482.09 983.195 OFFCURVE",
"416.794 936.463 OFFCURVE",
"401.763 860.896 CURVE SMOOTH",
"386.93 786.323 OFFCURVE",
"433.634 739.591 OFFCURVE",
"501.634 739.591 CURVE SMOOTH",
"569.634 739.591 OFFCURVE",
"633.93 786.323 OFFCURVE",
"648.763 860.896 CURVE SMOOTH"
);
},
{
closed = 1;
nodes = (
"567.225 833.056 OFFCURVE",
"542.27 813.17 OFFCURVE",
"516.27 813.17 CURVE SMOOTH",
"490.27 813.17 OFFCURVE",
"473.225 833.056 OFFCURVE",
"478.961 861.89 CURVE SMOOTH",
"484.697 890.725 OFFCURVE",
"509.454 909.617 OFFCURVE",
"535.454 909.617 CURVE SMOOTH",
"561.454 909.617 OFFCURVE",
"578.697 890.725 OFFCURVE",
"572.961 861.89 CURVE SMOOTH"
);
}
);
width = 796.00047;
},
{
anchors = (
{
name = ogonek;
position = "{565.273, 0}";
},
{
name = top;
position = "{426.313, 699}";
}
);
hints = (
{
horizontal = 1;
place = "{507.693, -20}";
target = down;
type = TopGhost;
},
{
horizontal = 1;
place = "{-192.307, 21}";
target = up;
type = BottomGhost;
},
{
place = "{143.693, -144.201}";
type = Stem;
},
{
place = "{475.693, -147.208}";
type = Stem;
},
{
horizontal = 1;
place = "{671.258, -89.08}";
type = Stem;
}
);
layerId = "9F107B1E-3A61-4335-981B-27DD48125C7E";
paths = (
{
closed = 1;
nodes = (
"40.273 0 LINE",
"144.873 184 LINE",
"502.873 184 LINE",
"533.273 0 LINE",
"615.273 0 LINE",
"499.512 700 LINE",
"354.512 700 LINE",
"-40.727 0 LINE"
);
},
{
closed = 1;
nodes = (
"491.797 254 LINE",
"184.797 254 LINE",
"396.588 630 LINE",
"429.588 630 LINE"
);
},
{
closed = 1;
nodes = (
"577.106 926.703 OFFCURVE",
"538.08 966.791 OFFCURVE",
"481.08 966.791 CURVE SMOOTH",
"424.08 966.791 OFFCURVE",
"369.106 926.703 OFFCURVE",
"356.547 863.564 CURVE SMOOTH",
"343.988 800.426 OFFCURVE",
"383.213 761.34 OFFCURVE",
"440.213 761.34 CURVE SMOOTH",
"497.213 761.34 OFFCURVE",
"551.988 800.426 OFFCURVE",
"564.547 863.564 CURVE SMOOTH"
);
},
{
closed = 1;
nodes = (
"510.57 828.487 OFFCURVE",
"480.985 805.437 OFFCURVE",
"448.985 805.437 CURVE SMOOTH",
"416.985 805.437 OFFCURVE",
"397.57 828.487 OFFCURVE",
"404.547 863.564 CURVE SMOOTH",
"411.923 900.646 OFFCURVE",
"440.309 922.694 OFFCURVE",
"472.309 922.694 CURVE SMOOTH",
"504.309 922.694 OFFCURVE",
"524.923 900.646 OFFCURVE",
"517.547 863.564 CURVE SMOOTH"
);
}
);
width = 674.00465;
}
);
leftMetricsKey = A;
rightMetricsKey = A;
unicode = 00C5;
},
{
glyphname = Atilde;
lastChange = "2021-08-28 16:04:16 +0000";
layers = (
{
anchors = (
{
name = ogonek;
position = "{586.768, 0}";
},
{
name = top;
position = "{444.007, 700}";
}
);
hints = (
{
horizontal = 1;
place = "{0.908, -82.092}";
type = Stem;
},
{
horizontal = 1;
place = "{525.908, -20}";
target = down;
type = TopGhost;
},
{
horizontal = 1;
place = "{-174.092, 21}";
target = up;
type = BottomGhost;
},
{
horizontal = 1;
place = "{581.293, -98.567}";
type = Stem;
},
{
horizontal = 1;
place = "{583.307, -56.273}";
type = Stem;
},
{
horizontal = 1;
place = "{626.608, -99.574}";
type = Stem;
},
{
horizontal = 1;
place = "{581.293, -56.273}";
type = Stem;
}
);
layerId = "0CF0EA28-C756-4A9E-9D7C-CFEF350B4CFE";
paths = (
{
closed = 1;
nodes = (
"75.768 0 LINE",
"171.18 173 LINE",
"508.18 173 LINE",
"533.768 0 LINE",
"651.768 0 LINE",
"542.007 700 LINE",
"346.007 700 LINE",
"-41.232 0 LINE"
);
},
{
closed = 1;
nodes = (
"495.077 268 LINE",
"223.077 268 LINE",
"408.11 605 LINE",
"444.11 605 LINE"
);
},
{
closed = 1;
nodes = (
"356.424 757.399 LINE",
"366.233 786.602 OFFCURVE",
"386.037 800.7 OFFCURVE",
"408.037 800.7 CURVE SMOOTH",
"448.037 800.7 OFFCURVE",
"461.024 755.385 OFFCURVE",
"515.024 755.385 CURVE SMOOTH",
"573.024 755.385 OFFCURVE",
"624.635 793.651 OFFCURVE",
"651.459 873.204 CURVE",
"587.459 873.204 LINE",
"577.651 844.001 OFFCURVE",
"558.047 830.91 OFFCURVE",
"536.047 830.91 CURVE SMOOTH",
"496.047 830.91 OFFCURVE",
"482.86 875.218 OFFCURVE",
"428.86 875.218 CURVE SMOOTH",
"370.86 875.218 OFFCURVE",
"319.248 836.952 OFFCURVE",
"292.424 757.399 CURVE"
);
}
);
width = 710;
},
{
anchors = (
{
name = ogonek;
position = "{529.275, 0}";
},
{
name = top;
position = "{398.917, 697}";
}
);
background = {
hints = (
{
horizontal = 1;
place = "{0, 21}";
type = Stem;
},
{
horizontal = 1;
place = "{196, 47}";
type = Stem;
},
{
horizontal = 1;
place = "{685, 20}";
type = Stem;
},
{
horizontal = 1;
place = "{756, 21}";
type = Stem;
},
{
horizontal = 1;
place = "{806, 52}";
type = Stem;
},
{
horizontal = 1;
place = "{765, 52}";
type = Stem;
},
{
horizontal = 1;
place = "{847, 20}";
type = Stem;
}
);
paths = (
{
closed = 1;
nodes = (
"860.81 0 LINE",
"534.81 705 LINE",
"484.81 705 LINE",
"158.81 0 LINE",
"212.81 0 LINE",
"301.81 196 LINE",
"714.81 196 LINE",
"803.81 0 LINE"
);
},
{
closed = 1;
nodes = (
"692.81 243 LINE",
"323.81 243 LINE",
"508.81 648 LINE"
);
},
{
closed = 1;
nodes = (
"623.81 867 LINE",
"608.81 829 OFFCURVE",
"597.81 817 OFFCURVE",
"573.81 817 CURVE SMOOTH",
"539.81 817 OFFCURVE",
"483.81 858 OFFCURVE",
"445.81 858 CURVE SMOOTH",
"405.81 858 OFFCURVE",
"380.81 837 OFFCURVE",
"361.81 765 CURVE",
"395.81 756 LINE",
"410.81 794 OFFCURVE",
"421.81 806 OFFCURVE",
"445.81 806 CURVE SMOOTH",
"479.81 806 OFFCURVE",
"535.81 765 OFFCURVE",
"573.81 765 CURVE SMOOTH",
"613.81 765 OFFCURVE",
"638.81 786 OFFCURVE",
"657.81 858 CURVE"
);
}
);
};
hints = (
{
horizontal = 1;
place = "{535.465, -20}";
target = down;
type = TopGhost;
},
{
horizontal = 1;
place = "{-164.535, 21}";
target = up;
type = BottomGhost;
},
{
horizontal = 1;
place = "{581.107, 21}";
target = up;
type = BottomGhost;
},
{
horizontal = 1;
place = "{647.725, -20}";
target = down;
type = TopGhost;
}
);
layerId = "6E968933-CD79-43C6-9231-80D77C940F4D";
paths = (
{
closed = 1;
nodes = (
"-16.725 0 LINE",
"106.046 210 LINE",
"495.046 210 LINE",
"533.275 0 LINE",
"556.275 0 LINE",
"428.513 700 LINE",
"367.513 700 LINE",
"-39.725 0 LINE"
);
},
{
closed = 1;
nodes = (
"492.024 230 LINE",
"117.024 230 LINE",
"378.535 680 LINE",
"410.535 680 LINE"
);
},
{
closed = 1;
nodes = (
"314.559 760.557 LINE",
"325.086 793.369 OFFCURVE",
"343.052 808.284 OFFCURVE",
"366.052 808.284 CURVE SMOOTH",
"408.052 808.284 OFFCURVE",
"412.163 758.569 OFFCURVE",
"464.163 758.569 CURVE SMOOTH",
"498.163 758.569 OFFCURVE",
"530.899 787.403 OFFCURVE",
"540.217 824.192 CURVE",
"521.217 824.192 LINE",
"511.086 793.369 OFFCURVE",
"488.921 777.46 OFFCURVE",
"467.921 777.46 CURVE SMOOTH",
"420.921 777.46 OFFCURVE",
"419.81 827.175 OFFCURVE",
"369.81 827.175 CURVE SMOOTH",
"334.81 827.175 OFFCURVE",
"308.668 801.323 OFFCURVE",
"295.559 760.557 CURVE"
);
}
);
width = 616.00574;
},
{
anchors = (
{
name = ogonek;
position = "{663.966, 1}";
},
{
name = top;
position = "{488.006, 700}";
}
);
hints = (
{
horizontal = 1;
place = "{196.637, -37.363}";
type = Stem;
},
{
horizontal = 1;
place = "{118.637, -20}";
target = down;
type = TopGhost;
},
{
horizontal = 1;
place = "{-178.363, 21}";
target = up;
type = BottomGhost;
},
{
horizontal = 1;
place = "{222.172, -146.545}";
type = Stem;
},
{
horizontal = 1;
place = "{569.183, -56.064}";
type = Stem;
},
{
horizontal = 1;
place = "{612.932, -72.967}";
type = Stem;
},
{
horizontal = 1;
place = "{567.194, -28.224}";
type = Stem;
}
);
layerId = "BAF31694-0472-4296-B0EA-1654553C45D2";
paths = (
{
closed = 1;
nodes = (
"135.767 0 LINE",
"212.615 140 LINE",
"539.615 140 LINE",
"561.767 0 LINE",
"740.767 0 LINE",
"626.006 700 LINE",
"351.006 700 LINE",
"-44.233 0 LINE"
);
},
{
closed = 1;
nodes = (
"515.656 286 LINE",
"292.656 286 LINE",
"439.965 554 LINE",
"474.965 554 LINE"
);
},
{
closed = 1;
nodes = (
"387.015 746.552 LINE",
"398.147 777.375 OFFCURVE",
"416.915 791.295 OFFCURVE",
"439.915 791.295 CURVE SMOOTH",
"479.915 791.295 OFFCURVE",
"503.015 746.552 OFFCURVE",
"564.015 746.552 CURVE SMOOTH",
"635.015 746.552 OFFCURVE",
"695.52 789.306 OFFCURVE",
"733.682 895.697 CURVE",
"643.682 895.697 LINE",
"633.749 865.867 OFFCURVE",
"614.782 850.953 OFFCURVE",
"591.782 850.953 CURVE SMOOTH",
"551.782 850.953 OFFCURVE",
"528.88 896.691 OFFCURVE",
"468.88 896.691 CURVE SMOOTH",
"396.88 896.691 OFFCURVE",
"336.178 852.942 OFFCURVE",
"298.015 746.552 CURVE"
);
}
);
width = 795.99047;
},
{
anchors = (
{
name = ogonek;
position = "{565.273, 0}";
},
{
name = top;
position = "{426.312, 699}";
}
);
hints = (
{
horizontal = 1;
place = "{529.423, -20}";
target = down;
type = TopGhost;
},
{
horizontal = 1;
place = "{-170.577, 21}";
target = up;
type = BottomGhost;
},
{
horizontal = 1;
place = "{201.909, 21}";
target = up;
type = BottomGhost;
},
{
horizontal = 1;
place = "{226.964, -20}";
target = down;
type = TopGhost;
}
);
layerId = "9F107B1E-3A61-4335-981B-27DD48125C7E";
paths = (
{
closed = 1;
nodes = (
"40.273 0 LINE",
"144.872 184 LINE",
"502.872 184 LINE",
"533.273 0 LINE",
"615.273 0 LINE",
"499.511 700 LINE",
"354.511 700 LINE",
"-40.727 0 LINE"
);
},
{
closed = 1;
nodes = (
"491.796 254 LINE",
"184.796 254 LINE",
"396.587 630 LINE",
"429.587 630 LINE"
);
},
{
closed = 1;
nodes = (
"341.212 761.34 LINE",
"351.193 791.406 OFFCURVE",
"369.585 803.432 OFFCURVE",
"392.585 803.432 CURVE SMOOTH",
"432.585 803.432 OFFCURVE",
"442.415 757.331 OFFCURVE",
"496.415 757.331 CURVE SMOOTH",
"545.415 757.331 OFFCURVE",
"588.794 789.401 OFFCURVE",
"609.353 852.54 CURVE",
"562.353 852.54 LINE",
"552.572 823.476 OFFCURVE",
"532.18 811.45 OFFCURVE",
"510.18 811.45 CURVE SMOOTH",
"468.18 811.45 OFFCURVE",
"459.35 857.551 OFFCURVE",
"406.35 857.551 CURVE SMOOTH",
"357.35 857.551 OFFCURVE",
"315.971 825.481 OFFCURVE",
"294.212 761.34 CURVE"
);
}
);
width = 674.00465;
}
);
leftMetricsKey = A;
rightMetricsKey = A;
unicode = 00C3;
},
{
glyphname = AE;
lastChange = "2021-08-28 16:04:20 +0000";
layers = (
{
hints = (
{
place = "{328.761, -25.239}";
type = Stem;
},
{
horizontal = 1;
place = "{-139.239, -50.239}";
type = Stem;
},
{
horizontal = 1;
place = "{3.761, -50.239}";
type = Stem;
},
{
horizontal = 1;
place = "{170.761, -51.239}";
type = Stem;
},
{
horizontal = 1;
place = "{471.761, -50.239}";
type = Stem;
}
);
layerId = "0CF0EA28-C756-4A9E-9D7C-CFEF350B4CFE";
paths = (
{
closed = 1;
nodes = (
"131.984 172 LINE",
"503.984 172 LINE",
"522.881 267 LINE",
"199.881 267 LINE"
);
},
{
closed = 1;
nodes = (
"920.113 605 LINE",
"939.01 700 LINE",
"480.01 700 LINE",
"-41.229 0 LINE",
"80.771 0 LINE",
"540.296 621 LINE",
"416.771 0 LINE",
"799.771 0 LINE",
"818.668 95 LINE",
"549.668 95 LINE",
"591.639 306 LINE",
"770.639 306 LINE",
"789.535 401 LINE",
"610.535 401 LINE",
"651.113 605 LINE"
);
}
);
width = 914.5;
},
{
background = {
hints = (
{
horizontal = 1;
place = "{0, 48}";
type = Stem;
},
{
horizontal = 1;
place = "{196, 47}";
type = Stem;
},
{
horizontal = 1;
place = "{329, 48}";
type = Stem;
},
{
horizontal = 1;
place = "{652, 48}";
type = Stem;
},
{
place = "{494, 52}";
type = Stem;
}
);
paths = (
{
closed = 1;
nodes = (
"283.91 196 LINE",
"583.91 196 LINE",
"583.91 0 LINE",
"1071.91 0 LINE",
"1071.91 48 LINE",
"635.91 48 LINE",
"635.91 329 LINE",
"1021.91 329 LINE",
"1021.91 377 LINE",
"635.91 377 LINE",
"635.91 652 LINE",
"1066.91 652 LINE",
"1066.91 700 LINE",
"533.91 700 LINE",
"109.91 0 LINE",
"165.91 0 LINE"
);
},
{
closed = 1;
nodes = (
"557.91 653 LINE",
"583.91 653 LINE",
"583.91 243 LINE",
"311.91 243 LINE"
);
}
);
};
hints = (
{
place = "{307.761, -118.239}";
type = Stem;
},
{
horizontal = 1;
place = "{545.761, -20}";
target = down;
type = TopGhost;
},
{
horizontal = 1;
place = "{-139.239, 21}";
target = up;
type = BottomGhost;
}
);
layerId = "6E968933-CD79-43C6-9231-80D77C940F4D";
paths = (
{
closed = 1;
nodes = (
"148.043 210 LINE",
"444.043 210 LINE",
"448.021 230 LINE",
"159.021 230 LINE"
);
},
{
closed = 1;
nodes = (
"874.532 680 LINE",
"878.51 700 LINE",
"531.51 700 LINE",
"-39.729 0 LINE",
"-13.729 0 LINE",
"525.951 662 LINE",
"394.271 0 LINE",
"739.271 0 LINE",
"743.25 20 LINE",
"420.25 20 LINE",
"485.891 350 LINE",
"718.891 350 LINE",
"722.869 370 LINE",
"489.869 370 LINE",
"551.532 680 LINE"
);
}
);
width = 869.00043;
},
{
hints = (
{
place = "{343.761, 36.761}";
type = Stem;
},
{
horizontal = 1;
place = "{-139.239, 0.761}";
type = Stem;
},
{
horizontal = 1;
place = "{-23.239, -5.239}";
type = Stem;
},
{
horizontal = 1;
place = "{150.761, -6.239}";
type = Stem;
},
{
horizontal = 1;
place = "{421.761, -0.239}";
type = Stem;
}
);
layerId = "BAF31694-0472-4296-B0EA-1654553C45D2";
paths = (
{
closed = 1;
nodes = (
"130.619 140 LINE",
"544.619 140 LINE",
"573.66 286 LINE",
"234.66 286 LINE"
);
},
{
closed = 1;
nodes = (
"969.969 554 LINE",
"999.01 700 LINE",
"454.01 700 LINE",
"-44.229 0 LINE",
"145.771 0 LINE",
"544.952 569 LINE",
"431.771 0 LINE",
"859.771 0 LINE",
"888.813 146 LINE",
"634.813 146 LINE",
"662.859 287 LINE",
"814.859 287 LINE",
"841.911 423 LINE",
"689.911 423 LINE",
"715.969 554 LINE"
);
}
);
width = 944.49519;
},
{
hints = (
{
place = "{410.761, -75.239}";
type = Stem;
},
{
horizontal = 1;
place = "{117.761, -20}";
target = down;
type = TopGhost;
},
{
horizontal = 1;
place = "{-139.239, 21}";
target = up;
type = BottomGhost;
}
);
layerId = "9F107B1E-3A61-4335-981B-27DD48125C7E";
paths = (
{
closed = 1;
nodes = (
"131.871 184 LINE",
"481.871 184 LINE",
"495.795 254 LINE",
"178.795 254 LINE"
);
},
{
closed = 1;
nodes = (
"903.586 630 LINE",
"917.51 700 LINE",
"499.51 700 LINE",
"-40.729 0 LINE",
"46.271 0 LINE",
"535.78 636 LINE",
"409.271 0 LINE",
"778.271 0 LINE",
"792.195 70 LINE",
"503.195 70 LINE",
"553.122 321 LINE",
"751.122 321 LINE",
"765.046 391 LINE",
"567.046 391 LINE",
"614.586 630 LINE"
);
}
);
width = 897.99891;
}
);
leftMetricsKey = A;
rightMetricsKey = E;
unicode = 00C6;
},
{
glyphname = AEacute;
lastChange = "2021-08-28 16:04:20 +0000";
layers = (
{
guideLines = (
{
position = "{138.95, 753.04}";
}
);
hints = (
{
place = "{279.319, -74.681}";
type = Stem;
},
{
horizontal = 1;
place = "{-188.681, -99.681}";
type = Stem;
},
{
horizontal = 1;
place = "{-45.681, -99.681}";
type = Stem;
},
{
horizontal = 1;
place = "{121.319, -100.681}";
type = Stem;
},
{
horizontal = 1;
place = "{422.319, -99.681}";
type = Stem;
}
);
layerId = "0CF0EA28-C756-4A9E-9D7C-CFEF350B4CFE";
paths = (
{
closed = 1;
nodes = (
"131.982 172 LINE",
"503.982 172 LINE",
"522.878 267 LINE",
"199.878 267 LINE"
);
},
{
closed = 1;
nodes = (
"920.111 605 LINE",
"939.007 700 LINE",
"480.007 700 LINE",
"-41.231 0 LINE",
"80.769 0 LINE",
"540.293 621 LINE",
"416.769 0 LINE",
"799.769 0 LINE",
"818.665 95 LINE",
"549.665 95 LINE",
"591.636 306 LINE",
"770.636 306 LINE",
"789.533 401 LINE",
"610.533 401 LINE",
"651.111 605 LINE"
);
},
{
closed = 1;
nodes = (
"498.463 826.718 LINE",
"481.638 742.13 LINE",
"724.27 850.886 LINE",
"743.7 948.565 LINE"
);
}
);
width = 914.5;
},
{
hints = (
{
place = "{268.221, -157.779}";
type = Stem;
},
{
horizontal = 1;
place = "{506.221, -20}";
target = down;
type = TopGhost;
},
{
horizontal = 1;
place = "{-178.779, 21}";
target = up;
type = BottomGhost;
}
);
layerId = "6E968933-CD79-43C6-9231-80D77C940F4D";
paths = (
{
closed = 1;
nodes = (
"148.043 210 LINE",
"444.043 210 LINE",
"448.021 230 LINE",
"159.021 230 LINE"
);
},
{
closed = 1;
nodes = (
"874.532 680 LINE",
"878.51 700 LINE",
"531.51 700 LINE",
"-39.729 0 LINE",
"-13.729 0 LINE",
"525.951 662 LINE",
"394.271 0 LINE",
"739.271 0 LINE",
"743.249 20 LINE",
"420.249 20 LINE",
"485.89 350 LINE",
"718.89 350 LINE",
"722.869 370 LINE",
"489.869 370 LINE",
"551.532 680 LINE"
);
},
{
closed = 1;
nodes = (
"532.548 765.546 LINE",
"528.394 744.665 LINE",
"741.106 873.924 LINE",
"746.05 898.782 LINE"
);
}
);
width = 869.00043;
},
{
hints = (
{
place = "{290.001, -16.999}";
type = Stem;
},
{
horizontal = 1;
place = "{-192.999, -52.999}";
type = Stem;
},
{
horizontal = 1;
place = "{-76.999, -58.999}";
type = Stem;
},
{
horizontal = 1;
place = "{97.001, -59.999}";
type = Stem;
},
{
horizontal = 1;
place = "{368.001, -53.999}";
type = Stem;
}
);
layerId = "BAF31694-0472-4296-B0EA-1654553C45D2";
paths = (
{
closed = 1;
nodes = (
"130.619 140 LINE",
"544.619 140 LINE",
"573.66 286 LINE",
"234.66 286 LINE"
);
},
{
closed = 1;
nodes = (
"969.969 554 LINE",
"999.01 700 LINE",
"454.01 700 LINE",
"-44.229 0 LINE",
"145.771 0 LINE",
"544.953 569 LINE",
"431.771 0 LINE",
"859.771 0 LINE",
"888.813 146 LINE",
"634.813 146 LINE",
"662.859 287 LINE",
"814.859 287 LINE",
"841.911 423 LINE",
"689.911 423 LINE",
"715.969 554 LINE"
);
},
{
closed = 1;
nodes = (
"480.973 856.919 LINE",
"457.042 736.608 LINE",
"719.622 835.044 LINE",
"746.52 970.269 LINE"
);
}
);
width = 944.49519;
},
{
hints = (
{
place = "{364.871, -121.129}";
type = Stem;
},
{
horizontal = 1;
place = "{71.871, -20}";
target = down;
type = TopGhost;
},
{
horizontal = 1;
place = "{-185.129, 21}";
target = up;
type = BottomGhost;
}
);
layerId = "9F107B1E-3A61-4335-981B-27DD48125C7E";
paths = (
{
closed = 1;
nodes = (
"131.871 184 LINE",
"481.871 184 LINE",
"495.795 254 LINE",
"178.795 254 LINE"
);
},
{
closed = 1;
nodes = (
"903.586 630 LINE",
"917.51 700 LINE",
"499.51 700 LINE",
"-40.729 0 LINE",
"46.271 0 LINE",
"535.78 636 LINE",
"409.271 0 LINE",
"778.271 0 LINE",
"792.195 70 LINE",
"503.195 70 LINE",
"553.122 321 LINE",
"751.122 321 LINE",
"765.046 391 LINE",
"567.046 391 LINE",
"614.586 630 LINE"
);
},
{
closed = 1;
nodes = (
"511.981 805.43 LINE",
"500.02 745.298 LINE",
"730.946 860.551 LINE",
"744.9 930.705 LINE"
);
}
);
width = 897.99891;
}
);
leftMetricsKey = A;
rightMetricsKey = E;
unicode = 01FC;
},
{
glyphname = B;
lastChange = "2021-08-28 16:04:17 +0000";
layers = (
{
hints = (
{
place = "{-54.239, -25.239}";
type = Stem;
},
{
place = "{359.761, -23.239}";
type = Stem;
},
{
place = "{377.761, -25.239}";
type = Stem;
},
{
horizontal = 1;
place = "{-139.239, -46.239}";
type = Stem;
},
{
horizontal = 1;
place = "{168.761, -46.239}";
type = Stem;
},
{
horizontal = 1;
place = "{467.761, -46.239}";
type = Stem;
}
);
layerId = "0CF0EA28-C756-4A9E-9D7C-CFEF350B4CFE";
paths = (
{
closed = 1;
nodes = (
"536.594 439 OFFCURVE",
"484.234 402 OFFCURVE",
"410.234 402 CURVE SMOOTH",
"229.234 402 LINE",
"269.613 605 LINE",
"450.613 605 LINE SMOOTH",
"524.613 605 OFFCURVE",
"562.055 567 OFFCURVE",
"549.324 503 CURVE SMOOTH"
);
},
{
closed = 1;
nodes = (
"641.343 302 OFFCURVE",
"580.891 350 OFFCURVE",
"481.885 355 CURVE",
"482.084 356 LINE",
"568.272 367 OFFCURVE",
"646.621 414 OFFCURVE",
"667.109 517 CURVE SMOOTH",
"686.801 616 OFFCURVE",
"626.51 700 OFFCURVE",
"479.51 700 CURVE SMOOTH",
"174.51 700 LINE",
"35.271 0 LINE",
"353.271 0 LINE SMOOTH",
"495.271 0 OFFCURVE",
"597.184 80 OFFCURVE",
"618.468 187 CURVE SMOOTH"
);
},
{
closed = 1;
nodes = (
"493.329 131 OFFCURVE",
"439.168 95 OFFCURVE",
"362.168 95 CURVE SMOOTH",
"168.168 95 LINE",
"210.337 307 LINE",
"400.337 307 LINE SMOOTH",
"476.337 307 OFFCURVE",
"520.779 269 OFFCURVE",
"506.855 199 CURVE SMOOTH"
);
},
{
closed = 1;
nodes = (
"424.708 334 LINE",
"503.708 334 LINE",
"514.449 388 LINE",
"435.449 388 LINE"
);
}
);
width = 687.1;
},
{
background = {
hints = (
{
horizontal = 1;
place = "{0, 48}";
type = Stem;
},
{
horizontal = 1;
place = "{329, 48}";
type = Stem;
},
{
horizontal = 1;
place = "{652, 48}";
type = Stem;
},
{
place = "{104, 52}";
type = Stem;
},
{
place = "{606, 53}";
type = Stem;
},
{
place = "{567, 53}";
type = Stem;
}
);
paths = (
{
closed = 1;
nodes = (
"752.51 193 LINE SMOOTH",
"752.51 290 OFFCURVE",
"678.51 338 OFFCURVE",
"594.51 360 CURVE",
"651.51 383 OFFCURVE",
"713.51 431 OFFCURVE",
"713.51 526 CURVE SMOOTH",
"713.51 528 LINE SMOOTH",
"713.51 633 OFFCURVE",
"622.51 700 OFFCURVE",
"486.51 700 CURVE SMOOTH",
"197.51 700 LINE",
"197.51 0 LINE",
"501.51 0 LINE SMOOTH",
"652.51 0 OFFCURVE",
"752.51 74 OFFCURVE",
"752.51 191 CURVE SMOOTH"
);
},
{
closed = 1;
nodes = (
"660.51 521 LINE SMOOTH",
"660.51 428 OFFCURVE",
"585.51 377 OFFCURVE",
"480.51 377 CURVE SMOOTH",
"249.51 377 LINE",
"249.51 652 LINE",
"485.51 652 LINE SMOOTH",
"597.51 652 OFFCURVE",
"660.51 600 OFFCURVE",
"660.51 523 CURVE SMOOTH"
);
},
{
closed = 1;
nodes = (
"699.51 191 LINE SMOOTH",
"699.51 103 OFFCURVE",
"623.51 48 OFFCURVE",
"503.51 48 CURVE SMOOTH",
"249.51 48 LINE",
"249.51 329 LINE",
"486.51 329 LINE SMOOTH",
"624.51 329 OFFCURVE",
"699.51 279 OFFCURVE",
"699.51 193 CURVE SMOOTH"
);
}
);
};
hints = (
{
place = "{-36.239, -117.239}";
type = Stem;
},
{
place = "{399.761, -117.239}";
type = Stem;
},
{
place = "{421.761, -117.239}";
type = Stem;
},
{
horizontal = 1;
place = "{545.761, -20}";
target = down;
type = TopGhost;
},
{
horizontal = 1;
place = "{-139.239, 21}";
target = up;
type = BottomGhost;
}
);
layerId = "6E968933-CD79-43C6-9231-80D77C940F4D";
paths = (
{
closed = 1;
nodes = (
"574.201 432 OFFCURVE",
"499.869 370 OFFCURVE",
"381.869 370 CURVE SMOOTH",
"145.869 370 LINE",
"207.532 680 LINE",
"437.532 680 LINE SMOOTH",
"568.532 680 OFFCURVE",
"610.006 612 OFFCURVE",
"592.7 525 CURVE"
);
},
{
closed = 1;
nodes = (
"583.956 290 OFFCURVE",
"513.88 360 OFFCURVE",
"416.88 360 CURVE",
"408.482 358 LINE",
"490.681 359 OFFCURVE",
"591.03 406 OFFCURVE",
"614.899 526 CURVE",
"633.796 621 OFFCURVE",
"589.51 700 OFFCURVE",
"442.51 700 CURVE SMOOTH",
"189.51 700 LINE",
"50.271 0 LINE",
"303.271 0 LINE SMOOTH",
"455.271 0 OFFCURVE",
"542.582 82 OFFCURVE",
"563.07 185 CURVE SMOOTH"
);
},
{
closed = 1;
nodes = (
"520.781 83 OFFCURVE",
"434.25 20 OFFCURVE",
"307.25 20 CURVE SMOOTH",
"76.25 20 LINE",
"141.891 350 LINE",
"370.891 350 LINE SMOOTH",
"497.891 350 OFFCURVE",
"561.16 286 OFFCURVE",
"541.07 185 CURVE SMOOTH"
);
},
{
closed = 1;
nodes = (
"358.686 354 LINE",
"447.686 354 LINE",
"450.272 367 LINE",
"361.272 367 LINE"
);
}
);
width = 641.99886;
},
{
hints = (
{
place = "{-86.239, 36.761}";
type = Stem;
},
{
place = "{323.761, 39.761}";
type = Stem;
},
{
place = "{340.761, 39.761}";
type = Stem;
},
{
horizontal = 1;
place = "{-139.239, 2.761}";
type = Stem;
},
{
horizontal = 1;
place = "{150.761, -6.239}";
type = Stem;
},
{
horizontal = 1;
place = "{419.761, 1.761}";
type = Stem;
}
);
layerId = "BAF31694-0472-4296-B0EA-1654553C45D2";
paths = (
{
closed = 1;
nodes = (
"504.588 444 OFFCURVE",
"467.61 424 OFFCURVE",
"413.61 424 CURVE SMOOTH",
"263.61 424 LINE",
"289.469 554 LINE",
"441.469 554 LINE SMOOTH",
"495.469 554 OFFCURVE",
"522.689 535 OFFCURVE",
"513.539 489 CURVE SMOOTH"
);
},
{
closed = 1;
nodes = (
"666.553 293 OFFCURVE",
"614.288 352 OFFCURVE",
"501.283 357 CURVE",
"499.079 361 LINE",
"596.073 366 OFFCURVE",
"674.223 412 OFFCURVE",
"694.711 515 CURVE SMOOTH",
"716.989 627 OFFCURVE",
"648.51 700 OFFCURVE",
"505.51 700 CURVE SMOOTH",
"144.51 700 LINE",
"5.271 0 LINE",
"377.271 0 LINE SMOOTH",
"526.271 0 OFFCURVE",
"623.389 76 OFFCURVE",
"646.463 192 CURVE SMOOTH"
);
},
{
closed = 1;
nodes = (
"467.086 170 OFFCURVE",
"430.313 146 OFFCURVE",
"374.313 146 CURVE SMOOTH",
"208.313 146 LINE",
"236.558 288 LINE",
"400.558 288 LINE SMOOTH",
"456.558 288 OFFCURVE",
"485.983 265 OFFCURVE",
"476.435 217 CURVE SMOOTH"
);
},
{
closed = 1;
nodes = (
"445.31 332 LINE",
"519.31 332 LINE",
"530.25 387 LINE",
"456.25 387 LINE"
);
}
);
width = 694.30114;
},
{
hints = (
{
place = "{-100.239, -73.239}";
type = Stem;
},
{
place = "{255.761, -73.239}";
type = Stem;
},
{
place = "{450.761, -73.239}";
type = Stem;
},
{
horizontal = 1;
place = "{117.761, -20}";
target = down;
type = TopGhost;
},
{
horizontal = 1;
place = "{-139.239, 21}";
target = up;
type = BottomGhost;
}
);
layerId = "9F107B1E-3A61-4335-981B-27DD48125C7E";
paths = (
{
closed = 1;
nodes = (
"549.997 436 OFFCURVE",
"489.046 391 OFFCURVE",
"399.046 391 CURVE SMOOTH",
"198.046 391 LINE",
"245.586 630 LINE",
"443.586 630 LINE SMOOTH",
"539.586 630 OFFCURVE",
"579.237 583 OFFCURVE",
"564.717 510 CURVE"
);
},
{
closed = 1;
nodes = (
"618.746 299 OFFCURVE",
"554.686 354 OFFCURVE",
"456.283 357 CURVE",
"453.283 357 LINE",
"537.675 364 OFFCURVE",
"623.825 410 OFFCURVE",
"645.706 520 CURVE",
"665 617 OFFCURVE",
"611.51 700 OFFCURVE",
"464.51 700 CURVE SMOOTH",
"179.51 700 LINE",
"40.271 0 LINE",
"333.271 0 LINE SMOOTH",
"479.271 0 OFFCURVE",
"575.781 83 OFFCURVE",
"596.667 188 CURVE SMOOTH"
);
},
{
closed = 1;
nodes = (
"503.146 115 OFFCURVE",
"437.195 70 OFFCURVE",
"341.195 70 CURVE SMOOTH",
"134.195 70 LINE",
"184.122 321 LINE",
"388.122 321 LINE SMOOTH",
"483.122 321 OFFCURVE",
"535.37 277 OFFCURVE",
"519.258 196 CURVE SMOOTH"
);
},
{
closed = 1;
nodes = (
"399.299 342 LINE",
"481.299 342 LINE",
"488.858 380 LINE",
"406.858 380 LINE"
);
}
);
width = 668.39747;
}
);
leftMetricsKey = H;
rightMetricsKey = "=H*0.66";
unicode = 0042;
},
{
glyphname = C;
lastChange = "2021-08-28 16:04:17 +0000";
layers = (
{
anchors = (
{
name = bottom;
position = "{341.769, 0}";
},
{
name = top;
position = "{490.798, 709}";
}
);
hints = (
{
place = "{-98.631, -23.631}";
type = Stem;
},
{
horizontal = 1;
place = "{-146.631, -40.631}";
type = Stem;
},
{
horizontal = 1;
place = "{467.369, -39.631}";
type = Stem;
}
);
layerId = "0CF0EA28-C756-4A9E-9D7C-CFEF350B4CFE";
paths = (
{
closed = 1;
nodes = (
"20.816 141 OFFCURVE",
"150.377 -7 OFFCURVE",
"346.377 -7 CURVE SMOOTH",
"486.377 -7 OFFCURVE",
"619.306 58 OFFCURVE",
"709.949 202 CURVE",
"624.116 233 LINE",
"550.434 124 OFFCURVE",
"448.671 90 OFFCURVE",
"368.671 90 CURVE SMOOTH",
"230.671 90 OFFCURVE",
"147.159 193 OFFCURVE",
"178.388 350 CURVE SMOOTH",
"209.816 508 OFFCURVE",
"334.106 610 OFFCURVE",
"472.106 610 CURVE SMOOTH",
"550.106 610 OFFCURVE",
"636.144 575 OFFCURVE",
"665.44 486 CURVE",
"764.004 519 LINE",
"730.272 641 OFFCURVE",
"624.4 707 OFFCURVE",
"488.4 707 CURVE SMOOTH",
"292.4 707 OFFCURVE",
"104.16 560 OFFCURVE",
"62.388 350 CURVE SMOOTH"
);
}
);
width = 776.1641;
},
{
anchors = (
{
name = bottom;
position = "{351.269, 0}";
},
{
name = top;
position = "{468.508, 700}";
}
);
background = {
hints = (
{
horizontal = 1;
place = "{-12, 47}";
type = Stem;
},
{
horizontal = 1;
place = "{665, 47}";
type = Stem;
},
{
place = "{73, 54}";
type = Stem;
}
);
paths = (
{
closed = 1;
nodes = (
"756.9 144 LINE",
"685.9 74 OFFCURVE",
"616.9 35 OFFCURVE",
"515.9 35 CURVE SMOOTH",
"348.9 35 OFFCURVE",
"219.9 173 OFFCURVE",
"219.9 350 CURVE SMOOTH",
"219.9 352 LINE SMOOTH",
"219.9 528 OFFCURVE",
"346.9 665 OFFCURVE",
"514.9 665 CURVE SMOOTH",
"619.9 665 OFFCURVE",
"689.9 621 OFFCURVE",
"750.9 562 CURVE",
"787.9 600 LINE",
"715.9 666 OFFCURVE",
"640.9 712 OFFCURVE",
"515.9 712 CURVE SMOOTH",
"313.9 712 OFFCURVE",
"165.9 548 OFFCURVE",
"165.9 350 CURVE SMOOTH",
"165.9 348 LINE SMOOTH",
"165.9 147 OFFCURVE",
"313.9 -12 OFFCURVE",
"513.9 -12 CURVE SMOOTH",
"637.9 -12 OFFCURVE",
"717.9 37 OFFCURVE",
"791.9 110 CURVE"
);
}
);
};
hints = (
{
place = "{-76.631, -117.631}";
type = Stem;
},
{
horizontal = 1;
place = "{-147.631, 21}";
target = up;
type = BottomGhost;
},
{
horizontal = 1;
place = "{551.369, -20}";
target = down;
type = TopGhost;
}
);
layerId = "6E968933-CD79-43C6-9231-80D77C940F4D";
paths = (
{
closed = 1;
nodes = (
"28.316 141 OFFCURVE",
"136.877 -7 OFFCURVE",
"327.877 -7 CURVE SMOOTH",
"493.877 -7 OFFCURVE",
"614.187 75 OFFCURVE",
"688.25 201 CURVE",
"671.643 208 LINE",
"608.563 97 OFFCURVE",
"487.457 11 OFFCURVE",
"331.855 13 CURVE",
"162.855 13 OFFCURVE",
"50.316 141 OFFCURVE",
"91.888 350 CURVE SMOOTH",
"133.859 561 OFFCURVE",
"296.922 687 OFFCURVE",
"465.922 687 CURVE SMOOTH",
"619.922 687 OFFCURVE",
"704.407 609 OFFCURVE",
"725.924 501 CURVE",
"745.316 508 LINE",
"719.385 629 OFFCURVE",
"631.9 707 OFFCURVE",
"469.9 707 CURVE SMOOTH",
"278.9 707 OFFCURVE",
"111.859 561 OFFCURVE",
"69.888 350 CURVE SMOOTH"
);
}
);
width = 764.66323;
},
{
anchors = (
{
name = bottom;
position = "{325.968, 1}";
},
{
name = top;
position = "{471.002, 705}";
}
);
hints = (
{
place = "{-114.631, 38.369}";
type = Stem;
},
{
horizontal = 1;
place = "{-145.631, 18.369}";
type = Stem;
},
{
horizontal = 1;
place = "{407.369, 18.369}";
type = Stem;
}
);
layerId = "BAF31694-0472-4296-B0EA-1654553C45D2";
paths = (
{
closed = 1;
nodes = (
"5.418 139 OFFCURVE",
"120.377 -7 OFFCURVE",
"328.377 -7 CURVE SMOOTH",
"490.377 -7 OFFCURVE",
"625.284 78 OFFCURVE",
"702.121 228 CURVE",
"561.088 258 LINE",
"506.783 171 OFFCURVE",
"436.418 139 OFFCURVE",
"357.418 139 CURVE SMOOTH",
"246.418 139 OFFCURVE",
"197.121 228 OFFCURVE",
"221.388 350 CURVE SMOOTH",
"245.258 470 OFFCURVE",
"330.359 561 OFFCURVE",
"441.359 561 CURVE SMOOTH",
"519.359 561 OFFCURVE",
"570.994 529 OFFCURVE",
"591.274 455 CURVE",
"748.838 488 LINE",
"728.89 624 OFFCURVE",
"628.4 707 OFFCURVE",
"470.4 707 CURVE SMOOTH",
"262.4 707 OFFCURVE",
"88.961 559 OFFCURVE",
"47.388 350 CURVE SMOOTH"
);
}
);
width = 743.16425;
},
{
anchors = (
{
name = bottom;
position = "{345.269, 0}";
},
{
name = top;
position = "{482.701, 706}";
}
);
hints = (
{
place = "{263.369, -68.631}";
type = Stem;
},
{
horizontal = 1;
place = "{-143.631, 21}";
target = up;
type = BottomGhost;
},
{
horizontal = 1;
place = "{119.369, -20}";
target = down;
type = TopGhost;
}
);
layerId = "9F107B1E-3A61-4335-981B-27DD48125C7E";
paths = (
{
closed = 1;
nodes = (
"23.316 141 OFFCURVE",
"144.877 -7 OFFCURVE",
"339.877 -7 CURVE SMOOTH",
"488.877 -7 OFFCURVE",
"617 64 OFFCURVE",
"701.25 201 CURVE",
"641.024 225 LINE",
"571.343 116 OFFCURVE",
"462 64 OFFCURVE",
"354.198 65 CURVE",
"204.198 65 OFFCURVE",
"111.681 173 OFFCURVE",
"146.888 350 CURVE SMOOTH",
"182.295 528 OFFCURVE",
"317.578 635 OFFCURVE",
"467.578 635 CURVE SMOOTH",
"573.578 635 OFFCURVE",
"661.229 588 OFFCURVE",
"686.935 491 CURVE",
"756.709 515 LINE",
"725.976 637 OFFCURVE",
"626.9 707 OFFCURVE",
"481.9 707 CURVE SMOOTH",
"286.9 707 OFFCURVE",
"106.859 561 OFFCURVE",
"64.888 350 CURVE SMOOTH"
);
}
);
width = 770.99627;
}
);
leftMetricsKey = O;
rightMetricsKey = "=O*1.3333";
unicode = 0043;
},
{
glyphname = Cacute;
lastChange = "2021-08-28 16:04:17 +0000";
layers = (
{
anchors = (
{
name = bottom;
position = "{341.777, 0}";
},
{
name = top;
position = "{490.806, 709}";
}
);
hints = (
{
place = "{-147.903, -72.903}";
type = Stem;
},
{
horizontal = 1;
place = "{-195.903, -89.903}";
type = Stem;
},
{
horizontal = 1;
place = "{418.097, -88.903}";
type = Stem;
}
);
layerId = "0CF0EA28-C756-4A9E-9D7C-CFEF350B4CFE";
paths = (
{
closed = 1;
nodes = (
"20.823 141 OFFCURVE",
"150.384 -7 OFFCURVE",
"346.384 -7 CURVE SMOOTH",
"486.384 -7 OFFCURVE",
"619.314 58 OFFCURVE",
"709.957 202 CURVE",
"624.123 233 LINE",
"550.442 124 OFFCURVE",
"448.679 90 OFFCURVE",
"368.679 90 CURVE SMOOTH",
"230.679 90 OFFCURVE",
"147.167 193 OFFCURVE",
"178.396 350 CURVE SMOOTH",
"209.824 508 OFFCURVE",
"334.113 610 OFFCURVE",
"472.113 610 CURVE SMOOTH",
"550.113 610 OFFCURVE",
"636.151 575 OFFCURVE",
"665.448 486 CURVE",
"764.012 519 LINE",
"730.28 641 OFFCURVE",
"624.408 707 OFFCURVE",
"488.408 707 CURVE SMOOTH",
"292.408 707 OFFCURVE",
"104.168 560 OFFCURVE",
"62.396 350 CURVE SMOOTH"
);
},
{
closed = 1;
nodes = (
"397.443 832.861 LINE",
"380.618 748.273 LINE",
"623.25 857.029 LINE",
"642.68 954.708 LINE"
);
}
);
width = 776.17;
},
{
anchors = (
{
name = bottom;
position = "{351.271, 0}";
},
{
name = top;
position = "{468.51, 700}";
}
);
hints = (
{
place = "{-114.779, -155.779}";
type = Stem;
},
{
horizontal = 1;
place = "{-185.779, 21}";
target = up;
type = BottomGhost;
},
{
horizontal = 1;
place = "{513.221, -20}";
target = down;
type = TopGhost;
}
);
layerId = "6E968933-CD79-43C6-9231-80D77C940F4D";
paths = (
{
closed = 1;
nodes = (
"28.318 141 OFFCURVE",
"136.879 -7 OFFCURVE",
"327.879 -7 CURVE SMOOTH",
"493.879 -7 OFFCURVE",
"614.19 75 OFFCURVE",
"688.253 201 CURVE",
"671.645 208 LINE",
"608.566 97 OFFCURVE",
"487.459 11 OFFCURVE",
"331.857 13 CURVE",
"162.857 13 OFFCURVE",
"50.318 141 OFFCURVE",
"91.89 350 CURVE SMOOTH",
"133.861 561 OFFCURVE",
"296.924 687 OFFCURVE",
"465.924 687 CURVE SMOOTH",
"619.924 687 OFFCURVE",
"704.409 609 OFFCURVE",
"725.926 501 CURVE",
"745.319 508 LINE",
"719.387 629 OFFCURVE",
"631.902 707 OFFCURVE",
"469.902 707 CURVE SMOOTH",
"278.902 707 OFFCURVE",
"111.861 561 OFFCURVE",
"69.89 350 CURVE SMOOTH"
);
},
{
closed = 1;
nodes = (
"375.548 765.546 LINE",
"371.394 744.665 LINE",
"584.106 873.924 LINE",
"589.05 898.782 LINE"
);
}
);
width = 764.67021;
},
{
anchors = (
{
name = bottom;
position = "{325.966, 1}";
},
{
name = top;
position = "{471, 705}";
}
);
hints = (
{
place = "{-167.993, -14.993}";
type = Stem;
},
{
horizontal = 1;
place = "{-198.993, -34.993}";
type = Stem;
},
{
horizontal = 1;
place = "{354.007, -34.993}";
type = Stem;
}
);
layerId = "BAF31694-0472-4296-B0EA-1654553C45D2";
paths = (
{
closed = 1;
nodes = (
"5.416 139 OFFCURVE",
"120.375 -7 OFFCURVE",
"328.375 -7 CURVE SMOOTH",
"490.375 -7 OFFCURVE",
"625.282 78 OFFCURVE",
"702.119 228 CURVE",
"561.086 258 LINE",
"506.781 171 OFFCURVE",
"436.416 139 OFFCURVE",
"357.416 139 CURVE SMOOTH",
"246.416 139 OFFCURVE",
"197.119 228 OFFCURVE",
"221.386 350 CURVE SMOOTH",
"245.256 470 OFFCURVE",
"330.357 561 OFFCURVE",
"441.357 561 CURVE SMOOTH",
"519.357 561 OFFCURVE",
"570.992 529 OFFCURVE",
"591.272 455 CURVE",
"748.836 488 LINE",
"728.888 624 OFFCURVE",
"628.398 707 OFFCURVE",
"470.398 707 CURVE SMOOTH",
"262.398 707 OFFCURVE",
"88.959 559 OFFCURVE",
"47.386 350 CURVE SMOOTH"
);
},
{
closed = 1;
nodes = (
"375.963 861.919 LINE",
"352.032 741.608 LINE",
"614.612 840.044 LINE",
"641.51 975.269 LINE"
);
}
);
width = 743.16811;
},
{
anchors = (
{
name = bottom;
position = "{345.275, 0}";
},
{
name = top;
position = "{482.707, 706}";
}
);
hints = (
{
place = "{218.275, -113.725}";
type = Stem;
},
{
horizontal = 1;
place = "{-188.725, 21}";
target = up;
type = BottomGhost;
},
{
horizontal = 1;
place = "{74.275, -20}";
target = down;
type = TopGhost;
}
);
layerId = "9F107B1E-3A61-4335-981B-27DD48125C7E";
paths = (
{
closed = 1;
nodes = (
"23.321 141 OFFCURVE",
"144.882 -7 OFFCURVE",
"339.882 -7 CURVE SMOOTH",
"488.882 -7 OFFCURVE",
"617.005 64 OFFCURVE",
"701.256 201 CURVE",
"641.03 225 LINE",
"571.348 116 OFFCURVE",
"462.005 64 OFFCURVE",
"354.204 65 CURVE",
"204.204 65 OFFCURVE",
"111.686 173 OFFCURVE",
"146.894 350 CURVE SMOOTH",
"182.3 528 OFFCURVE",
"317.584 635 OFFCURVE",
"467.584 635 CURVE SMOOTH",
"573.584 635 OFFCURVE",
"661.235 588 OFFCURVE",
"686.941 491 CURVE",
"756.714 515 LINE",
"725.982 637 OFFCURVE",
"626.906 707 OFFCURVE",
"481.906 707 CURVE SMOOTH",
"286.906 707 OFFCURVE",
"106.864 561 OFFCURVE",
"64.894 350 CURVE SMOOTH"
);
},
{
closed = 1;
nodes = (
"389.581 808.43 LINE",
"377.62 748.298 LINE",
"608.546 863.551 LINE",
"622.5 933.705 LINE"
);
}
);
width = 771.00383;
}
);
leftMetricsKey = C;
rightMetricsKey = C;
unicode = 0106;
},
{
glyphname = Ccaron;
lastChange = "2021-08-28 16:04:17 +0000";
layers = (
{
anchors = (
{
name = bottom;
position = "{341.777, 0}";
},
{
name = top;
position = "{490.806, 709}";
}
);
hints = (
{
place = "{-141.293, -66.293}";
type = Stem;
},
{
horizontal = 1;
place = "{-189.293, -83.293}";
type = Stem;
},
{
horizontal = 1;
place = "{424.707, -82.293}";
type = Stem;
}
);
layerId = "0CF0EA28-C756-4A9E-9D7C-CFEF350B4CFE";
paths = (
{
closed = 1;
nodes = (
"20.823 141 OFFCURVE",
"150.384 -7 OFFCURVE",
"346.384 -7 CURVE SMOOTH",
"486.384 -7 OFFCURVE",
"619.314 58 OFFCURVE",
"709.957 202 CURVE",
"624.123 233 LINE",
"550.442 124 OFFCURVE",
"448.679 90 OFFCURVE",
"368.679 90 CURVE SMOOTH",
"230.679 90 OFFCURVE",
"147.167 193 OFFCURVE",
"178.396 350 CURVE SMOOTH",
"209.824 508 OFFCURVE",
"334.113 610 OFFCURVE",
"472.113 610 CURVE SMOOTH",
"550.113 610 OFFCURVE",
"636.151 575 OFFCURVE",
"665.448 486 CURVE",
"764.012 519 LINE",
"730.28 641 OFFCURVE",
"624.408 707 OFFCURVE",
"488.408 707 CURVE SMOOTH",
"292.408 707 OFFCURVE",
"104.168 560 OFFCURVE",
"62.396 350 CURVE SMOOTH"
);
},
{
closed = 1;
nodes = (
"515.844 834.875 LINE",
"390.07 921.477 LINE",
"372.243 831.854 LINE",
"498.618 748.273 LINE",
"658.243 831.854 LINE",
"676.07 921.477 LINE"
);
}
);
width = 776.17;
},
{
anchors = (
{
name = bottom;
position = "{351.274, 0}";
},
{
name = top;
position = "{468.513, 700}";
}
);
hints = (
{
place = "{-110.626, -151.626}";
type = Stem;
},
{
horizontal = 1;
place = "{-181.626, 21}";
target = up;
type = BottomGhost;
},
{
horizontal = 1;
place = "{517.374, -20}";
target = down;
type = TopGhost;
}
);
layerId = "6E968933-CD79-43C6-9231-80D77C940F4D";
paths = (
{
closed = 1;
nodes = (
"28.321 141 OFFCURVE",
"136.882 -7 OFFCURVE",
"327.882 -7 CURVE SMOOTH",
"493.882 -7 OFFCURVE",
"614.193 75 OFFCURVE",
"688.256 201 CURVE",
"671.648 208 LINE",
"608.569 97 OFFCURVE",
"487.463 11 OFFCURVE",
"331.86 13 CURVE",
"162.86 13 OFFCURVE",
"50.321 141 OFFCURVE",
"91.894 350 CURVE SMOOTH",
"133.864 561 OFFCURVE",
"296.927 687 OFFCURVE",
"465.927 687 CURVE SMOOTH",
"619.927 687 OFFCURVE",
"704.412 609 OFFCURVE",
"725.93 501 CURVE",
"745.322 508 LINE",
"719.39 629 OFFCURVE",
"631.906 707 OFFCURVE",
"469.906 707 CURVE SMOOTH",
"278.906 707 OFFCURVE",
"111.864 561 OFFCURVE",
"69.894 350 CURVE SMOOTH"
);
},
{
closed = 1;
nodes = (
"488.88 797.363 LINE",
"380.9 877.902 LINE",
"376.549 856.027 LINE",
"484.529 775.489 LINE",
"624.549 856.027 LINE",
"628.9 877.902 LINE"
);
}
);
width = 764.67021;
},
{
anchors = (
{
name = bottom;
position = "{325.97, 1}";
},
{
name = top;
position = "{471.005, 705}";
}
);
hints = (
{
place = "{-161.269, -8.269}";
type = Stem;
},
{
horizontal = 1;
place = "{-192.269, -28.269}";
type = Stem;
},
{
horizontal = 1;
place = "{360.731, -28.269}";
type = Stem;
}
);
layerId = "BAF31694-0472-4296-B0EA-1654553C45D2";
paths = (
{
closed = 1;
nodes = (
"5.42 139 OFFCURVE",
"120.379 -7 OFFCURVE",
"328.379 -7 CURVE SMOOTH",
"490.379 -7 OFFCURVE",
"625.287 78 OFFCURVE",
"702.123 228 CURVE",
"561.091 258 LINE",
"506.785 171 OFFCURVE",
"436.42 139 OFFCURVE",
"357.42 139 CURVE SMOOTH",
"246.42 139 OFFCURVE",
"197.123 228 OFFCURVE",
"221.391 350 CURVE SMOOTH",
"245.26 470 OFFCURVE",
"330.361 561 OFFCURVE",
"441.361 561 CURVE SMOOTH",
"519.361 561 OFFCURVE",
"570.996 529 OFFCURVE",
"591.277 455 CURVE",
"748.841 488 LINE",
"728.893 624 OFFCURVE",
"628.402 707 OFFCURVE",
"470.402 707 CURVE SMOOTH",
"262.402 707 OFFCURVE",
"88.963 559 OFFCURVE",
"47.391 350 CURVE SMOOTH"
);
},
{
closed = 1;
nodes = (
"499.583 854.959 LINE",
"360.79 941.463 LINE",
"336.859 821.152 LINE",
"477.432 743.597 LINE",
"648.859 821.152 LINE",
"672.79 941.463 LINE"
);
}
);
width = 743.16811;
},
{
anchors = (
{
name = bottom;
position = "{345.276, 0}";
},
{
name = top;
position = "{482.708, 706}";
}
);
hints = (
{
place = "{224.056, -107.944}";
type = Stem;
},
{
horizontal = 1;
place = "{-182.944, 21}";
target = up;
type = BottomGhost;
},
{
horizontal = 1;
place = "{80.056, -20}";
target = down;
type = TopGhost;
}
);
layerId = "9F107B1E-3A61-4335-981B-27DD48125C7E";
paths = (
{
closed = 1;
nodes = (
"23.322 141 OFFCURVE",
"144.883 -7 OFFCURVE",
"339.883 -7 CURVE SMOOTH",
"488.883 -7 OFFCURVE",
"617.006 64 OFFCURVE",
"701.257 201 CURVE",
"641.031 225 LINE",
"571.35 116 OFFCURVE",
"462.006 64 OFFCURVE",
"354.205 65 CURVE",
"204.205 65 OFFCURVE",
"111.688 173 OFFCURVE",
"146.895 350 CURVE SMOOTH",
"182.301 528 OFFCURVE",
"317.585 635 OFFCURVE",
"467.585 635 CURVE SMOOTH",
"573.585 635 OFFCURVE",
"661.236 588 OFFCURVE",
"686.942 491 CURVE",
"756.716 515 LINE",
"725.983 637 OFFCURVE",
"626.907 707 OFFCURVE",
"481.907 707 CURVE SMOOTH",
"286.907 707 OFFCURVE",
"106.866 561 OFFCURVE",
"64.895 350 CURVE SMOOTH"
);
},
{
closed = 1;
nodes = (
"505.975 820.456 LINE",
"386.72 904.641 LINE",
"373.962 840.5 LINE",
"493.615 758.32 LINE",
"645.962 840.5 LINE",
"658.72 904.641 LINE"
);
}
);
width = 771.00383;
}
);
leftMetricsKey = C;
rightMetricsKey = C;
unicode = 010C;
},
{
glyphname = Ccedilla;
lastChange = "2021-08-28 16:04:17 +0000";
layers = (
{
anchors = (
{
name = bottom;
position = "{341.769, 0}";
},
{
name = top;
position = "{490.798, 709}";
}
);
hints = (
{
place = "{-98.631, -23.631}";
type = Stem;
},
{
horizontal = 1;
place = "{-146.631, -40.631}";
type = Stem;
},
{
horizontal = 1;
place = "{467.369, -39.631}";
type = Stem;
},
{
place = "{216.119, -65.106}";
type = Stem;
},
{
place = "{327.119, -45.973}";
type = Stem;
},
{
horizontal = 1;
place = "{-404.465, -68.127}";
type = Stem;
},
{
horizontal = 1;
place = "{-257.443, -72.155}";
type = Stem;
},
{
horizontal = 1;
place = "{-257.443, -16.77}";
type = Stem;
}
);
layerId = "0CF0EA28-C756-4A9E-9D7C-CFEF350B4CFE";
paths = (
{
closed = 1;
nodes = (
"20.816 141 OFFCURVE",
"150.377 -7 OFFCURVE",
"346.377 -7 CURVE SMOOTH",
"486.377 -7 OFFCURVE",
"619.306 58 OFFCURVE",
"709.949 202 CURVE",
"624.116 233 LINE",
"550.434 124 OFFCURVE",
"448.671 90 OFFCURVE",
"368.671 90 CURVE SMOOTH",
"230.671 90 OFFCURVE",
"147.159 193 OFFCURVE",
"178.388 350 CURVE SMOOTH",
"209.816 508 OFFCURVE",
"334.106 610 OFFCURVE",
"472.106 610 CURVE SMOOTH",
"550.106 610 OFFCURVE",
"636.144 575 OFFCURVE",
"665.44 486 CURVE",
"764.004 519 LINE",
"730.272 641 OFFCURVE",
"624.4 707 OFFCURVE",
"488.4 707 CURVE SMOOTH",
"292.4 707 OFFCURVE",
"104.16 560 OFFCURVE",
"62.388 350 CURVE SMOOTH"
);
},
{
closed = 1;
nodes = (
"384.171 7.049 LINE",
"309.171 7.049 LINE",
"284.534 -116.812 LINE",
"339.534 -116.812 LINE SMOOTH",
"374.534 -116.812 OFFCURVE",
"394.131 -123.861 OFFCURVE",
"388.122 -154.071 CURVE SMOOTH",
"382.113 -184.281 OFFCURVE",
"359.711 -191.33 OFFCURVE",
"324.711 -191.33 CURVE SMOOTH",
"215.711 -191.33 LINE",
"201.289 -263.834 LINE",
"333.289 -263.834 LINE SMOOTH",
"404.289 -263.834 OFFCURVE",
"468.502 -222.547 OFFCURVE",
"482.122 -154.071 CURVE SMOOTH",
"495.943 -84.588 OFFCURVE",
"447.154 -48.336 OFFCURVE",
"373.154 -48.336 CURVE"
);
}
);
width = 776.17;
},
{
anchors = (
{
name = bottom;
position = "{351.269, 0}";
},
{
name = top;
position = "{468.508, 700}";
}
);
background = {
hints = (
{
horizontal = 1;
place = "{-148, 21}";
type = Stem;
},
{
horizontal = 1;
place = "{-12, 47}";
type = Stem;
},
{
horizontal = 1;
place = "{665, 47}";
type = Stem;
},
{
place = "{73, 54}";
type = Stem;
}
);
paths = (
{
closed = 1;
nodes = (
"402.9 -122 LINE",
"457.9 -148 LINE",
"524.9 -12 LINE",
"641.9 -8 OFFCURVE",
"718.9 40 OFFCURVE",
"789.9 110 CURVE",
"754.9 144 LINE",
"683.9 74 OFFCURVE",
"614.9 35 OFFCURVE",
"513.9 35 CURVE SMOOTH",
"346.9 35 OFFCURVE",
"217.9 173 OFFCURVE",
"217.9 351 CURVE SMOOTH",
"217.9 529 OFFCURVE",
"344.9 665 OFFCURVE",
"512.9 665 CURVE SMOOTH",
"617.9 665 OFFCURVE",
"687.9 621 OFFCURVE",
"748.9 562 CURVE",
"785.9 600 LINE",
"713.9 666 OFFCURVE",
"638.9 712 OFFCURVE",
"513.9 712 CURVE SMOOTH",
"311.9 712 OFFCURVE",
"163.9 549 OFFCURVE",
"163.9 349 CURVE SMOOTH",
"163.9 158 OFFCURVE",
"295.9 6 OFFCURVE",
"478.9 -11 CURVE"
);
}
);
};
hints = (
{
place = "{-76.631, -117.631}";
type = Stem;
},
{
horizontal = 1;
place = "{-147.631, 21}";
target = up;
type = BottomGhost;
},
{
horizontal = 1;
place = "{551.369, -20}";
target = down;
type = TopGhost;
},
{
place = "{246.369, -119.751}";
type = Stem;
},
{
place = "{372.369, -119.751}";
type = Stem;
},
{
horizontal = 1;
place = "{-390.2, 22.434}";
type = Stem;
},
{
horizontal = 1;
place = "{-133.671, -20}";
target = down;
type = TopGhost;
}
);
layerId = "6E968933-CD79-43C6-9231-80D77C940F4D";
paths = (
{
closed = 1;
nodes = (
"28.316 141 OFFCURVE",
"136.877 -7 OFFCURVE",
"327.877 -7 CURVE SMOOTH",
"493.877 -7 OFFCURVE",
"614.187 75 OFFCURVE",
"688.25 201 CURVE",
"671.643 208 LINE",
"608.563 97 OFFCURVE",
"487.457 11 OFFCURVE",
"331.855 13 CURVE",
"162.855 13 OFFCURVE",
"50.316 141 OFFCURVE",
"91.888 350 CURVE SMOOTH",
"133.859 561 OFFCURVE",
"296.922 687 OFFCURVE",
"465.922 687 CURVE SMOOTH",
"619.922 687 OFFCURVE",
"704.407 609 OFFCURVE",
"725.924 501 CURVE",
"745.316 508 LINE",
"719.385 629 OFFCURVE",
"631.9 707 OFFCURVE",
"469.9 707 CURVE SMOOTH",
"278.9 707 OFFCURVE",
"111.859 561 OFFCURVE",
"69.888 350 CURVE SMOOTH"
);
},
{
closed = 1;
nodes = (
"366.653 6.96 LINE",
"344.653 6.96 LINE",
"322.107 -106.39 LINE",
"360.107 -106.39 LINE SMOOTH",
"426.107 -106.39 OFFCURVE",
"442.569 -134.231 OFFCURVE",
"436.042 -167.042 CURVE SMOOTH",
"428.527 -204.826 OFFCURVE",
"400.989 -232.666 OFFCURVE",
"334.989 -232.666 CURVE SMOOTH",
"273.989 -232.666 LINE",
"270.033 -252.552 LINE",
"334.033 -252.552 LINE SMOOTH",
"404.033 -252.552 OFFCURVE",
"448.153 -216.757 OFFCURVE",
"458.042 -167.042 CURVE SMOOTH",
"468.92 -112.356 OFFCURVE",
"430.853 -82.527 OFFCURVE",
"347.864 -87.498 CURVE"
);
}
);
width = 764.67021;
},
{
anchors = (
{
name = bottom;
position = "{325.968, 1}";
},
{
name = top;
position = "{471.002, 705}";
}
);
hints = (
{
place = "{-114.631, 38.369}";
type = Stem;
},
{
horizontal = 1;
place = "{-145.631, 18.369}";
type = Stem;
},
{
horizontal = 1;
place = "{407.369, 18.369}";
type = Stem;
},
{
place = "{148.369, -108.813}";
type = Stem;
},
{
place = "{299.369, -16.344}";
type = Stem;
},
{
horizontal = 1;
place = "{-409.109, -45.178}";
type = Stem;
},
{
horizontal = 1;
place = "{-347.463, 27.406}";
type = Stem;
},
{
horizontal = 1;
place = "{-264.936, -12.366}";
type = Stem;
}
);
layerId = "BAF31694-0472-4296-B0EA-1654553C45D2";
paths = (
{
closed = 1;
nodes = (
"5.418 139 OFFCURVE",
"120.377 -7 OFFCURVE",
"328.377 -7 CURVE SMOOTH",
"490.377 -7 OFFCURVE",
"625.284 78 OFFCURVE",
"702.121 228 CURVE",
"561.088 258 LINE",
"506.783 171 OFFCURVE",
"436.418 139 OFFCURVE",
"357.418 139 CURVE SMOOTH",
"246.418 139 OFFCURVE",
"197.121 228 OFFCURVE",
"221.388 350 CURVE SMOOTH",
"245.258 470 OFFCURVE",
"330.359 561 OFFCURVE",
"441.359 561 CURVE SMOOTH",
"519.359 561 OFFCURVE",
"570.994 529 OFFCURVE",
"591.274 455 CURVE",
"748.838 488 LINE",
"728.89 624 OFFCURVE",
"628.4 707 OFFCURVE",
"470.4 707 CURVE SMOOTH",
"262.4 707 OFFCURVE",
"88.961 559 OFFCURVE",
"47.388 350 CURVE SMOOTH"
);
},
{
closed = 1;
nodes = (
"386.307 3.96 LINE",
"280.307 3.96 LINE",
"254.793 -124.305 LINE",
"327.793 -124.305 LINE SMOOTH",
"351.793 -124.305 OFFCURVE",
"364.607 -130.27 OFFCURVE",
"360.849 -149.162 CURVE SMOOTH",
"357.289 -167.059 OFFCURVE",
"341.904 -174.02 OFFCURVE",
"317.904 -174.02 CURVE SMOOTH",
"184.904 -174.02 LINE",
"166.115 -268.478 LINE",
"322.115 -268.478 LINE SMOOTH",
"390.115 -268.478 OFFCURVE",
"468.642 -235.666 OFFCURVE",
"485.058 -153.139 CURVE SMOOTH",
"501.671 -69.618 OFFCURVE",
"436.802 -38.795 OFFCURVE",
"377.802 -38.795 CURVE"
);
}
);
width = 743.16811;
},
{
anchors = (
{
name = bottom;
position = "{345.269, 0}";
},
{
name = top;
position = "{482.701, 706}";
}
);
hints = (
{
place = "{263.369, -68.631}";
type = Stem;
},
{
horizontal = 1;
place = "{-143.631, 21}";
target = up;
type = BottomGhost;
},
{
horizontal = 1;
place = "{119.369, -20}";
target = down;
type = TopGhost;
},
{
place = "{22.369, -87.514}";
type = Stem;
},
{
place = "{161.369, -90.521}";
type = Stem;
},
{
horizontal = 1;
place = "{-307.998, -2.327}";
type = Stem;
},
{
horizontal = 1;
place = "{-137.624, -20}";
target = down;
type = TopGhost;
}
);
layerId = "9F107B1E-3A61-4335-981B-27DD48125C7E";
paths = (
{
closed = 1;
nodes = (
"23.316 141 OFFCURVE",
"144.877 -7 OFFCURVE",
"339.877 -7 CURVE SMOOTH",
"488.877 -7 OFFCURVE",
"617 64 OFFCURVE",
"701.25 201 CURVE",
"641.024 225 LINE",
"571.343 116 OFFCURVE",
"462 64 OFFCURVE",
"354.198 65 CURVE",
"204.198 65 OFFCURVE",
"111.681 173 OFFCURVE",
"146.888 350 CURVE SMOOTH",
"182.295 528 OFFCURVE",
"317.578 635 OFFCURVE",
"467.578 635 CURVE SMOOTH",
"573.578 635 OFFCURVE",
"661.229 588 OFFCURVE",
"686.935 491 CURVE",
"756.709 515 LINE",
"725.976 637 OFFCURVE",
"626.9 707 OFFCURVE",
"481.9 707 CURVE SMOOTH",
"286.9 707 OFFCURVE",
"106.859 561 OFFCURVE",
"64.888 350 CURVE SMOOTH"
);
},
{
closed = 1;
nodes = (
"377.164 7.015 LINE",
"322.164 7.015 LINE",
"298.242 -113.249 LINE",
"347.242 -113.249 LINE SMOOTH",
"394.242 -113.249 OFFCURVE",
"412.252 -128.282 OFFCURVE",
"406.072 -159.35 CURVE SMOOTH",
"399.494 -192.422 OFFCURVE",
"375.504 -207.455 OFFCURVE",
"328.504 -207.455 CURVE SMOOTH",
"237.504 -207.455 LINE",
"227.137 -259.57 LINE",
"333.137 -259.57 LINE SMOOTH",
"404.137 -259.57 OFFCURVE",
"460.912 -220.484 OFFCURVE",
"473.072 -159.35 CURVE SMOOTH",
"485.831 -95.209 OFFCURVE",
"440.609 -61.134 OFFCURVE",
"363.21 -63.139 CURVE"
);
}
);
width = 770.99383;
}
);
leftMetricsKey = C;
rightMetricsKey = C;
unicode = 00C7;
},
{
glyphname = Cdotaccent;
lastChange = "2021-08-28 16:04:17 +0000";
layers = (
{
anchors = (
{
name = bottom;
position = "{341.774, 0}";
},
{
name = top;
position = "{490.802, 709}";
}
);
hints = (
{
place = "{-136.886, -61.886}";
type = Stem;
},
{
horizontal = 1;
place = "{-184.886, -78.886}";
type = Stem;
},
{
horizontal = 1;
place = "{429.114, -77.886}";
type = Stem;
},
{
place = "{159.864, -58.046}";
type = Stem;
},
{
horizontal = 1;
place = "{599.597, -58.046}";
type = Stem;
}
);
layerId = "0CF0EA28-C756-4A9E-9D7C-CFEF350B4CFE";
paths = (
{
closed = 1;
nodes = (
"20.82 141 OFFCURVE",
"150.381 -7 OFFCURVE",
"346.381 -7 CURVE SMOOTH",
"486.381 -7 OFFCURVE",
"619.31 58 OFFCURVE",
"709.954 202 CURVE",
"624.12 233 LINE",
"550.439 124 OFFCURVE",
"448.676 90 OFFCURVE",
"368.676 90 CURVE SMOOTH",
"230.676 90 OFFCURVE",
"147.164 193 OFFCURVE",
"178.393 350 CURVE SMOOTH",
"209.821 508 OFFCURVE",
"334.11 610 OFFCURVE",
"472.11 610 CURVE SMOOTH",
"550.11 610 OFFCURVE",
"636.148 575 OFFCURVE",
"665.445 486 CURVE",
"764.009 519 LINE",
"730.276 641 OFFCURVE",
"624.405 707 OFFCURVE",
"488.405 707 CURVE SMOOTH",
"292.405 707 OFFCURVE",
"104.164 560 OFFCURVE",
"62.393 350 CURVE SMOOTH"
);
},
{
closed = 1;
nodes = (
"537.623 778.483 OFFCURVE",
"569.831 804.665 OFFCURVE",
"576.642 838.903 CURVE SMOOTH",
"583.252 872.134 OFFCURVE",
"561.66 899.323 OFFCURVE",
"528.66 899.323 CURVE SMOOTH",
"494.66 899.323 OFFCURVE",
"463.252 872.134 OFFCURVE",
"456.642 838.903 CURVE SMOOTH",
"449.831 804.665 OFFCURVE",
"470.623 778.483 OFFCURVE",
"504.623 778.483 CURVE SMOOTH"
);
}
);
width = 776.17;
},
{
anchors = (
{
name = bottom;
position = "{351.267, 0}";
},
{
name = top;
position = "{468.506, 700}";
}
);
hints = (
{
place = "{-100.713, -141.713}";
type = Stem;
},
{
horizontal = 1;
place = "{-171.713, 21}";
target = up;
type = BottomGhost;
},
{
horizontal = 1;
place = "{527.287, -20}";
target = down;
type = TopGhost;
},
{
place = "{185.287, -104.06}";
type = Stem;
},
{
horizontal = 1;
place = "{600.713, -104.06}";
type = Stem;
}
);
layerId = "6E968933-CD79-43C6-9231-80D77C940F4D";
paths = (
{
closed = 1;
nodes = (
"28.314 141 OFFCURVE",
"136.875 -7 OFFCURVE",
"327.875 -7 CURVE SMOOTH",
"493.875 -7 OFFCURVE",
"614.186 75 OFFCURVE",
"688.249 201 CURVE",
"671.641 208 LINE",
"608.562 97 OFFCURVE",
"487.455 11 OFFCURVE",
"331.853 13 CURVE",
"162.853 13 OFFCURVE",
"50.314 141 OFFCURVE",
"91.887 350 CURVE SMOOTH",
"133.857 561 OFFCURVE",
"296.92 687 OFFCURVE",
"465.92 687 CURVE SMOOTH",
"619.92 687 OFFCURVE",
"704.405 609 OFFCURVE",
"725.922 501 CURVE",
"745.315 508 LINE",
"719.383 629 OFFCURVE",
"631.898 707 OFFCURVE",
"469.898 707 CURVE SMOOTH",
"278.898 707 OFFCURVE",
"111.857 561 OFFCURVE",
"69.887 350 CURVE SMOOTH"
);
},
{
closed = 1;
nodes = (
"499.916 767.415 OFFCURVE",
"516.684 781.335 OFFCURVE",
"519.849 797.244 CURVE SMOOTH",
"523.211 814.147 OFFCURVE",
"511.98 828.067 OFFCURVE",
"494.98 828.067 CURVE SMOOTH",
"478.98 828.067 OFFCURVE",
"462.211 814.147 OFFCURVE",
"458.849 797.244 CURVE SMOOTH",
"455.684 781.335 OFFCURVE",
"466.916 767.415 OFFCURVE",
"482.916 767.415 CURVE SMOOTH"
);
}
);
width = 764.67021;
},
{
anchors = (
{
name = bottom;
position = "{325.973, 1}";
},
{
name = top;
position = "{471.007, 705}";
}
);
hints = (
{
place = "{-156.126, -3.126}";
type = Stem;
},
{
horizontal = 1;
place = "{-187.126, -23.126}";
type = Stem;
},
{
horizontal = 1;
place = "{365.874, -23.126}";
type = Stem;
},
{
place = "{120.874, -32.981}";
type = Stem;
},
{
horizontal = 1;
place = "{584.34, -32.981}";
type = Stem;
}
);
layerId = "BAF31694-0472-4296-B0EA-1654553C45D2";
paths = (
{
closed = 1;
nodes = (
"5.422 139 OFFCURVE",
"120.381 -7 OFFCURVE",
"328.381 -7 CURVE SMOOTH",
"490.381 -7 OFFCURVE",
"625.289 78 OFFCURVE",
"702.126 228 CURVE",
"561.093 258 LINE",
"506.788 171 OFFCURVE",
"436.422 139 OFFCURVE",
"357.422 139 CURVE SMOOTH",
"246.422 139 OFFCURVE",
"197.126 228 OFFCURVE",
"221.393 350 CURVE SMOOTH",
"245.262 470 OFFCURVE",
"330.363 561 OFFCURVE",
"441.363 561 CURVE SMOOTH",
"519.363 561 OFFCURVE",
"570.998 529 OFFCURVE",
"591.279 455 CURVE",
"748.843 488 LINE",
"728.895 624 OFFCURVE",
"628.405 707 OFFCURVE",
"470.405 707 CURVE SMOOTH",
"262.405 707 OFFCURVE",
"88.966 559 OFFCURVE",
"47.393 350 CURVE SMOOTH"
);
},
{
closed = 1;
nodes = (
"523.983 766.466 OFFCURVE",
"563.312 798.284 OFFCURVE",
"571.619 840.044 CURVE SMOOTH",
"580.123 882.799 OFFCURVE",
"553.65 915.611 OFFCURVE",
"510.65 915.611 CURVE SMOOTH",
"468.65 915.611 OFFCURVE",
"430.123 882.799 OFFCURVE",
"421.619 840.044 CURVE SMOOTH",
"413.312 798.284 OFFCURVE",
"438.983 766.466 OFFCURVE",
"480.983 766.466 CURVE SMOOTH"
);
}
);
width = 743.16811;
},
{
anchors = (
{
name = bottom;
position = "{345.271, 0}";
},
{
name = top;
position = "{482.703, 706}";
}
);
hints = (
{
place = "{230.631, -101.369}";
type = Stem;
},
{
horizontal = 1;
place = "{-176.369, 21}";
target = up;
type = BottomGhost;
},
{
horizontal = 1;
place = "{86.631, -20}";
target = down;
type = TopGhost;
},
{
place = "{169.631, -75.153}";
type = Stem;
},
{
horizontal = 1;
place = "{601.002, -75.153}";
type = Stem;
}
);
layerId = "9F107B1E-3A61-4335-981B-27DD48125C7E";
paths = (
{
closed = 1;
nodes = (
"23.318 141 OFFCURVE",
"144.879 -7 OFFCURVE",
"339.879 -7 CURVE SMOOTH",
"488.879 -7 OFFCURVE",
"617.002 64 OFFCURVE",
"701.253 201 CURVE",
"641.026 225 LINE",
"571.345 116 OFFCURVE",
"462.002 64 OFFCURVE",
"354.2 65 CURVE",
"204.2 65 OFFCURVE",
"111.683 173 OFFCURVE",
"146.89 350 CURVE SMOOTH",
"182.297 528 OFFCURVE",
"317.581 635 OFFCURVE",
"467.581 635 CURVE SMOOTH",
"573.581 635 OFFCURVE",
"661.232 588 OFFCURVE",
"686.937 491 CURVE",
"756.711 515 LINE",
"725.978 637 OFFCURVE",
"626.902 707 OFFCURVE",
"481.902 707 CURVE SMOOTH",
"286.902 707 OFFCURVE",
"106.861 561 OFFCURVE",
"64.89 350 CURVE SMOOTH"
);
},
{
closed = 1;
nodes = (
"523.604 773.368 OFFCURVE",
"549.79 794.415 OFFCURVE",
"555.173 821.474 CURVE SMOOTH",
"560.555 848.533 OFFCURVE",
"543.14 871.584 OFFCURVE",
"516.14 871.584 CURVE SMOOTH",
"488.14 871.584 OFFCURVE",
"462.555 848.533 OFFCURVE",
"457.173 821.474 CURVE SMOOTH",
"451.79 794.415 OFFCURVE",
"468.604 773.368 OFFCURVE",
"496.604 773.368 CURVE SMOOTH"
);
}
);
width = 771.00383;
}
);
leftMetricsKey = C;
rightMetricsKey = C;
unicode = 010A;
},
{
glyphname = D;
lastChange = "2021-08-28 16:04:17 +0000";
layers = (
{
anchors = (
{
name = top;
position = "{444.709, 701}";
}
);
hints = (
{
place = "{-54.239, -25.239}";
type = Stem;
},
{
place = "{444.761, -22.239}";
type = Stem;
},
{
horizontal = 1;
place = "{-139.239, -46.239}";
type = Stem;
},
{
horizontal = 1;
place = "{467.761, -46.239}";
type = Stem;
}
);
layerId = "0CF0EA28-C756-4A9E-9D7C-CFEF350B4CFE";
paths = (
{
closed = 1;
nodes = (
"174.51 700 LINE",
"35.271 0 LINE",
"282.271 0 LINE SMOOTH",
"505.271 0 OFFCURVE",
"677.528 132 OFFCURVE",
"720.294 347 CURVE SMOOTH",
"763.259 563 OFFCURVE",
"644.51 700 OFFCURVE",
"421.51 700 CURVE SMOOTH"
);
},
{
closed = 1;
nodes = (
"168.168 95 LINE",
"269.613 605 LINE",
"402.613 605 LINE SMOOTH",
"566.613 605 OFFCURVE",
"636.12 507 OFFCURVE",
"604.294 347 CURVE SMOOTH",
"572.667 188 OFFCURVE",
"465.168 95 OFFCURVE",
"301.168 95 CURVE SMOOTH"
);
}
);
width = 743.5;
},
{
anchors = (
{
name = top;
position = "{411.333, 679}";
}
);
background = {
hints = (
{
horizontal = 1;
place = "{0, 48}";
type = Stem;
},
{
horizontal = 1;
place = "{652, 48}";
type = Stem;
},
{
place = "{104, 52}";
type = Stem;
},
{
place = "{655, 54}";
type = Stem;
}
);
paths = (
{
closed = 1;
nodes = (
"802.51 352 LINE SMOOTH",
"802.51 549 OFFCURVE",
"650.51 700 OFFCURVE",
"430.51 700 CURVE SMOOTH",
"197.51 700 LINE",
"197.51 0 LINE",
"430.51 0 LINE SMOOTH",
"650.51 0 OFFCURVE",
"802.51 153 OFFCURVE",
"802.51 350 CURVE SMOOTH"
);
},
{
closed = 1;
nodes = (
"748.51 348 LINE SMOOTH",
"748.51 181 OFFCURVE",
"625.51 48 OFFCURVE",
"430.51 48 CURVE SMOOTH",
"249.51 48 LINE",
"249.51 652 LINE",
"430.51 652 LINE SMOOTH",
"625.51 652 OFFCURVE",
"748.51 516 OFFCURVE",
"748.51 350 CURVE SMOOTH"
);
}
);
};
hints = (
{
place = "{-36.239, -117.239}";
type = Stem;
},
{
place = "{521.761, -117.239}";
type = Stem;
},
{
horizontal = 1;
place = "{-139.239, 21}";
target = up;
type = BottomGhost;
},
{
horizontal = 1;
place = "{545.761, -20}";
target = down;
type = TopGhost;
}
);
layerId = "6E968933-CD79-43C6-9231-80D77C940F4D";
paths = (
{
closed = 1;
nodes = (
"189.51 700 LINE",
"50.271 0 LINE",
"255.271 0 LINE",
"500.271 0 OFFCURVE",
"652.931 129 OFFCURVE",
"696.891 350 CURVE",
"740.85 571 OFFCURVE",
"639.51 700 OFFCURVE",
"394.51 700 CURVE"
);
},
{
closed = 1;
nodes = (
"76.25 20 LINE",
"207.532 680 LINE",
"390.532 680 LINE",
"625.532 680 OFFCURVE",
"715.469 554 OFFCURVE",
"674.891 350 CURVE",
"634.313 146 OFFCURVE",
"494.25 20 OFFCURVE",
"259.25 20 CURVE"
);
}
);
width = 726.99649;
},
{
anchors = (
{
name = top;
position = "{431.908, 702}";
}
);
hints = (
{
place = "{-86.239, 36.761}";
type = Stem;
},
{
place = "{389.761, 39.761}";
type = Stem;
},
{
horizontal = 1;
place = "{-139.239, 13.761}";
type = Stem;
},
{
horizontal = 1;
place = "{409.761, 11.761}";
type = Stem;
}
);
layerId = "BAF31694-0472-4296-B0EA-1654553C45D2";
paths = (
{
closed = 1;
nodes = (
"144.51 700 LINE",
"5.271 0 LINE",
"291.271 0 LINE SMOOTH",
"516.271 0 OFFCURVE",
"688.915 144 OFFCURVE",
"729.891 350 CURVE SMOOTH",
"771.264 558 OFFCURVE",
"655.51 700 OFFCURVE",
"430.51 700 CURVE SMOOTH"
);
},
{
closed = 1;
nodes = (
"208.313 146 LINE",
"289.469 554 LINE",
"390.469 554 LINE SMOOTH",
"516.469 554 OFFCURVE",
"577.954 476 OFFCURVE",
"552.891 350 CURVE SMOOTH",
"527.828 224 OFFCURVE",
"435.313 146 OFFCURVE",
"309.313 146 CURVE SMOOTH"
);
}
);
width = 737.50255;
},
{
anchors = (
{
name = top;
position = "{431.118, 693}";
}
);
hints = (
{
place = "{-100.239, -73.239}";
type = Stem;
},
{
place = "{487.761, -73.239}";
type = Stem;
},
{
horizontal = 1;
place = "{-139.239, 21}";
target = up;
type = BottomGhost;
},
{
horizontal = 1;
place = "{117.761, -20}";
target = down;
type = TopGhost;
}
);
layerId = "9F107B1E-3A61-4335-981B-27DD48125C7E";
paths = (
{
closed = 1;
nodes = (
"179.51 700 LINE",
"40.271 0 LINE",
"271.271 0 LINE",
"502.271 0 OFFCURVE",
"667.329 131 OFFCURVE",
"710.493 348 CURVE",
"753.856 566 OFFCURVE",
"641.51 700 OFFCURVE",
"410.51 700 CURVE"
);
},
{
closed = 1;
nodes = (
"134.195 70 LINE",
"245.586 630 LINE",
"396.586 630 LINE",
"586.586 630 OFFCURVE",
"664.7 525 OFFCURVE",
"629.493 348 CURVE",
"594.484 172 OFFCURVE",
"475.195 70 OFFCURVE",
"285.195 70 CURVE"
);
}
);
width = 736.00243;
}
);
leftMetricsKey = H;
rightMetricsKey = "=H*0.5";
unicode = 0044;
},
{
glyphname = Eth;
lastChange = "2021-08-28 16:04:17 +0000";
layers = (
{
hints = (
{
place = "{2.761, -24.239}";
type = Stem;
},
{
place = "{481.761, -22.239}";
type = Stem;
},
{
horizontal = 1;
place = "{-139.239, -52.239}";
type = Stem;
},
{
horizontal = 1;
place = "{155.761, -34.239}";
type = Stem;
},
{
horizontal = 1;
place = "{468.761, -47.239}";
type = Stem;
}
);
layerId = "0CF0EA28-C756-4A9E-9D7C-CFEF350B4CFE";
paths = (
{
closed = 1;
nodes = (
"73.95 295 LINE",
"443.95 295 LINE",
"464.836 400 LINE",
"94.836 400 LINE"
);
},
{
closed = 1;
nodes = (
"231.51 700 LINE",
"92.271 0 LINE",
"320.271 0 LINE SMOOTH",
"543.271 0 OFFCURVE",
"714.528 132 OFFCURVE",
"757.294 347 CURVE SMOOTH",
"800.259 563 OFFCURVE",
"682.51 700 OFFCURVE",
"459.51 700 CURVE SMOOTH"
);
},
{
closed = 1;
nodes = (
"224.577 87 LINE",
"328.21 608 LINE",
"441.21 608 LINE SMOOTH",
"604.21 608 OFFCURVE",
"672.12 507 OFFCURVE",
"640.294 347 CURVE SMOOTH",
"608.667 188 OFFCURVE",
"500.378 86 OFFCURVE",
"337.577 87 CURVE SMOOTH"
);
}
);
width = 780.5;
},
{
background = {
hints = (
{
horizontal = 1;
place = "{0, 48}";
type = Stem;
},
{
horizontal = 1;
place = "{328, 48}";
type = Stem;
},
{
horizontal = 1;
place = "{652, 48}";
type = Stem;
},
{
place = "{134, 52}";
type = Stem;
},
{
place = "{685, 54}";
type = Stem;
}
);
paths = (
{
closed = 1;
nodes = (
"227.51 328 LINE",
"227.51 0 LINE",
"460.51 0 LINE SMOOTH",
"680.51 0 OFFCURVE",
"832.51 153 OFFCURVE",
"832.51 351 CURVE SMOOTH",
"832.51 549 OFFCURVE",
"680.51 700 OFFCURVE",
"460.51 700 CURVE SMOOTH",
"227.51 700 LINE",
"227.51 376 LINE",
"152.51 376 LINE",
"152.51 328 LINE"
);
},
{
closed = 1;
nodes = (
"279.51 376 LINE",
"279.51 652 LINE",
"460.51 652 LINE SMOOTH",
"655.51 652 OFFCURVE",
"778.51 517 OFFCURVE",
"778.51 349 CURVE SMOOTH",
"778.51 181 OFFCURVE",
"655.51 48 OFFCURVE",
"460.51 48 CURVE SMOOTH",
"279.51 48 LINE",
"279.51 328 LINE",
"511.51 328 LINE",
"511.51 376 LINE"
);
}
);
};
hints = (
{
place = "{62.761, -117.239}";
type = Stem;
},
{
place = "{594.761, -117.239}";
type = Stem;
},
{
horizontal = 1;
place = "{-139.239, 21}";
target = up;
type = BottomGhost;
},
{
horizontal = 1;
place = "{545.761, -20}";
target = down;
type = TopGhost;
}
);
layerId = "6E968933-CD79-43C6-9231-80D77C940F4D";
paths = (
{
closed = 1;
nodes = (
"97.902 340 LINE",
"465.902 340 LINE",
"469.88 360 LINE",
"101.88 360 LINE"
);
},
{
closed = 1;
nodes = (
"283.51 700 LINE",
"144.271 0 LINE",
"330.271 0 LINE",
"574.271 0 OFFCURVE",
"727.931 129 OFFCURVE",
"771.891 350 CURVE",
"815.85 571 OFFCURVE",
"713.51 700 OFFCURVE",
"469.51 700 CURVE"
);
},
{
closed = 1;
nodes = (
"170.051 19 LINE",
"301.731 681 LINE",
"465.731 681 LINE",
"699.731 681 OFFCURVE",
"790.469 554 OFFCURVE",
"749.891 350 CURVE",
"709.313 146 OFFCURVE",
"568.051 19 OFFCURVE",
"334.051 19 CURVE"
);
}
);
width = 802.00298;
},
{
hints = (
{
place = "{-44.239, 37.761}";
type = Stem;
},
{
place = "{410.761, 39.761}";
type = Stem;
},
{
horizontal = 1;
place = "{-139.239, 11.761}";
type = Stem;
},
{
horizontal = 1;
place = "{137.761, 6.761}";
type = Stem;
},
{
horizontal = 1;
place = "{409.761, 11.761}";
type = Stem;
}
);
layerId = "BAF31694-0472-4296-B0EA-1654553C45D2";
paths = (
{
closed = 1;
nodes = (
"40.37 277 LINE",
"429.37 277 LINE",
"458.411 423 LINE",
"69.411 423 LINE"
);
},
{
closed = 1;
nodes = (
"186.51 700 LINE",
"47.271 0 LINE",
"313.271 0 LINE SMOOTH",
"538.271 0 OFFCURVE",
"709.915 144 OFFCURVE",
"750.891 350 CURVE SMOOTH",
"792.264 558 OFFCURVE",
"677.51 700 OFFCURVE",
"452.51 700 CURVE SMOOTH"
);
},
{
closed = 1;
nodes = (
"253.307 151 LINE",
"332.673 550 LINE",
"411.673 550 LINE SMOOTH",
"536.673 550 OFFCURVE",
"596.954 476 OFFCURVE",
"571.891 350 CURVE SMOOTH",
"546.828 224 OFFCURVE",
"457.108 150 OFFCURVE",
"332.307 151 CURVE SMOOTH"
);
}
);
width = 758.50245;
},
{
hints = (
{
place = "{120.761, -65.239}";
type = Stem;
},
{
place = "{515.761, -73.239}";
type = Stem;
},
{
horizontal = 1;
place = "{-139.239, 21}";
target = up;
type = BottomGhost;
},
{
horizontal = 1;
place = "{117.761, -20}";
target = down;
type = TopGhost;
}
);
layerId = "9F107B1E-3A61-4335-981B-27DD48125C7E";
paths = (
{
closed = 1;
nodes = (
"82.332 312 LINE",
"451.332 312 LINE",
"465.853 385 LINE",
"96.853 385 LINE"
);
},
{
closed = 1;
nodes = (
"249.51 700 LINE",
"110.271 0 LINE",
"323.271 0 LINE",
"554.271 0 OFFCURVE",
"718.329 131 OFFCURVE",
"761.493 348 CURVE",
"804.856 566 OFFCURVE",
"693.51 700 OFFCURVE",
"462.51 700 CURVE"
);
},
{
closed = 1;
nodes = (
"203.604 62 LINE",
"317.581 635 LINE",
"449.581 635 LINE",
"638.581 635 OFFCURVE",
"715.7 525 OFFCURVE",
"680.493 348 CURVE",
"645.484 172 OFFCURVE",
"524.405 61 OFFCURVE",
"335.604 62 CURVE"
);
}
);
width = 786.99487;
}
);
leftMetricsKey = "=D-20";
rightMetricsKey = D;
unicode = 00D0;
},
{
glyphname = Dcaron;
lastChange = "2021-08-28 16:04:17 +0000";
layers = (
{
anchors = (
{
name = top;
position = "{444.706, 701}";
}
);
hints = (
{
place = "{-96.702, -67.702}";
type = Stem;
},
{
place = "{402.298, -64.702}";
type = Stem;
},
{
horizontal = 1;
place = "{-181.702, -88.702}";
type = Stem;
},
{
horizontal = 1;
place = "{425.298, -88.702}";
type = Stem;
}
);
layerId = "0CF0EA28-C756-4A9E-9D7C-CFEF350B4CFE";
paths = (
{
closed = 1;
nodes = (
"174.507 700 LINE",
"35.268 0 LINE",
"282.268 0 LINE SMOOTH",
"505.268 0 OFFCURVE",
"677.525 132 OFFCURVE",
"720.291 347 CURVE SMOOTH",
"763.256 563 OFFCURVE",
"644.507 700 OFFCURVE",
"421.507 700 CURVE SMOOTH"
);
},
{
closed = 1;
nodes = (
"168.165 95 LINE",
"269.61 605 LINE",
"402.61 605 LINE SMOOTH",
"566.61 605 OFFCURVE",
"636.117 507 OFFCURVE",
"604.291 347 CURVE SMOOTH",
"572.664 188 OFFCURVE",
"465.165 95 OFFCURVE",
"301.165 95 CURVE SMOOTH"
);
},
{
closed = 1;
nodes = (
"469.744 826.875 LINE",
"343.97 913.477 LINE",
"326.143 823.854 LINE",
"452.518 740.273 LINE",
"612.143 823.854 LINE",
"629.97 913.477 LINE"
);
}
);
width = 743.5;
},
{
anchors = (
{
name = top;
position = "{411.333, 679}";
}
);
hints = (
{
place = "{-67.448, -148.448}";
type = Stem;
},
{
place = "{490.552, -148.448}";
type = Stem;
},
{
horizontal = 1;
place = "{-170.448, 21}";
target = up;
type = BottomGhost;
},
{
horizontal = 1;
place = "{514.552, -20}";
target = down;
type = TopGhost;
}
);
layerId = "6E968933-CD79-43C6-9231-80D77C940F4D";
paths = (
{
closed = 1;
nodes = (
"189.51 700 LINE",
"50.272 0 LINE",
"255.272 0 LINE",
"500.272 0 OFFCURVE",
"652.931 129 OFFCURVE",
"696.891 350 CURVE",
"740.851 571 OFFCURVE",
"639.51 700 OFFCURVE",
"394.51 700 CURVE"
);
},
{
closed = 1;
nodes = (
"76.25 20 LINE",
"207.532 680 LINE",
"390.532 680 LINE",
"625.532 680 OFFCURVE",
"715.469 554 OFFCURVE",
"674.891 350 CURVE",
"634.313 146 OFFCURVE",
"494.25 20 OFFCURVE",
"259.25 20 CURVE"
);
},
{
closed = 1;
nodes = (
"433.7 776.363 LINE",
"325.72 856.902 LINE",
"321.369 835.027 LINE",
"429.349 754.489 LINE",
"569.369 835.027 LINE",
"573.72 856.902 LINE"
);
}
);
width = 727.00149;
},
{
anchors = (
{
name = top;
position = "{431.904, 702}";
}
);
hints = (
{
place = "{-133.473, -10.473}";
type = Stem;
},
{
place = "{342.527, -7.473}";
type = Stem;
},
{
horizontal = 1;
place = "{-186.473, -33.473}";
type = Stem;
},
{
horizontal = 1;
place = "{362.527, -35.473}";
type = Stem;
}
);
layerId = "BAF31694-0472-4296-B0EA-1654553C45D2";
paths = (
{
closed = 1;
nodes = (
"144.506 700 LINE",
"5.267 0 LINE",
"291.267 0 LINE SMOOTH",
"516.267 0 OFFCURVE",
"688.91 144 OFFCURVE",
"729.886 350 CURVE SMOOTH",
"771.26 558 OFFCURVE",
"655.506 700 OFFCURVE",
"430.506 700 CURVE SMOOTH"
);
},
{
closed = 1;
nodes = (
"208.308 146 LINE",
"289.465 554 LINE",
"390.465 554 LINE SMOOTH",
"516.465 554 OFFCURVE",
"577.949 476 OFFCURVE",
"552.886 350 CURVE SMOOTH",
"527.823 224 OFFCURVE",
"435.308 146 OFFCURVE",
"309.308 146 CURVE SMOOTH"
);
},
{
closed = 1;
nodes = (
"459.783 850.959 LINE",
"320.99 937.463 LINE",
"297.059 817.152 LINE",
"437.632 739.597 LINE",
"609.059 817.152 LINE",
"632.99 937.463 LINE"
);
}
);
width = 737.49019;
},
{
anchors = (
{
name = top;
position = "{431.119, 693}";
}
);
hints = (
{
place = "{-138.557, -111.557}";
type = Stem;
},
{
place = "{449.443, -111.557}";
type = Stem;
},
{
horizontal = 1;
place = "{-177.557, 21}";
target = up;
type = BottomGhost;
},
{
horizontal = 1;
place = "{79.443, -20}";
target = down;
type = TopGhost;
}
);
layerId = "9F107B1E-3A61-4335-981B-27DD48125C7E";
paths = (
{
closed = 1;
nodes = (
"179.511 700 LINE",
"40.273 0 LINE",
"271.273 0 LINE",
"502.273 0 OFFCURVE",
"667.33 131 OFFCURVE",
"710.494 348 CURVE",
"753.857 566 OFFCURVE",
"641.511 700 OFFCURVE",
"410.511 700 CURVE"
);
},
{
closed = 1;
nodes = (
"134.196 70 LINE",
"245.587 630 LINE",
"396.587 630 LINE",
"586.587 630 OFFCURVE",
"664.702 525 OFFCURVE",
"629.494 348 CURVE",
"594.486 172 OFFCURVE",
"475.196 70 OFFCURVE",
"285.196 70 CURVE"
);
},
{
closed = 1;
nodes = (
"456.585 808.456 LINE",
"337.33 892.641 LINE",
"324.572 828.5 LINE",
"444.225 746.32 LINE",
"596.572 828.5 LINE",
"609.33 892.641 LINE"
);
}
);
width = 736.00431;
}
);
leftMetricsKey = D;
rightMetricsKey = D;
unicode = 010E;
},
{
glyphname = Dcroat;
lastChange = "2021-08-28 16:04:17 +0000";
layers = (
{
hints = (
{
place = "{22.761, -24.239}";
type = Stem;
},
{
place = "{501.761, -22.239}";
type = Stem;
},
{
horizontal = 1;
place = "{-139.239, -52.239}";
type = Stem;
},
{
horizontal = 1;
place = "{155.761, -34.239}";
type = Stem;
},
{
horizontal = 1;
place = "{468.761, -47.239}";
type = Stem;
}
);
layerId = "0CF0EA28-C756-4A9E-9D7C-CFEF350B4CFE";
paths = (
{
closed = 1;
nodes = (
"93.95 295 LINE",
"463.95 295 LINE",
"484.836 400 LINE",
"114.836 400 LINE"
);
},
{
closed = 1;
nodes = (
"251.51 700 LINE",
"112.271 0 LINE",
"340.271 0 LINE SMOOTH",
"563.271 0 OFFCURVE",
"734.528 132 OFFCURVE",
"777.294 347 CURVE SMOOTH",
"820.259 563 OFFCURVE",
"702.51 700 OFFCURVE",
"479.51 700 CURVE SMOOTH"
);
},
{
closed = 1;
nodes = (
"244.577 87 LINE",
"348.21 608 LINE",
"461.21 608 LINE SMOOTH",
"624.21 608 OFFCURVE",
"692.12 507 OFFCURVE",
"660.294 347 CURVE SMOOTH",
"628.667 188 OFFCURVE",
"520.378 86 OFFCURVE",
"357.577 87 CURVE SMOOTH"
);
}
);
width = 800.5;
},
{
hints = (
{
place = "{82.761, -117.239}";
type = Stem;
},
{
place = "{614.761, -117.239}";
type = Stem;
},
{
horizontal = 1;
place = "{-139.239, 21}";
target = up;
type = BottomGhost;
},
{
horizontal = 1;
place = "{545.761, -20}";
target = down;
type = TopGhost;
}
);
layerId = "6E968933-CD79-43C6-9231-80D77C940F4D";
paths = (
{
closed = 1;
nodes = (
"117.902 340 LINE",
"485.902 340 LINE",
"489.88 360 LINE",
"121.88 360 LINE"
);
},
{
closed = 1;
nodes = (
"303.51 700 LINE",
"164.271 0 LINE",
"350.271 0 LINE",
"594.271 0 OFFCURVE",
"747.931 129 OFFCURVE",
"791.891 350 CURVE",
"835.85 571 OFFCURVE",
"733.51 700 OFFCURVE",
"489.51 700 CURVE"
);
},
{
closed = 1;
nodes = (
"190.051 19 LINE",
"321.731 681 LINE",
"485.731 681 LINE",
"719.731 681 OFFCURVE",
"810.469 554 OFFCURVE",
"769.891 350 CURVE",
"729.313 146 OFFCURVE",
"588.051 19 OFFCURVE",
"354.051 19 CURVE"
);
}
);
width = 822.00298;
},
{
hints = (
{
place = "{-24.239, 37.761}";
type = Stem;
},
{
place = "{430.761, 39.761}";
type = Stem;
},
{
horizontal = 1;
place = "{-139.239, 11.761}";
type = Stem;
},
{
horizontal = 1;
place = "{137.761, 6.761}";
type = Stem;
},
{
horizontal = 1;
place = "{409.761, 11.761}";
type = Stem;
}
);
layerId = "BAF31694-0472-4296-B0EA-1654553C45D2";
paths = (
{
closed = 1;
nodes = (
"60.37 277 LINE",
"449.37 277 LINE",
"478.411 423 LINE",
"89.411 423 LINE"
);
},
{
closed = 1;
nodes = (
"206.51 700 LINE",
"67.271 0 LINE",
"333.271 0 LINE SMOOTH",
"558.271 0 OFFCURVE",
"729.915 144 OFFCURVE",
"770.891 350 CURVE SMOOTH",
"812.264 558 OFFCURVE",
"697.51 700 OFFCURVE",
"472.51 700 CURVE SMOOTH"
);
},
{
closed = 1;
nodes = (
"273.307 151 LINE",
"352.673 550 LINE",
"431.673 550 LINE SMOOTH",
"556.673 550 OFFCURVE",
"616.954 476 OFFCURVE",
"591.891 350 CURVE SMOOTH",
"566.828 224 OFFCURVE",
"477.108 150 OFFCURVE",
"352.307 151 CURVE SMOOTH"
);
}
);
width = 778.50245;
},
{
hints = (
{
place = "{140.761, -65.239}";
type = Stem;
},
{
place = "{535.761, -73.239}";
type = Stem;
},
{
horizontal = 1;
place = "{-139.239, 21}";
target = up;
type = BottomGhost;
},
{
horizontal = 1;
place = "{117.761, -20}";
target = down;
type = TopGhost;
}
);
layerId = "9F107B1E-3A61-4335-981B-27DD48125C7E";
paths = (
{
closed = 1;
nodes = (
"102.332 312 LINE",
"471.332 312 LINE",
"485.853 385 LINE",
"116.853 385 LINE"
);
},
{
closed = 1;
nodes = (
"269.51 700 LINE",
"130.271 0 LINE",
"343.271 0 LINE",
"574.271 0 OFFCURVE",
"738.329 131 OFFCURVE",
"781.493 348 CURVE",
"824.856 566 OFFCURVE",
"713.51 700 OFFCURVE",
"482.51 700 CURVE"
);
},
{
closed = 1;
nodes = (
"223.604 62 LINE",
"337.581 635 LINE",
"469.581 635 LINE",
"658.581 635 OFFCURVE",
"735.7 525 OFFCURVE",
"700.493 348 CURVE",
"665.484 172 OFFCURVE",
"544.405 61 OFFCURVE",
"355.604 62 CURVE"
);
}
);
width = 806.99487;
}
);
leftMetricsKey = D;
rightMetricsKey = D;
unicode = 0110;
},
{
glyphname = E;
lastChange = "2021-08-28 16:04:17 +0000";
layers = (
{
anchors = (
{
name = bottom;
position = "{262.271, 0}";
},
{
name = ogonek;
position = "{459.271, 0}";
},
{
name = top;
position = "{411.709, 701}";
}
);
hints = (
{
place = "{-54.239, -25.239}";
type = Stem;
},
{
horizontal = 1;
place = "{-139.239, -46.239}";
type = Stem;
},
{
horizontal = 1;
place = "{168.761, -46.239}";
type = Stem;
},
{
horizontal = 1;
place = "{467.761, -46.239}";
type = Stem;
}
);
layerId = "0CF0EA28-C756-4A9E-9D7C-CFEF350B4CFE";
paths = (
{
closed = 1;
nodes = (
"648.51 700 LINE",
"174.51 700 LINE",
"35.271 0 LINE",
"509.271 0 LINE",
"528.168 95 LINE",
"168.168 95 LINE",
"210.337 307 LINE",
"480.337 307 LINE",
"499.234 402 LINE",
"229.234 402 LINE",
"269.613 605 LINE",
"629.613 605 LINE"
);
}
);
width = 624;
},
{
anchors = (
{
name = bottom;
position = "{238.271, 0}";
},
{
name = ogonek;
position = "{434.271, 0}";
},
{
name = top;
position = "{404.521, 690}";
}
);
background = {
hints = (
{
horizontal = 1;
place = "{0, 48}";
type = Stem;
},
{
horizontal = 1;
place = "{329, 48}";
type = Stem;
},
{
horizontal = 1;
place = "{652, 48}";
type = Stem;
},
{
place = "{104, 52}";
type = Stem;
}
);
paths = (
{
closed = 1;
nodes = (
"700.51 0 LINE",
"700.51 48 LINE",
"249.51 48 LINE",
"249.51 329 LINE",
"650.51 329 LINE",
"650.51 377 LINE",
"249.51 377 LINE",
"249.51 652 LINE",
"695.51 652 LINE",
"695.51 700 LINE",
"197.51 700 LINE",
"197.51 0 LINE"
);
}
);
};
hints = (
{
place = "{-23.239, -117.239}";
type = Stem;
},
{
horizontal = 1;
place = "{545.761, -20}";
target = down;
type = TopGhost;
},
{
horizontal = 1;
place = "{-139.239, 21}";
target = up;
type = BottomGhost;
}
);
layerId = "6E968933-CD79-43C6-9231-80D77C940F4D";
paths = (
{
closed = 1;
nodes = (
"623.51 700 LINE",
"189.51 700 LINE",
"50.271 0 LINE",
"484.271 0 LINE",
"488.25 20 LINE",
"76.25 20 LINE",
"141.891 350 LINE",
"463.891 350 LINE",
"467.869 370 LINE",
"145.869 370 LINE",
"207.532 680 LINE",
"619.532 680 LINE"
);
}
);
width = 614;
},
{
anchors = (
{
name = bottom;
position = "{258.47, 1}";
},
{
name = ogonek;
position = "{480.47, 1}";
},
{
name = top;
position = "{401.908, 702}";
}
);
hints = (
{
place = "{-86.239, 36.761}";
type = Stem;
},
{
horizontal = 1;
place = "{-139.239, 1.761}";
type = Stem;
},
{
horizontal = 1;
place = "{146.761, 1.761}";
type = Stem;
},
{
horizontal = 1;
place = "{419.761, 1.761}";
type = Stem;
}
);
layerId = "BAF31694-0472-4296-B0EA-1654553C45D2";
paths = (
{
closed = 1;
nodes = (
"669.51 700 LINE",
"144.51 700 LINE",
"5.271 0 LINE",
"530.262 0 LINE",
"559.313 146 LINE",
"208.313 146 LINE",
"236.359 287 LINE",
"485.359 287 LINE",
"512.411 423 LINE",
"263.411 423 LINE",
"289.469 554 LINE",
"640.469 554 LINE"
);
}
);
width = 615.00434;
},
{
anchors = (
{
name = bottom;
position = "{252.271, 0}";
},
{
name = ogonek;
position = "{449.271, 0}";
},
{
name = top;
position = "{407.913, 697}";
}
);
hints = (
{
place = "{283.761, -73.239}";
type = Stem;
},
{
horizontal = 1;
place = "{117.761, -20}";
target = down;
type = TopGhost;
},
{
horizontal = 1;
place = "{-139.239, 21}";
target = up;
type = BottomGhost;
}
);
layerId = "9F107B1E-3A61-4335-981B-27DD48125C7E";
paths = (
{
closed = 1;
nodes = (
"638.51 700 LINE",
"179.51 700 LINE",
"40.271 0 LINE",
"499.271 0 LINE",
"513.195 70 LINE",
"134.195 70 LINE",
"184.122 321 LINE",
"473.122 321 LINE",
"487.046 391 LINE",
"198.046 391 LINE",
"245.586 630 LINE",
"624.586 630 LINE"
);
}
);
width = 619.00375;
}
);
leftMetricsKey = H;
rightMetricsKey = "=H-20";
unicode = 0045;
},
{
glyphname = Eacute;
lastChange = "2021-08-28 16:04:17 +0000";
layers = (
{
anchors = (
{
name = bottom;
position = "{262.268, 0}";
},
{
name = ogonek;
position = "{459.268, 0}";
},
{
name = top;
position = "{411.706, 701}";
}
);
hints = (
{
place = "{-103.312, -74.312}";
type = Stem;
},
{
horizontal = 1;
place = "{-188.312, -95.312}";
type = Stem;
},
{
horizontal = 1;
place = "{119.688, -95.312}";
type = Stem;
},
{
horizontal = 1;
place = "{418.688, -95.312}";
type = Stem;
}
);
layerId = "0CF0EA28-C756-4A9E-9D7C-CFEF350B4CFE";
paths = (
{
closed = 1;
nodes = (
"648.507 700 LINE",
"174.507 700 LINE",
"35.268 0 LINE",
"509.268 0 LINE",
"528.165 95 LINE",
"168.165 95 LINE",
"210.334 307 LINE",
"480.334 307 LINE",
"499.231 402 LINE",
"229.231 402 LINE",
"269.61 605 LINE",
"629.61 605 LINE"
);
},
{
closed = 1;
nodes = (
"318.343 824.861 LINE",
"301.518 740.273 LINE",
"544.15 849.029 LINE",
"563.58 946.708 LINE"
);
}
);
width = 624;
},
{
anchors = (
{
name = bottom;
position = "{238.27, 0}";
},
{
name = ogonek;
position = "{434.27, 0}";
},
{
name = top;
position = "{404.52, 690}";
}
);
background = {
hints = (
{
horizontal = 1;
place = "{0, 48}";
type = Stem;
},
{
horizontal = 1;
place = "{329, 48}";
type = Stem;
},
{
horizontal = 1;
place = "{652, 48}";
type = Stem;
},
{
horizontal = 1;
place = "{765, 21}";
type = Stem;
},
{
horizontal = 1;
place = "{878, 20}";
type = Stem;
},
{
place = "{104, 52}";
type = Stem;
}
);
paths = (
{
closed = 1;
nodes = (
"734.06 0 LINE",
"734.06 48 LINE",
"283.06 48 LINE",
"283.06 329 LINE",
"684.06 329 LINE",
"684.06 377 LINE",
"283.06 377 LINE",
"283.06 652 LINE",
"729.06 652 LINE",
"729.06 700 LINE",
"231.06 700 LINE",
"231.06 0 LINE"
);
},
{
closed = 1;
nodes = (
"478.06 765 LINE",
"585.06 868 LINE",
"524.06 898 LINE",
"436.06 765 LINE"
);
}
);
};
hints = (
{
place = "{-60.79, -154.79}";
type = Stem;
},
{
horizontal = 1;
place = "{508.21, -20}";
target = down;
type = TopGhost;
},
{
horizontal = 1;
place = "{-176.79, 21}";
target = up;
type = BottomGhost;
}
);
layerId = "6E968933-CD79-43C6-9231-80D77C940F4D";
paths = (
{
closed = 1;
nodes = (
"623.509 700 LINE",
"189.509 700 LINE",
"50.27 0 LINE",
"484.27 0 LINE",
"488.249 20 LINE",
"76.249 20 LINE",
"141.89 350 LINE",
"463.89 350 LINE",
"467.868 370 LINE",
"145.868 370 LINE",
"207.531 680 LINE",
"619.531 680 LINE"
);
},
{
closed = 1;
nodes = (
"314.558 755.546 LINE",
"310.404 734.665 LINE",
"523.116 863.924 LINE",
"528.06 888.782 LINE"
);
}
);
width = 614;
},
{
anchors = (
{
name = bottom;
position = "{258.471, 1}";
},
{
name = ogonek;
position = "{480.471, 1}";
},
{
name = top;
position = "{401.909, 702}";
}
);
hints = (
{
place = "{-140.197, -17.197}";
type = Stem;
},
{
horizontal = 1;
place = "{-193.197, -52.197}";
type = Stem;
},
{
horizontal = 1;
place = "{92.803, -52.197}";
type = Stem;
},
{
horizontal = 1;
place = "{365.803, -52.197}";
type = Stem;
}
);
layerId = "BAF31694-0472-4296-B0EA-1654553C45D2";
paths = (
{
closed = 1;
nodes = (
"669.511 700 LINE",
"144.511 700 LINE",
"5.273 0 LINE",
"530.264 0 LINE",
"559.314 146 LINE",
"208.314 146 LINE",
"236.36 287 LINE",
"485.36 287 LINE",
"512.413 423 LINE",
"263.413 423 LINE",
"289.47 554 LINE",
"640.47 554 LINE"
);
},
{
closed = 1;
nodes = (
"306.173 857.919 LINE",
"282.242 737.608 LINE",
"544.822 836.044 LINE",
"571.72 971.269 LINE"
);
}
);
width = 614.99962;
},
{
anchors = (
{
name = bottom;
position = "{252.276, 0}";
},
{
name = ogonek;
position = "{449.276, 0}";
},
{
name = top;
position = "{407.918, 697}";
}
);
hints = (
{
place = "{238.866, -118.134}";
type = Stem;
},
{
horizontal = 1;
place = "{72.866, -20}";
target = down;
type = TopGhost;
},
{
horizontal = 1;
place = "{-184.134, 21}";
target = up;
type = BottomGhost;
}
);
layerId = "9F107B1E-3A61-4335-981B-27DD48125C7E";
paths = (
{
closed = 1;
nodes = (
"638.514 700 LINE",
"179.514 700 LINE",
"40.276 0 LINE",
"499.276 0 LINE",
"513.2 70 LINE",
"134.2 70 LINE",
"184.127 321 LINE",
"473.127 321 LINE",
"487.051 391 LINE",
"198.051 391 LINE",
"245.591 630 LINE",
"624.591 630 LINE"
);
},
{
closed = 1;
nodes = (
"316.991 800.43 LINE",
"305.03 740.298 LINE",
"535.956 855.551 LINE",
"549.91 925.705 LINE"
);
}
);
width = 619.00375;
}
);
leftMetricsKey = H;
rightMetricsKey = E;
unicode = 00C9;
},
{
glyphname = Ebreve;
lastChange = "2021-08-28 16:04:17 +0000";
layers = (
{
anchors = (
{
name = bottom;
position = "{262.269, 0}";
},
{
name = ogonek;
position = "{459.269, 0}";
},
{
name = top;
position = "{411.707, 701}";
}
);
hints = (
{
place = "{-95.901, -66.901}";
type = Stem;
},
{
horizontal = 1;
place = "{-180.901, -87.901}";
type = Stem;
},
{
horizontal = 1;
place = "{127.099, -87.901}";
type = Stem;
},
{
horizontal = 1;
place = "{426.099, -87.901}";
type = Stem;
},
{
place = "{-9.651, -115.446}";
type = Stem;
},
{
place = "{225.349, -114.439}";
type = Stem;
},
{
horizontal = 1;
place = "{566.421, -91.278}";
type = Stem;
},
{
horizontal = 1;
place = "{566.421, -18.774}";
type = Stem;
}
);
layerId = "0CF0EA28-C756-4A9E-9D7C-CFEF350B4CFE";
paths = (
{
closed = 1;
nodes = (
"648.508 700 LINE",
"174.508 700 LINE",
"35.269 0 LINE",
"509.269 0 LINE",
"528.166 95 LINE",
"168.166 95 LINE",
"210.335 307 LINE",
"480.335 307 LINE",
"499.232 402 LINE",
"229.232 402 LINE",
"269.611 605 LINE",
"629.611 605 LINE"
);
},
{
closed = 1;
nodes = (
"604.17 909.449 LINE",
"538.17 909.449 LINE",
"529.156 864.134 OFFCURVE",
"503.748 836.945 OFFCURVE",
"438.748 836.945 CURVE SMOOTH",
"373.748 836.945 OFFCURVE",
"359.156 864.134 OFFCURVE",
"368.17 909.449 CURVE",
"303.17 909.449 LINE",
"298.964 888.302 LINE SMOOTH",
"282.338 804.721 OFFCURVE",
"326.921 747.322 OFFCURVE",
"420.921 747.322 CURVE SMOOTH",
"515.921 747.322 OFFCURVE",
"583.138 803.714 OFFCURVE",
"599.763 887.295 CURVE SMOOTH"
);
}
);
width = 624;
},
{
anchors = (
{
name = bottom;
position = "{238.267, 0}";
},
{
name = ogonek;
position = "{434.267, 0}";
},
{
name = top;
position = "{404.516, 690}";
}
);
hints = (
{
place = "{-57.823, -151.823}";
type = Stem;
},
{
horizontal = 1;
place = "{511.177, -20}";
target = down;
type = TopGhost;
},
{
horizontal = 1;
place = "{-173.823, 21}";
target = up;
type = BottomGhost;
},
{
place = "{41.177, -152.943}";
type = Stem;
},
{
place = "{253.177, -150.954}";
type = Stem;
},
{
horizontal = 1;
place = "{578.74, 21}";
target = up;
type = BottomGhost;
},
{
horizontal = 1;
place = "{684.136, -20}";
target = down;
type = TopGhost;
}
);
layerId = "6E968933-CD79-43C6-9231-80D77C940F4D";
paths = (
{
closed = 1;
nodes = (
"623.506 700 LINE",
"189.506 700 LINE",
"50.267 0 LINE",
"484.267 0 LINE",
"488.245 20 LINE",
"76.245 20 LINE",
"141.886 350 LINE",
"463.886 350 LINE",
"467.865 370 LINE",
"145.865 370 LINE",
"207.527 680 LINE",
"619.527 680 LINE"
);
},
{
closed = 1;
nodes = (
"564.09 873.867 LINE",
"543.09 873.867 LINE",
"531.817 817.192 OFFCURVE",
"489.29 784.38 OFFCURVE",
"427.29 784.38 CURVE",
"365.29 784.38 OFFCURVE",
"336.817 817.192 OFFCURVE",
"348.09 873.867 CURVE",
"327.09 873.867 LINE",
"326.101 868.896 LINE SMOOTH",
"316.608 821.17 OFFCURVE",
"338.532 765.489 OFFCURVE",
"423.532 765.489 CURVE",
"509.532 765.489 OFFCURVE",
"553.608 821.17 OFFCURVE",
"563.101 868.896 CURVE SMOOTH"
);
}
);
width = 614;
},
{
anchors = (
{
name = bottom;
position = "{258.472, 1}";
},
{
name = ogonek;
position = "{480.472, 1}";
},
{
name = top;
position = "{401.909, 702}";
}
);
hints = (
{
place = "{-133.077, -10.077}";
type = Stem;
},
{
horizontal = 1;
place = "{-186.077, -45.077}";
type = Stem;
},
{
horizontal = 1;
place = "{99.923, -45.077}";
type = Stem;
},
{
horizontal = 1;
place = "{372.923, -45.077}";
type = Stem;
},
{
place = "{-48.077, -99.573}";
type = Stem;
},
{
place = "{208.923, -99.573}";
type = Stem;
},
{
horizontal = 1;
place = "{555.508, -57.813}";
type = Stem;
},
{
horizontal = 1;
place = "{555.508, 7.811}";
type = Stem;
}
);
layerId = "BAF31694-0472-4296-B0EA-1654553C45D2";
paths = (
{
closed = 1;
nodes = (
"669.511 700 LINE",
"144.511 700 LINE",
"5.273 0 LINE",
"530.264 0 LINE",
"559.314 146 LINE",
"208.314 146 LINE",
"236.36 287 LINE",
"485.36 287 LINE",
"512.413 423 LINE",
"263.413 423 LINE",
"289.47 554 LINE",
"640.47 554 LINE"
);
},
{
closed = 1;
nodes = (
"619.6 935.474 LINE",
"532.6 935.474 LINE",
"524.293 893.714 OFFCURVE",
"499.349 868.856 OFFCURVE",
"434.349 868.856 CURVE SMOOTH",
"369.349 868.856 OFFCURVE",
"354.293 893.714 OFFCURVE",
"362.6 935.474 CURVE",
"275.6 935.474 LINE",
"271.842 916.582 LINE SMOOTH",
"249.098 802.238 OFFCURVE",
"309.033 741.586 OFFCURVE",
"409.033 741.586 CURVE SMOOTH",
"510.033 741.586 OFFCURVE",
"593.098 802.238 OFFCURVE",
"615.842 916.582 CURVE SMOOTH"
);
}
);
width = 614.99962;
},
{
anchors = (
{
name = bottom;
position = "{252.267, 0}";
},
{
name = ogonek;
position = "{449.267, 0}";
},
{
name = top;
position = "{407.909, 697}";
}
);
hints = (
{
place = "{244.647, -112.353}";
type = Stem;
},
{
horizontal = 1;
place = "{78.647, -20}";
target = down;
type = TopGhost;
},
{
horizontal = 1;
place = "{-178.353, 21}";
target = up;
type = BottomGhost;
},
{
place = "{374.647, -114.212}";
type = Stem;
},
{
place = "{454.647, -69.113}";
type = Stem;
},
{
horizontal = 1;
place = "{197.144, 21}";
target = up;
type = BottomGhost;
},
{
horizontal = 1;
place = "{237.232, -20}";
target = down;
type = TopGhost;
}
);
layerId = "9F107B1E-3A61-4335-981B-27DD48125C7E";
paths = (
{
closed = 1;
nodes = (
"638.506 700 LINE",
"179.506 700 LINE",
"40.267 0 LINE",
"499.267 0 LINE",
"513.191 70 LINE",
"134.191 70 LINE",
"184.118 321 LINE",
"473.118 321 LINE",
"487.042 391 LINE",
"198.042 391 LINE",
"245.582 630 LINE",
"624.582 630 LINE"
);
},
{
closed = 1;
nodes = (
"589.12 896.641 LINE",
"540.12 896.641 LINE",
"530.153 846.531 OFFCURVE",
"498.371 817.467 OFFCURVE",
"434.371 817.467 CURVE",
"370.371 817.467 OFFCURVE",
"350.153 846.531 OFFCURVE",
"360.12 896.641 CURVE",
"312.12 896.641 LINE",
"309.13 881.608 LINE SMOOTH",
"295.175 811.454 OFFCURVE",
"330.812 754.329 OFFCURVE",
"421.812 754.329 CURVE",
"513.812 754.329 OFFCURVE",
"571.976 810.452 OFFCURVE",
"585.93 880.606 CURVE SMOOTH"
);
}
);
width = 618.99375;
}
);
leftMetricsKey = H;
rightMetricsKey = E;
unicode = 0114;
},
{
glyphname = Ecaron;
lastChange = "2021-08-28 16:04:17 +0000";
layers = (
{
anchors = (
{
name = bottom;
position = "{262.268, 0}";
},
{
name = ogonek;
position = "{459.268, 0}";
},
{
name = top;
position = "{411.706, 701}";
}
);
hints = (
{
place = "{-96.702, -67.702}";
type = Stem;
},
{
horizontal = 1;
place = "{-181.702, -88.702}";
type = Stem;
},
{
horizontal = 1;
place = "{126.298, -88.702}";
type = Stem;
},
{
horizontal = 1;
place = "{425.298, -88.702}";
type = Stem;
}
);
layerId = "0CF0EA28-C756-4A9E-9D7C-CFEF350B4CFE";
paths = (
{
closed = 1;
nodes = (
"648.507 700 LINE",
"174.507 700 LINE",
"35.268 0 LINE",
"509.268 0 LINE",
"528.165 95 LINE",
"168.165 95 LINE",
"210.334 307 LINE",
"480.334 307 LINE",
"499.231 402 LINE",
"229.231 402 LINE",
"269.61 605 LINE",
"629.61 605 LINE"
);
},
{
closed = 1;
nodes = (
"436.744 826.875 LINE",
"310.97 913.477 LINE",
"293.143 823.854 LINE",
"419.518 740.273 LINE",
"579.143 823.854 LINE",
"596.97 913.477 LINE"
);
}
);
width = 624;
},
{
anchors = (
{
name = bottom;
position = "{238.274, 0}";
},
{
name = ogonek;
position = "{434.274, 0}";
},
{
name = top;
position = "{404.523, 690}";
}
);
hints = (
{
place = "{-56.636, -150.636}";
type = Stem;
},
{
horizontal = 1;
place = "{512.364, -20}";
target = down;
type = TopGhost;
},
{
horizontal = 1;
place = "{-172.636, 21}";
target = up;
type = BottomGhost;
}
);
layerId = "6E968933-CD79-43C6-9231-80D77C940F4D";
paths = (
{
closed = 1;
nodes = (
"623.512 700 LINE",
"189.512 700 LINE",
"50.274 0 LINE",
"484.274 0 LINE",
"488.252 20 LINE",
"76.252 20 LINE",
"141.893 350 LINE",
"463.893 350 LINE",
"467.871 370 LINE",
"145.871 370 LINE",
"207.534 680 LINE",
"619.534 680 LINE"
);
},
{
closed = 1;
nodes = (
"427.89 787.363 LINE",
"319.91 867.902 LINE",
"315.559 846.027 LINE",
"423.539 765.489 LINE",
"563.559 846.027 LINE",
"567.91 867.902 LINE"
);
}
);
width = 614;
},
{
anchors = (
{
name = bottom;
position = "{258.466, 1}";
},
{
name = ogonek;
position = "{480.466, 1}";
},
{
name = top;
position = "{401.904, 702}";
}
);
hints = (
{
place = "{-133.473, -10.473}";
type = Stem;
},
{
horizontal = 1;
place = "{-186.473, -45.473}";
type = Stem;
},
{
horizontal = 1;
place = "{99.527, -45.473}";
type = Stem;
},
{
horizontal = 1;
place = "{372.527, -45.473}";
type = Stem;
}
);
layerId = "BAF31694-0472-4296-B0EA-1654553C45D2";
paths = (
{
closed = 1;
nodes = (
"669.506 700 LINE",
"144.506 700 LINE",
"5.267 0 LINE",
"530.258 0 LINE",
"559.308 146 LINE",
"208.308 146 LINE",
"236.355 287 LINE",
"485.355 287 LINE",
"512.407 423 LINE",
"263.407 423 LINE",
"289.465 554 LINE",
"640.465 554 LINE"
);
},
{
closed = 1;
nodes = (
"429.783 850.959 LINE",
"290.99 937.463 LINE",
"267.059 817.152 LINE",
"407.632 739.597 LINE",
"579.059 817.152 LINE",
"602.99 937.463 LINE"
);
}
);
width = 614.99962;
},
{
anchors = (
{
name = bottom;
position = "{252.267, 0}";
},
{
name = ogonek;
position = "{449.267, 0}";
},
{
name = top;
position = "{407.909, 697}";
}
);
hints = (
{
place = "{244.647, -112.353}";
type = Stem;
},
{
horizontal = 1;
place = "{78.647, -20}";
target = down;
type = TopGhost;
},
{
horizontal = 1;
place = "{-178.353, 21}";
target = up;
type = BottomGhost;
}
);
layerId = "9F107B1E-3A61-4335-981B-27DD48125C7E";
paths = (
{
closed = 1;
nodes = (
"638.506 700 LINE",
"179.506 700 LINE",
"40.267 0 LINE",
"499.267 0 LINE",
"513.191 70 LINE",
"134.191 70 LINE",
"184.118 321 LINE",
"473.118 321 LINE",
"487.042 391 LINE",
"198.042 391 LINE",
"245.582 630 LINE",
"624.582 630 LINE"
);
},
{
closed = 1;
nodes = (
"433.375 812.456 LINE",
"314.12 896.641 LINE",
"301.362 832.5 LINE",
"421.015 750.32 LINE",
"573.362 832.5 LINE",
"586.12 896.641 LINE"
);
}
);
width = 618.99375;
}
);
leftMetricsKey = H;
rightMetricsKey = E;
unicode = 011A;
},
{
glyphname = Ecircumflex;
lastChange = "2021-08-28 16:04:17 +0000";
layers = (
{
anchors = (
{
name = bottom;
position = "{262.268, 0}";
},
{
name = ogonek;
position = "{459.268, 0}";
},
{
name = top;
position = "{411.706, 701}";
}
);
hints = (
{
place = "{-96.702, -67.702}";
type = Stem;
},
{
horizontal = 1;
place = "{-181.702, -88.702}";
type = Stem;
},
{
horizontal = 1;
place = "{126.298, -88.702}";
type = Stem;
},
{
horizontal = 1;
place = "{425.298, -88.702}";
type = Stem;
}
);
layerId = "0CF0EA28-C756-4A9E-9D7C-CFEF350B4CFE";
paths = (
{
closed = 1;
nodes = (
"648.507 700 LINE",
"174.507 700 LINE",
"35.268 0 LINE",
"509.268 0 LINE",
"528.165 95 LINE",
"168.165 95 LINE",
"210.334 307 LINE",
"480.334 307 LINE",
"499.231 402 LINE",
"229.231 402 LINE",
"269.61 605 LINE",
"629.61 605 LINE"
);
},
{
closed = 1;
nodes = (
"580.345 829.896 LINE",
"453.97 913.477 LINE",
"294.345 829.896 LINE",
"276.518 740.273 LINE",
"436.744 826.875 LINE",
"562.518 740.273 LINE"
);
}
);
width = 624;
},
{
anchors = (
{
name = bottom;
position = "{238.27, 0}";
},
{
name = ogonek;
position = "{434.27, 0}";
},
{
name = top;
position = "{404.52, 690}";
}
);
background = {
hints = (
{
horizontal = 1;
place = "{0, 48}";
type = Stem;
},
{
horizontal = 1;
place = "{329, 48}";
type = Stem;
},
{
horizontal = 1;
place = "{652, 48}";
type = Stem;
},
{
horizontal = 1;
place = "{765, 21}";
type = Stem;
},
{
horizontal = 1;
place = "{867, 20}";
type = Stem;
},
{
place = "{104, 52}";
type = Stem;
}
);
paths = (
{
closed = 1;
nodes = (
"730.5 0 LINE",
"730.5 48 LINE",
"279.5 48 LINE",
"279.5 329 LINE",
"680.5 329 LINE",
"680.5 377 LINE",
"279.5 377 LINE",
"279.5 652 LINE",
"725.5 652 LINE",
"725.5 700 LINE",
"227.5 700 LINE",
"227.5 0 LINE"
);
},
{
closed = 1;
nodes = (
"471.5 833 LINE",
"545.5 765 LINE",
"592.5 765 LINE",
"492.5 887 LINE",
"452.5 887 LINE",
"352.5 765 LINE",
"397.5 765 LINE"
);
}
);
};
hints = (
{
place = "{-57.23, -151.23}";
type = Stem;
},
{
horizontal = 1;
place = "{511.77, -20}";
target = down;
type = TopGhost;
},
{
horizontal = 1;
place = "{-173.23, 21}";
target = up;
type = BottomGhost;
}
);
layerId = "6E968933-CD79-43C6-9231-80D77C940F4D";
paths = (
{
closed = 1;
nodes = (
"623.509 700 LINE",
"189.509 700 LINE",
"50.27 0 LINE",
"484.27 0 LINE",
"488.249 20 LINE",
"76.249 20 LINE",
"141.89 350 LINE",
"463.89 350 LINE",
"467.868 370 LINE",
"145.868 370 LINE",
"207.531 680 LINE",
"619.531 680 LINE"
);
},
{
closed = 1;
nodes = (
"552.48 790.346 LINE",
"444.5 870.885 LINE",
"304.48 790.346 LINE",
"300.129 768.472 LINE",
"440.149 849.01 LINE",
"548.129 768.472 LINE"
);
}
);
width = 614;
},
{
anchors = (
{
name = bottom;
position = "{258.466, 1}";
},
{
name = ogonek;
position = "{480.466, 1}";
},
{
name = top;
position = "{401.904, 702}";
}
);
hints = (
{
place = "{-133.473, -10.473}";
type = Stem;
},
{
horizontal = 1;
place = "{-186.473, -45.473}";
type = Stem;
},
{
horizontal = 1;
place = "{99.527, -45.473}";
type = Stem;
},
{
horizontal = 1;
place = "{372.527, -45.473}";
type = Stem;
}
);
layerId = "BAF31694-0472-4296-B0EA-1654553C45D2";
paths = (
{
closed = 1;
nodes = (
"669.506 700 LINE",
"144.506 700 LINE",
"5.267 0 LINE",
"530.258 0 LINE",
"559.308 146 LINE",
"208.308 146 LINE",
"236.355 287 LINE",
"485.355 287 LINE",
"512.407 423 LINE",
"263.407 423 LINE",
"289.465 554 LINE",
"640.465 554 LINE"
);
},
{
closed = 1;
nodes = (
"587.563 859.907 LINE",
"446.99 937.463 LINE",
"275.563 859.907 LINE",
"251.632 739.597 LINE",
"423.652 820.135 LINE",
"563.632 739.597 LINE"
);
}
);
width = 614.99962;
},
{
anchors = (
{
name = bottom;
position = "{252.268, 0}";
},
{
name = ogonek;
position = "{449.268, 0}";
},
{
name = top;
position = "{407.91, 697}";
}
);
hints = (
{
place = "{244.448, -112.552}";
type = Stem;
},
{
horizontal = 1;
place = "{78.448, -20}";
target = down;
type = TopGhost;
},
{
horizontal = 1;
place = "{-178.552, 21}";
target = up;
type = BottomGhost;
}
);
layerId = "9F107B1E-3A61-4335-981B-27DD48125C7E";
paths = (
{
closed = 1;
nodes = (
"638.506 700 LINE",
"179.506 700 LINE",
"40.268 0 LINE",
"499.268 0 LINE",
"513.191 70 LINE",
"134.191 70 LINE",
"184.118 321 LINE",
"473.118 321 LINE",
"487.042 391 LINE",
"198.042 391 LINE",
"245.582 630 LINE",
"624.582 630 LINE"
);
},
{
closed = 1;
nodes = (
"569.973 815.463 LINE",
"450.32 897.643 LINE",
"297.973 815.463 LINE",
"285.215 751.322 LINE",
"437.96 835.507 LINE",
"557.215 751.322 LINE"
);
}
);
width = 618.99375;
}
);
leftMetricsKey = H;
rightMetricsKey = E;
unicode = 00CA;
},
{
glyphname = Edieresis;
lastChange = "2021-08-28 16:04:17 +0000";
layers = (
{
anchors = (
{
name = bottom;
position = "{262.275, 0}";
},
{
name = ogonek;
position = "{459.275, 0}";
},
{
name = top;
position = "{411.712, 701}";
}
);
hints = (
{
place = "{-92.295, -63.295}";
type = Stem;
},
{
horizontal = 1;
place = "{-177.295, -84.295}";
type = Stem;
},
{
horizontal = 1;
place = "{130.705, -84.295}";
type = Stem;
},
{
horizontal = 1;
place = "{429.705, -84.295}";
type = Stem;
},
{
place = "{-2.045, -56.455}";
type = Stem;
},
{
place = "{169.955, -56.455}";
type = Stem;
},
{
horizontal = 1;
place = "{593.188, -56.455}";
type = Stem;
}
);
layerId = "0CF0EA28-C756-4A9E-9D7C-CFEF350B4CFE";
paths = (
{
closed = 1;
nodes = (
"648.513 700 LINE",
"174.513 700 LINE",
"35.275 0 LINE",
"509.275 0 LINE",
"528.172 95 LINE",
"168.172 95 LINE",
"210.341 307 LINE",
"480.341 307 LINE",
"499.238 402 LINE",
"229.238 402 LINE",
"269.617 605 LINE",
"629.617 605 LINE"
);
},
{
closed = 1;
nodes = (
"372.533 770.483 OFFCURVE",
"404.741 796.665 OFFCURVE",
"411.552 830.903 CURVE SMOOTH",
"418.162 864.134 OFFCURVE",
"396.57 891.323 OFFCURVE",
"363.57 891.323 CURVE SMOOTH",
"329.57 891.323 OFFCURVE",
"298.162 864.134 OFFCURVE",
"291.552 830.903 CURVE SMOOTH",
"284.741 796.665 OFFCURVE",
"305.533 770.483 OFFCURVE",
"339.533 770.483 CURVE SMOOTH"
);
},
{
closed = 1;
nodes = (
"544.533 770.483 OFFCURVE",
"576.741 796.665 OFFCURVE",
"583.552 830.903 CURVE SMOOTH",
"590.162 864.134 OFFCURVE",
"568.57 891.323 OFFCURVE",
"535.57 891.323 CURVE SMOOTH",
"501.57 891.323 OFFCURVE",
"470.162 864.134 OFFCURVE",
"463.552 830.903 CURVE SMOOTH",
"456.741 796.665 OFFCURVE",
"477.533 770.483 OFFCURVE",
"511.533 770.483 CURVE SMOOTH"
);
}
);
width = 624;
},
{
anchors = (
{
name = bottom;
position = "{238.269, 0}";
},
{
name = ogonek;
position = "{434.269, 0}";
},
{
name = top;
position = "{404.519, 690}";
}
);
background = {
hints = (
{
horizontal = 1;
place = "{0, 48}";
type = Stem;
},
{
horizontal = 1;
place = "{329, 48}";
type = Stem;
},
{
horizontal = 1;
place = "{652, 48}";
type = Stem;
},
{
horizontal = 1;
place = "{765, 80}";
type = Stem;
},
{
place = "{104, 52}";
type = Stem;
},
{
place = "{233, 69}";
type = Stem;
},
{
place = "{396, 69}";
type = Stem;
}
);
paths = (
{
closed = 1;
nodes = (
"724.17 0 LINE",
"724.17 48 LINE",
"273.17 48 LINE",
"273.17 329 LINE",
"674.17 329 LINE",
"674.17 377 LINE",
"273.17 377 LINE",
"273.17 652 LINE",
"719.17 652 LINE",
"719.17 700 LINE",
"221.17 700 LINE",
"221.17 0 LINE"
);
},
{
closed = 1;
nodes = (
"582.17 765 LINE",
"582.17 845 LINE",
"513.17 845 LINE",
"513.17 765 LINE"
);
},
{
closed = 1;
nodes = (
"419.17 765 LINE",
"419.17 845 LINE",
"350.17 845 LINE",
"350.17 765 LINE"
);
}
);
};
hints = (
{
place = "{-50.901, -144.901}";
type = Stem;
},
{
horizontal = 1;
place = "{518.099, -20}";
target = down;
type = TopGhost;
},
{
horizontal = 1;
place = "{-166.901, 21}";
target = up;
type = BottomGhost;
},
{
place = "{57.099, -106.249}";
type = Stem;
},
{
place = "{192.099, -107.243}";
type = Stem;
},
{
horizontal = 1;
place = "{609.525, -106.249}";
type = Stem;
}
);
layerId = "6E968933-CD79-43C6-9231-80D77C940F4D";
paths = (
{
closed = 1;
nodes = (
"623.508 700 LINE",
"189.508 700 LINE",
"50.269 0 LINE",
"484.269 0 LINE",
"488.247 20 LINE",
"76.247 20 LINE",
"141.889 350 LINE",
"463.889 350 LINE",
"467.867 370 LINE",
"145.867 370 LINE",
"207.53 680 LINE",
"619.53 680 LINE"
);
},
{
closed = 1;
nodes = (
"376.106 778.415 OFFCURVE",
"392.874 792.335 OFFCURVE",
"396.039 808.244 CURVE SMOOTH",
"399.401 825.147 OFFCURVE",
"388.17 839.067 OFFCURVE",
"371.17 839.067 CURVE SMOOTH",
"354.17 839.067 OFFCURVE",
"338.401 825.147 OFFCURVE",
"335.039 808.244 CURVE SMOOTH",
"331.874 792.335 OFFCURVE",
"342.106 778.415 OFFCURVE",
"359.106 778.415 CURVE SMOOTH"
);
},
{
closed = 1;
nodes = (
"510.106 778.415 OFFCURVE",
"526.874 792.335 OFFCURVE",
"530.039 808.244 CURVE SMOOTH",
"533.401 825.147 OFFCURVE",
"522.17 839.067 OFFCURVE",
"506.17 839.067 CURVE SMOOTH",
"489.17 839.067 OFFCURVE",
"472.401 825.147 OFFCURVE",
"469.039 808.244 CURVE SMOOTH",
"465.874 792.335 OFFCURVE",
"477.106 778.415 OFFCURVE",
"494.106 778.415 CURVE SMOOTH"
);
}
);
width = 614;
},
{
anchors = (
{
name = bottom;
position = "{258.468, 1}";
},
{
name = ogonek;
position = "{480.468, 1}";
},
{
name = top;
position = "{401.906, 702}";
}
);
hints = (
{
place = "{-128.331, -5.331}";
type = Stem;
},
{
horizontal = 1;
place = "{-181.331, -40.331}";
type = Stem;
},
{
horizontal = 1;
place = "{104.669, -40.331}";
type = Stem;
},
{
horizontal = 1;
place = "{377.669, -40.331}";
type = Stem;
},
{
place = "{-48.331, -32.186}";
type = Stem;
},
{
place = "{154.669, -32.186}";
type = Stem;
},
{
horizontal = 1;
place = "{581.135, -32.186}";
type = Stem;
}
);
layerId = "BAF31694-0472-4296-B0EA-1654553C45D2";
paths = (
{
closed = 1;
nodes = (
"669.508 700 LINE",
"144.508 700 LINE",
"5.269 0 LINE",
"530.26 0 LINE",
"559.311 146 LINE",
"208.311 146 LINE",
"236.357 287 LINE",
"485.357 287 LINE",
"512.409 423 LINE",
"263.409 423 LINE",
"289.467 554 LINE",
"640.467 554 LINE"
);
},
{
closed = 1;
nodes = (
"353.183 762.466 OFFCURVE",
"392.512 794.284 OFFCURVE",
"400.819 836.044 CURVE SMOOTH",
"409.323 878.799 OFFCURVE",
"382.85 911.611 OFFCURVE",
"339.85 911.611 CURVE SMOOTH",
"297.85 911.611 OFFCURVE",
"259.323 878.799 OFFCURVE",
"250.819 836.044 CURVE SMOOTH",
"242.512 794.284 OFFCURVE",
"268.183 762.466 OFFCURVE",
"310.183 762.466 CURVE SMOOTH"
);
},
{
closed = 1;
nodes = (
"556.183 762.466 OFFCURVE",
"594.512 794.284 OFFCURVE",
"602.819 836.044 CURVE SMOOTH",
"611.323 878.799 OFFCURVE",
"585.85 911.611 OFFCURVE",
"542.85 911.611 CURVE SMOOTH",
"500.85 911.611 OFFCURVE",
"462.323 878.799 OFFCURVE",
"453.819 836.044 CURVE SMOOTH",
"445.512 794.284 OFFCURVE",
"471.183 762.466 OFFCURVE",
"513.183 762.466 CURVE SMOOTH"
);
}
);
width = 614.99962;
},
{
anchors = (
{
name = bottom;
position = "{252.27, 0}";
},
{
name = ogonek;
position = "{449.27, 0}";
},
{
name = top;
position = "{407.912, 697}";
}
);
hints = (
{
place = "{249.83, -107.17}";
type = Stem;
},
{
horizontal = 1;
place = "{83.83, -20}";
target = down;
type = TopGhost;
},
{
horizontal = 1;
place = "{-173.17, 21}";
target = up;
type = BottomGhost;
},
{
place = "{19.83, -74.954}";
type = Stem;
},
{
place = "{177.83, -74.954}";
type = Stem;
},
{
horizontal = 1;
place = "{600.201, -74.954}";
type = Stem;
}
);
layerId = "9F107B1E-3A61-4335-981B-27DD48125C7E";
paths = (
{
closed = 1;
nodes = (
"638.509 700 LINE",
"179.509 700 LINE",
"40.27 0 LINE",
"499.27 0 LINE",
"513.194 70 LINE",
"134.194 70 LINE",
"184.121 321 LINE",
"473.121 321 LINE",
"487.045 391 LINE",
"198.045 391 LINE",
"245.585 630 LINE",
"624.585 630 LINE"
);
},
{
closed = 1;
nodes = (
"373.404 772.368 OFFCURVE",
"399.59 793.415 OFFCURVE",
"404.973 820.474 CURVE SMOOTH",
"410.355 847.533 OFFCURVE",
"392.94 870.584 OFFCURVE",
"365.94 870.584 CURVE SMOOTH",
"337.94 870.584 OFFCURVE",
"312.355 847.533 OFFCURVE",
"306.973 820.474 CURVE SMOOTH",
"301.59 793.415 OFFCURVE",
"318.404 772.368 OFFCURVE",
"346.404 772.368 CURVE SMOOTH"
);
},
{
closed = 1;
nodes = (
"530.404 772.368 OFFCURVE",
"557.59 793.415 OFFCURVE",
"562.973 820.474 CURVE SMOOTH",
"568.355 847.533 OFFCURVE",
"549.94 870.584 OFFCURVE",
"523.94 870.584 CURVE SMOOTH",
"495.94 870.584 OFFCURVE",
"470.355 847.533 OFFCURVE",
"464.973 820.474 CURVE SMOOTH",
"459.59 793.415 OFFCURVE",
"476.404 772.368 OFFCURVE",
"504.404 772.368 CURVE SMOOTH"
);
}
);
width = 618.99375;
}
);
leftMetricsKey = H;
rightMetricsKey = E;
unicode = 00CB;
},
{
glyphname = Edotaccent;
lastChange = "2021-08-28 16:04:17 +0000";
layers = (
{
anchors = (
{
name = bottom;
position = "{262.275, 0}";
},
{
name = ogonek;
position = "{459.275, 0}";
},
{
name = top;
position = "{411.712, 701}";
}
);
hints = (
{
place = "{-92.295, -63.295}";
type = Stem;
},
{
horizontal = 1;
place = "{-177.295, -84.295}";
type = Stem;
},
{
horizontal = 1;
place = "{130.705, -84.295}";
type = Stem;
},
{
horizontal = 1;
place = "{429.705, -84.295}";
type = Stem;
},
{
place = "{83.955, -56.455}";
type = Stem;
},
{
horizontal = 1;
place = "{593.188, -56.455}";
type = Stem;
}
);
layerId = "0CF0EA28-C756-4A9E-9D7C-CFEF350B4CFE";
paths = (
{
closed = 1;
nodes = (
"648.513 700 LINE",
"174.513 700 LINE",
"35.275 0 LINE",
"509.275 0 LINE",
"528.172 95 LINE",
"168.172 95 LINE",
"210.341 307 LINE",
"480.341 307 LINE",
"499.238 402 LINE",
"229.238 402 LINE",
"269.617 605 LINE",
"629.617 605 LINE"
);
},
{
closed = 1;
nodes = (
"458.533 770.483 OFFCURVE",
"490.741 796.665 OFFCURVE",
"497.552 830.903 CURVE SMOOTH",
"504.162 864.134 OFFCURVE",
"482.57 891.323 OFFCURVE",
"449.57 891.323 CURVE SMOOTH",
"415.57 891.323 OFFCURVE",
"384.162 864.134 OFFCURVE",
"377.552 830.903 CURVE SMOOTH",
"370.741 796.665 OFFCURVE",
"391.533 770.483 OFFCURVE",
"425.533 770.483 CURVE SMOOTH"
);
}
);
width = 624;
},
{
anchors = (
{
name = bottom;
position = "{238.276, 0}";
},
{
name = ogonek;
position = "{434.276, 0}";
},
{
name = top;
position = "{404.526, 690}";
}
);
hints = (
{
place = "{-46.724, -140.724}";
type = Stem;
},
{
horizontal = 1;
place = "{522.276, -20}";
target = down;
type = TopGhost;
},
{
horizontal = 1;
place = "{-162.724, 21}";
target = up;
type = BottomGhost;
},
{
place = "{128.276, -102.071}";
type = Stem;
},
{
horizontal = 1;
place = "{592.702, -102.071}";
type = Stem;
}
);
layerId = "6E968933-CD79-43C6-9231-80D77C940F4D";
paths = (
{
closed = 1;
nodes = (
"623.515 700 LINE",
"189.515 700 LINE",
"50.276 0 LINE",
"484.276 0 LINE",
"488.255 20 LINE",
"76.255 20 LINE",
"141.896 350 LINE",
"463.896 350 LINE",
"467.874 370 LINE",
"145.874 370 LINE",
"207.537 680 LINE",
"619.537 680 LINE"
);
},
{
closed = 1;
nodes = (
"438.936 757.415 OFFCURVE",
"455.704 771.335 OFFCURVE",
"458.869 787.244 CURVE SMOOTH",
"462.231 804.147 OFFCURVE",
"451 818.067 OFFCURVE",
"434 818.067 CURVE SMOOTH",
"418 818.067 OFFCURVE",
"401.231 804.147 OFFCURVE",
"397.869 787.244 CURVE SMOOTH",
"394.704 771.335 OFFCURVE",
"405.936 757.415 OFFCURVE",
"421.936 757.415 CURVE SMOOTH"
);
}
);
width = 614;
},
{
anchors = (
{
name = bottom;
position = "{258.468, 1}";
},
{
name = ogonek;
position = "{480.468, 1}";
},
{
name = top;
position = "{401.906, 702}";
}
);
hints = (
{
place = "{-128.331, -5.331}";
type = Stem;
},
{
horizontal = 1;
place = "{-181.331, -40.331}";
type = Stem;
},
{
horizontal = 1;
place = "{104.669, -40.331}";
type = Stem;
},
{
horizontal = 1;
place = "{377.669, -40.331}";
type = Stem;
},
{
place = "{52.669, -32.186}";
type = Stem;
},
{
horizontal = 1;
place = "{581.135, -32.186}";
type = Stem;
}
);
layerId = "BAF31694-0472-4296-B0EA-1654553C45D2";
paths = (
{
closed = 1;
nodes = (
"669.508 700 LINE",
"144.508 700 LINE",
"5.269 0 LINE",
"530.26 0 LINE",
"559.311 146 LINE",
"208.311 146 LINE",
"236.357 287 LINE",
"485.357 287 LINE",
"512.409 423 LINE",
"263.409 423 LINE",
"289.467 554 LINE",
"640.467 554 LINE"
);
},
{
closed = 1;
nodes = (
"454.183 762.466 OFFCURVE",
"493.512 794.284 OFFCURVE",
"501.819 836.044 CURVE SMOOTH",
"510.323 878.799 OFFCURVE",
"483.85 911.611 OFFCURVE",
"440.85 911.611 CURVE SMOOTH",
"398.85 911.611 OFFCURVE",
"360.323 878.799 OFFCURVE",
"351.819 836.044 CURVE SMOOTH",
"343.512 794.284 OFFCURVE",
"369.183 762.466 OFFCURVE",
"411.183 762.466 CURVE SMOOTH"
);
}
);
width = 614.99962;
},
{
anchors = (
{
name = bottom;
position = "{252.271, 0}";
},
{
name = ogonek;
position = "{449.271, 0}";
},
{
name = top;
position = "{407.913, 697}";
}
);
hints = (
{
place = "{251.421, -105.579}";
type = Stem;
},
{
horizontal = 1;
place = "{85.421, -20}";
target = down;
type = TopGhost;
},
{
horizontal = 1;
place = "{-171.579, 21}";
target = up;
type = BottomGhost;
},
{
place = "{100.421, -73.363}";
type = Stem;
},
{
horizontal = 1;
place = "{593.792, -73.363}";
type = Stem;
}
);
layerId = "9F107B1E-3A61-4335-981B-27DD48125C7E";
paths = (
{
closed = 1;
nodes = (
"638.51 700 LINE",
"179.51 700 LINE",
"40.271 0 LINE",
"499.271 0 LINE",
"513.195 70 LINE",
"134.195 70 LINE",
"184.122 321 LINE",
"473.122 321 LINE",
"487.046 391 LINE",
"198.046 391 LINE",
"245.586 630 LINE",
"624.586 630 LINE"
);
},
{
closed = 1;
nodes = (
"450.814 764.368 OFFCURVE",
"477 785.415 OFFCURVE",
"482.383 812.474 CURVE SMOOTH",
"487.765 839.533 OFFCURVE",
"470.35 862.584 OFFCURVE",
"443.35 862.584 CURVE SMOOTH",
"415.35 862.584 OFFCURVE",
"389.765 839.533 OFFCURVE",
"384.383 812.474 CURVE SMOOTH",
"379 785.415 OFFCURVE",
"395.814 764.368 OFFCURVE",
"423.814 764.368 CURVE SMOOTH"
);
}
);
width = 619.00375;
}
);
leftMetricsKey = H;
rightMetricsKey = E;
unicode = 0116;
},
{
glyphname = Egrave;
lastChange = "2021-08-28 16:04:17 +0000";
layers = (
{
anchors = (
{
name = bottom;
position = "{262.268, 0}";
},
{
name = ogonek;
position = "{459.268, 0}";
},
{
name = top;
position = "{411.706, 701}";
}
);
hints = (
{
place = "{-103.312, -74.312}";
type = Stem;
},
{
horizontal = 1;
place = "{-188.312, -95.312}";
type = Stem;
},
{
horizontal = 1;
place = "{119.688, -95.312}";
type = Stem;
},
{
horizontal = 1;
place = "{418.688, -95.312}";
type = Stem;
}
);
layerId = "0CF0EA28-C756-4A9E-9D7C-CFEF350B4CFE";
paths = (
{
closed = 1;
nodes = (
"648.507 700 LINE",
"174.507 700 LINE",
"35.268 0 LINE",
"509.268 0 LINE",
"528.165 95 LINE",
"168.165 95 LINE",
"210.334 307 LINE",
"480.334 307 LINE",
"499.231 402 LINE",
"229.231 402 LINE",
"269.61 605 LINE",
"629.61 605 LINE"
);
},
{
closed = 1;
nodes = (
"323.351 850.036 LINE",
"522.518 740.273 LINE",
"539.343 824.861 LINE",
"342.58 946.708 LINE"
);
}
);
width = 624;
},
{
anchors = (
{
name = bottom;
position = "{238.27, 0}";
},
{
name = ogonek;
position = "{434.27, 0}";
},
{
name = top;
position = "{404.52, 690}";
}
);
background = {
hints = (
{
horizontal = 1;
place = "{0, 48}";
type = Stem;
},
{
horizontal = 1;
place = "{329, 48}";
type = Stem;
},
{
horizontal = 1;
place = "{652, 48}";
type = Stem;
},
{
horizontal = 1;
place = "{765, 21}";
type = Stem;
},
{
horizontal = 1;
place = "{878, 20}";
type = Stem;
},
{
place = "{104, 52}";
type = Stem;
}
);
paths = (
{
closed = 1;
nodes = (
"734.06 0 LINE",
"734.06 48 LINE",
"283.06 48 LINE",
"283.06 329 LINE",
"684.06 329 LINE",
"684.06 377 LINE",
"283.06 377 LINE",
"283.06 652 LINE",
"729.06 652 LINE",
"729.06 700 LINE",
"231.06 700 LINE",
"231.06 0 LINE"
);
},
{
closed = 1;
nodes = (
"476.06 765 LINE",
"518.06 765 LINE",
"430.06 898 LINE",
"369.06 868 LINE"
);
}
);
};
hints = (
{
place = "{-60.79, -154.79}";
type = Stem;
},
{
horizontal = 1;
place = "{508.21, -20}";
target = down;
type = TopGhost;
},
{
horizontal = 1;
place = "{-176.79, 21}";
target = up;
type = BottomGhost;
}
);
layerId = "6E968933-CD79-43C6-9231-80D77C940F4D";
paths = (
{
closed = 1;
nodes = (
"623.509 700 LINE",
"189.509 700 LINE",
"50.27 0 LINE",
"484.27 0 LINE",
"488.249 20 LINE",
"76.249 20 LINE",
"141.89 350 LINE",
"463.89 350 LINE",
"467.868 370 LINE",
"145.868 370 LINE",
"207.531 680 LINE",
"619.531 680 LINE"
);
},
{
closed = 1;
nodes = (
"336.116 863.924 LINE",
"497.404 734.665 LINE",
"501.558 755.546 LINE",
"341.06 888.782 LINE"
);
}
);
width = 614;
},
{
anchors = (
{
name = bottom;
position = "{258.471, 1}";
},
{
name = ogonek;
position = "{480.471, 1}";
},
{
name = top;
position = "{401.909, 702}";
}
);
hints = (
{
place = "{-140.197, -17.197}";
type = Stem;
},
{
horizontal = 1;
place = "{-193.197, -52.197}";
type = Stem;
},
{
horizontal = 1;
place = "{92.803, -52.197}";
type = Stem;
},
{
horizontal = 1;
place = "{365.803, -52.197}";
type = Stem;
}
);
layerId = "BAF31694-0472-4296-B0EA-1654553C45D2";
paths = (
{
closed = 1;
nodes = (
"669.511 700 LINE",
"144.511 700 LINE",
"5.273 0 LINE",
"530.264 0 LINE",
"559.314 146 LINE",
"208.314 146 LINE",
"236.36 287 LINE",
"485.36 287 LINE",
"512.413 423 LINE",
"263.413 423 LINE",
"289.47 554 LINE",
"640.47 554 LINE"
);
},
{
closed = 1;
nodes = (
"301.822 836.044 LINE",
"525.242 737.608 LINE",
"549.173 857.919 LINE",
"328.72 971.269 LINE"
);
}
);
width = 614.99962;
},
{
anchors = (
{
name = bottom;
position = "{252.276, 0}";
},
{
name = ogonek;
position = "{449.276, 0}";
},
{
name = top;
position = "{407.918, 697}";
}
);
hints = (
{
place = "{238.866, -118.134}";
type = Stem;
},
{
horizontal = 1;
place = "{72.866, -20}";
target = down;
type = TopGhost;
},
{
horizontal = 1;
place = "{-184.134, 21}";
target = up;
type = BottomGhost;
}
);
layerId = "9F107B1E-3A61-4335-981B-27DD48125C7E";
paths = (
{
closed = 1;
nodes = (
"638.514 700 LINE",
"179.514 700 LINE",
"40.276 0 LINE",
"499.276 0 LINE",
"513.2 70 LINE",
"134.2 70 LINE",
"184.127 321 LINE",
"473.127 321 LINE",
"487.051 391 LINE",
"198.051 391 LINE",
"245.591 630 LINE",
"624.591 630 LINE"
);
},
{
closed = 1;
nodes = (
"328.155 856.553 LINE",
"513.03 740.298 LINE",
"524.991 800.43 LINE",
"341.91 925.705 LINE"
);
}
);
width = 619.00375;
}
);
leftMetricsKey = H;
rightMetricsKey = E;
unicode = 00C8;
},
{
glyphname = Emacron;
lastChange = "2021-08-28 16:04:17 +0000";
layers = (
{
anchors = (
{
name = bottom;
position = "{262.271, 0}";
},
{
name = ogonek;
position = "{459.271, 0}";
},
{
name = top;
position = "{411.708, 701}";
}
);
hints = (
{
place = "{-88.289, -59.289}";
type = Stem;
},
{
horizontal = 1;
place = "{-173.289, -80.289}";
type = Stem;
},
{
horizontal = 1;
place = "{134.711, -80.289}";
type = Stem;
},
{
horizontal = 1;
place = "{433.711, -80.289}";
type = Stem;
},
{
horizontal = 1;
place = "{612.299, -87.694}";
type = Stem;
}
);
layerId = "0CF0EA28-C756-4A9E-9D7C-CFEF350B4CFE";
paths = (
{
closed = 1;
nodes = (
"648.51 700 LINE",
"174.51 700 LINE",
"35.271 0 LINE",
"509.271 0 LINE",
"528.168 95 LINE",
"168.168 95 LINE",
"210.337 307 LINE",
"480.337 307 LINE",
"499.234 402 LINE",
"229.234 402 LINE",
"269.613 605 LINE",
"629.613 605 LINE"
);
},
{
closed = 1;
nodes = (
"245.534 785.588 LINE",
"611.534 785.588 LINE",
"628.56 871.183 LINE",
"262.56 871.183 LINE"
);
}
);
width = 624;
},
{
anchors = (
{
name = bottom;
position = "{238.273, 0}";
},
{
name = ogonek;
position = "{434.273, 0}";
},
{
name = top;
position = "{404.522, 690}";
}
);
hints = (
{
place = "{-48.527, -142.527}";
type = Stem;
},
{
horizontal = 1;
place = "{520.473, -20}";
target = down;
type = TopGhost;
},
{
horizontal = 1;
place = "{-164.527, 21}";
target = up;
type = BottomGhost;
},
{
horizontal = 1;
place = "{629.796, 21}";
target = up;
type = BottomGhost;
},
{
horizontal = 1;
place = "{647.693, -20}";
target = down;
type = TopGhost;
}
);
layerId = "6E968933-CD79-43C6-9231-80D77C940F4D";
paths = (
{
closed = 1;
nodes = (
"623.511 700 LINE",
"189.511 700 LINE",
"50.273 0 LINE",
"484.273 0 LINE",
"488.251 20 LINE",
"76.251 20 LINE",
"141.892 350 LINE",
"463.892 350 LINE",
"467.87 370 LINE",
"145.87 370 LINE",
"207.533 680 LINE",
"619.533 680 LINE"
);
},
{
closed = 1;
nodes = (
"276.844 807.249 LINE",
"586.844 807.249 LINE",
"590.8 827.135 LINE",
"280.8 827.135 LINE"
);
}
);
width = 614;
},
{
anchors = (
{
name = bottom;
position = "{258.469, 1}";
},
{
name = ogonek;
position = "{480.469, 1}";
},
{
name = top;
position = "{401.907, 702}";
}
);
hints = (
{
place = "{-123.98, -0.98}";
type = Stem;
},
{
horizontal = 1;
place = "{-176.98, -35.98}";
type = Stem;
},
{
horizontal = 1;
place = "{109.02, -35.98}";
type = Stem;
},
{
horizontal = 1;
place = "{382.02, -35.98}";
type = Stem;
},
{
horizontal = 1;
place = "{593.441, -56.669}";
type = Stem;
}
);
layerId = "BAF31694-0472-4296-B0EA-1654553C45D2";
paths = (
{
closed = 1;
nodes = (
"669.509 700 LINE",
"144.509 700 LINE",
"5.27 0 LINE",
"530.261 0 LINE",
"559.312 146 LINE",
"208.312 146 LINE",
"236.358 287 LINE",
"485.358 287 LINE",
"512.41 423 LINE",
"263.41 423 LINE",
"289.468 554 LINE",
"640.468 554 LINE"
);
},
{
closed = 1;
nodes = (
"212.767 770.42 LINE",
"615.767 770.42 LINE",
"639.5 889.736 LINE",
"236.5 889.736 LINE"
);
}
);
width = 614.99962;
},
{
anchors = (
{
name = bottom;
position = "{252.27, 0}";
},
{
name = ogonek;
position = "{449.27, 0}";
},
{
name = top;
position = "{407.912, 697}";
}
);
hints = (
{
place = "{253.02, -103.98}";
type = Stem;
},
{
horizontal = 1;
place = "{87.02, -20}";
target = down;
type = TopGhost;
},
{
horizontal = 1;
place = "{-169.98, 21}";
target = up;
type = BottomGhost;
},
{
horizontal = 1;
place = "{221.552, 21}";
target = up;
type = BottomGhost;
},
{
horizontal = 1;
place = "{228.567, -20}";
target = down;
type = TopGhost;
}
);
layerId = "9F107B1E-3A61-4335-981B-27DD48125C7E";
paths = (
{
closed = 1;
nodes = (
"638.508 700 LINE",
"179.508 700 LINE",
"40.27 0 LINE",
"499.27 0 LINE",
"513.194 70 LINE",
"134.194 70 LINE",
"184.121 321 LINE",
"473.121 321 LINE",
"487.044 391 LINE",
"198.044 391 LINE",
"245.584 630 LINE",
"624.584 630 LINE"
);
},
{
closed = 1;
nodes = (
"257.789 794.417 LINE",
"602.789 794.417 LINE",
"614.75 854.549 LINE",
"269.75 854.549 LINE"
);
}
);
width = 618.99375;
}
);
leftMetricsKey = H;
rightMetricsKey = E;
unicode = 0112;
},
{
glyphname = Eogonek;
lastChange = "2021-08-28 16:04:17 +0000";
layers = (
{
anchors = (
{
name = bottom;
position = "{262.271, 0}";
},
{
name = ogonek;
position = "{459.271, 0}";
},
{
name = top;
position = "{411.709, 701}";
}
);
hints = (
{
place = "{-54.239, -25.239}";
type = Stem;
},
{
horizontal = 1;
place = "{-139.239, -46.239}";
type = Stem;
},
{
horizontal = 1;
place = "{168.761, -46.239}";
type = Stem;
},
{
horizontal = 1;
place = "{467.761, -46.239}";
type = Stem;
},
{
place = "{161.761, -45.588}";
type = Stem;
},
{
place = "{161.761, 76.259}";
type = Stem;
},
{
horizontal = 1;
place = "{-351.716, -64.721}";
type = Stem;
}
);
layerId = "0CF0EA28-C756-4A9E-9D7C-CFEF350B4CFE";
paths = (
{
closed = 1;
nodes = (
"648.51 700 LINE",
"174.51 700 LINE",
"35.271 0 LINE",
"509.271 0 LINE",
"528.168 95 LINE",
"168.168 95 LINE",
"210.337 307 LINE",
"480.337 307 LINE",
"499.234 402 LINE",
"229.234 402 LINE",
"269.613 605 LINE",
"629.613 605 LINE"
);
},
{
closed = 1;
nodes = (
"386.833 39.273 LINE SMOOTH",
"284.22 -4.028 OFFCURVE",
"241.605 -52.364 OFFCURVE",
"231.39 -103.721 CURVE SMOOTH",
"215.366 -184.281 OFFCURVE",
"279.757 -212.477 OFFCURVE",
"342.757 -212.477 CURVE SMOOTH",
"371.757 -212.477 OFFCURVE",
"401.959 -206.435 OFFCURVE",
"426.762 -197.372 CURVE",
"441.384 -123.861 LINE",
"416.581 -132.924 OFFCURVE",
"391.58 -137.959 OFFCURVE",
"372.58 -137.959 CURVE SMOOTH",
"338.58 -137.959 OFFCURVE",
"321.185 -119.833 OFFCURVE",
"326.794 -91.637 CURVE SMOOTH",
"331.601 -67.469 OFFCURVE",
"349.607 -47.329 OFFCURVE",
"397.014 -25.175 CURVE SMOOTH",
"451.021 0 LINE",
"432.639 58.406 LINE"
);
}
);
width = 624;
},
{
anchors = (
{
name = bottom;
position = "{238.271, 0}";
},
{
name = ogonek;
position = "{434.271, 0}";
},
{
name = top;
position = "{404.521, 690}";
}
);
hints = (
{
place = "{-23.239, -117.239}";
type = Stem;
},
{
horizontal = 1;
place = "{545.761, -20}";
target = down;
type = TopGhost;
},
{
horizontal = 1;
place = "{-139.239, 21}";
target = up;
type = BottomGhost;
},
{
place = "{127.761, -118.358}";
type = Stem;
},
{
horizontal = 1;
place = "{-324.178, 21}";
target = up;
type = BottomGhost;
}
);
layerId = "6E968933-CD79-43C6-9231-80D77C940F4D";
paths = (
{
closed = 1;
nodes = (
"623.51 700 LINE",
"189.51 700 LINE",
"50.271 0 LINE",
"484.271 0 LINE",
"488.25 20 LINE",
"76.25 20 LINE",
"141.891 350 LINE",
"463.891 350 LINE",
"467.869 370 LINE",
"145.869 370 LINE",
"207.532 680 LINE",
"619.532 680 LINE"
);
},
{
closed = 1;
nodes = (
"306.305 -14.915 LINE SMOOTH",
"237.767 -42.755 OFFCURVE",
"207.042 -76.561 OFFCURVE",
"199.329 -115.339 CURVE SMOOTH",
"189.242 -166.048 OFFCURVE",
"223.693 -188.917 OFFCURVE",
"274.693 -188.917 CURVE SMOOTH",
"294.693 -188.917 OFFCURVE",
"317.485 -184.94 OFFCURVE",
"340.067 -176.985 CURVE",
"344.22 -156.105 LINE",
"321.638 -164.059 OFFCURVE",
"298.649 -169.031 OFFCURVE",
"278.649 -169.031 CURVE SMOOTH",
"239.649 -169.031 OFFCURVE",
"213.011 -152.128 OFFCURVE",
"220.725 -113.35 CURVE SMOOTH",
"226.262 -85.51 OFFCURVE",
"249.998 -56.675 OFFCURVE",
"306.745 -32.812 CURVE SMOOTH",
"384.271 0 LINE",
"380.436 15.909 LINE"
);
}
);
width = 614;
},
{
anchors = (
{
name = bottom;
position = "{258.47, 1}";
},
{
name = ogonek;
position = "{480.47, 1}";
},
{
name = top;
position = "{401.908, 702}";
}
);
hints = (
{
place = "{-86.239, 36.761}";
type = Stem;
},
{
horizontal = 1;
place = "{-139.239, 1.761}";
type = Stem;
},
{
horizontal = 1;
place = "{146.761, 1.761}";
type = Stem;
},
{
horizontal = 1;
place = "{419.761, 1.761}";
type = Stem;
},
{
place = "{143.761, -100.461}";
type = Stem;
},
{
place = "{145.761, 39.735}";
type = Stem;
},
{
horizontal = 1;
place = "{-354.996, -41.797}";
type = Stem;
}
);
layerId = "BAF31694-0472-4296-B0EA-1654553C45D2";
paths = (
{
closed = 1;
nodes = (
"669.51 700 LINE",
"144.51 700 LINE",
"5.271 0 LINE",
"530.262 0 LINE",
"559.313 146 LINE",
"208.313 146 LINE",
"236.359 287 LINE",
"485.359 287 LINE",
"512.411 423 LINE",
"263.411 423 LINE",
"289.469 554 LINE",
"640.469 554 LINE"
);
},
{
closed = 1;
nodes = (
"414.983 62.647 LINE SMOOTH",
"274.302 8.954 OFFCURVE",
"228.216 -41.755 OFFCURVE",
"216.349 -101.413 CURVE SMOOTH",
"201.12 -177.974 OFFCURVE",
"257.605 -215.757 OFFCURVE",
"342.605 -215.757 CURVE SMOOTH",
"379.605 -215.757 OFFCURVE",
"414.791 -209.792 OFFCURVE",
"445.769 -199.849 CURVE",
"464.954 -103.401 LINE",
"433.976 -113.344 OFFCURVE",
"405.987 -118.316 OFFCURVE",
"384.987 -118.316 CURVE SMOOTH",
"357.987 -118.316 OFFCURVE",
"344.558 -105.39 OFFCURVE",
"348.316 -86.498 CURVE SMOOTH",
"352.667 -64.624 OFFCURVE",
"374.227 -46.726 OFFCURVE",
"429.171 -21.869 CURVE SMOOTH",
"478.72 1 LINE",
"457.345 79.55 LINE"
);
}
);
width = 614.99962;
},
{
anchors = (
{
name = bottom;
position = "{252.271, 0}";
},
{
name = ogonek;
position = "{449.271, 0}";
},
{
name = top;
position = "{407.913, 697}";
}
);
hints = (
{
place = "{283.761, -73.239}";
type = Stem;
},
{
horizontal = 1;
place = "{117.761, -20}";
target = down;
type = TopGhost;
},
{
horizontal = 1;
place = "{-139.239, 21}";
target = up;
type = BottomGhost;
},
{
place = "{9.761, -85.12}";
type = Stem;
},
{
horizontal = 1;
place = "{-209.393, 21}";
target = up;
type = BottomGhost;
}
);
layerId = "9F107B1E-3A61-4335-981B-27DD48125C7E";
paths = (
{
closed = 1;
nodes = (
"638.51 700 LINE",
"179.51 700 LINE",
"40.271 0 LINE",
"499.271 0 LINE",
"513.195 70 LINE",
"134.195 70 LINE",
"184.122 321 LINE",
"473.122 321 LINE",
"487.046 391 LINE",
"198.046 391 LINE",
"245.586 630 LINE",
"624.586 630 LINE"
);
},
{
closed = 1;
nodes = (
"356.559 19.042 LINE SMOOTH",
"266.984 -19.042 OFFCURVE",
"228.611 -61.134 OFFCURVE",
"219.242 -108.238 CURVE SMOOTH",
"205.486 -177.389 OFFCURVE",
"258.303 -203.447 OFFCURVE",
"317.303 -203.447 CURVE SMOOTH",
"342.303 -203.447 OFFCURVE",
"370.3 -198.436 OFFCURVE",
"394.094 -189.416 CURVE",
"404.66 -136.299 LINE",
"381.065 -144.317 OFFCURVE",
"357.068 -149.328 OFFCURVE",
"337.068 -149.328 CURVE SMOOTH",
"301.068 -149.328 OFFCURVE",
"280.457 -132.29 OFFCURVE",
"286.836 -100.22 CURVE SMOOTH",
"292.019 -74.163 OFFCURVE",
"311.604 -51.112 OFFCURVE",
"363.19 -28.062 CURVE SMOOTH",
"425.771 0 LINE",
"413.144 42.092 LINE"
);
}
);
width = 619.00375;
}
);
leftMetricsKey = H;
rightMetricsKey = E;
unicode = 0118;
},
{
glyphname = Etilde;
lastChange = "2021-08-28 16:04:17 +0000";
layers = (
{
anchors = (
{
name = bottom;
position = "{262.269, 0}";
},
{
name = ogonek;
position = "{459.269, 0}";
},
{
name = top;
position = "{411.707, 701}";
}
);
hints = (
{
place = "{-89.291, -60.291}";
type = Stem;
},
{
horizontal = 1;
place = "{-174.291, -81.291}";
type = Stem;
},
{
horizontal = 1;
place = "{133.709, -81.291}";
type = Stem;
},
{
horizontal = 1;
place = "{432.709, -81.291}";
type = Stem;
},
{
horizontal = 1;
place = "{582.094, -98.766}";
type = Stem;
},
{
horizontal = 1;
place = "{584.108, -56.472}";
type = Stem;
},
{
horizontal = 1;
place = "{627.409, -99.773}";
type = Stem;
},
{
horizontal = 1;
place = "{582.094, -56.472}";
type = Stem;
}
);
layerId = "0CF0EA28-C756-4A9E-9D7C-CFEF350B4CFE";
paths = (
{
closed = 1;
nodes = (
"648.508 700 LINE",
"174.508 700 LINE",
"35.269 0 LINE",
"509.269 0 LINE",
"528.166 95 LINE",
"168.166 95 LINE",
"210.336 307 LINE",
"480.336 307 LINE",
"499.232 402 LINE",
"229.232 402 LINE",
"269.611 605 LINE",
"629.611 605 LINE"
);
},
{
closed = 1;
nodes = (
"324.124 758.399 LINE",
"333.933 787.602 OFFCURVE",
"353.737 801.7 OFFCURVE",
"375.737 801.7 CURVE SMOOTH",
"415.737 801.7 OFFCURVE",
"428.724 756.385 OFFCURVE",
"482.724 756.385 CURVE SMOOTH",
"540.724 756.385 OFFCURVE",
"592.335 794.651 OFFCURVE",
"619.159 874.204 CURVE",
"555.159 874.204 LINE",
"545.351 845.001 OFFCURVE",
"525.747 831.91 OFFCURVE",
"503.747 831.91 CURVE SMOOTH",
"463.747 831.91 OFFCURVE",
"450.56 876.218 OFFCURVE",
"396.56 876.218 CURVE SMOOTH",
"338.56 876.218 OFFCURVE",
"286.948 837.952 OFFCURVE",
"260.124 758.399 CURVE"
);
}
);
width = 624;
},
{
anchors = (
{
name = bottom;
position = "{238.267, 0}";
},
{
name = ogonek;
position = "{434.267, 0}";
},
{
name = top;
position = "{404.517, 690}";
}
);
hints = (
{
place = "{-47.143, -141.143}";
type = Stem;
},
{
horizontal = 1;
place = "{521.857, -20}";
target = down;
type = TopGhost;
},
{
horizontal = 1;
place = "{-163.143, 21}";
target = up;
type = BottomGhost;
},
{
horizontal = 1;
place = "{575.5, 21}";
target = up;
type = BottomGhost;
},
{
horizontal = 1;
place = "{642.118, -20}";
target = down;
type = TopGhost;
}
);
layerId = "6E968933-CD79-43C6-9231-80D77C940F4D";
paths = (
{
closed = 1;
nodes = (
"623.506 700 LINE",
"189.506 700 LINE",
"50.267 0 LINE",
"484.267 0 LINE",
"488.245 20 LINE",
"76.245 20 LINE",
"141.886 350 LINE",
"463.886 350 LINE",
"467.865 370 LINE",
"145.865 370 LINE",
"207.527 680 LINE",
"619.527 680 LINE"
);
},
{
closed = 1;
nodes = (
"323.159 753.557 LINE",
"333.686 786.369 OFFCURVE",
"351.652 801.284 OFFCURVE",
"374.652 801.284 CURVE SMOOTH",
"416.652 801.284 OFFCURVE",
"420.763 751.569 OFFCURVE",
"472.763 751.569 CURVE SMOOTH",
"506.763 751.569 OFFCURVE",
"539.499 780.403 OFFCURVE",
"548.817 817.192 CURVE",
"529.817 817.192 LINE",
"519.686 786.369 OFFCURVE",
"497.521 770.46 OFFCURVE",
"476.521 770.46 CURVE SMOOTH",
"429.521 770.46 OFFCURVE",
"428.41 820.175 OFFCURVE",
"378.41 820.175 CURVE SMOOTH",
"343.41 820.175 OFFCURVE",
"317.268 794.323 OFFCURVE",
"304.159 753.557 CURVE"
);
}
);
width = 614;
},
{
anchors = (
{
name = bottom;
position = "{258.467, 1}";
},
{
name = ogonek;
position = "{480.467, 1}";
},
{
name = top;
position = "{401.905, 702}";
}
);
hints = (
{
place = "{-125.562, -2.562}";
type = Stem;
},
{
horizontal = 1;
place = "{-178.562, -37.562}";
type = Stem;
},
{
horizontal = 1;
place = "{107.438, -37.562}";
type = Stem;
},
{
horizontal = 1;
place = "{380.438, -37.562}";
type = Stem;
},
{
horizontal = 1;
place = "{222.973, -146.744}";
type = Stem;
},
{
horizontal = 1;
place = "{569.984, -56.263}";
type = Stem;
},
{
horizontal = 1;
place = "{613.733, -73.166}";
type = Stem;
},
{
horizontal = 1;
place = "{567.995, -28.423}";
type = Stem;
}
);
layerId = "BAF31694-0472-4296-B0EA-1654553C45D2";
paths = (
{
closed = 1;
nodes = (
"669.507 700 LINE",
"144.507 700 LINE",
"5.268 0 LINE",
"530.259 0 LINE",
"559.309 146 LINE",
"208.309 146 LINE",
"236.356 287 LINE",
"485.356 287 LINE",
"512.408 423 LINE",
"263.408 423 LINE",
"289.466 554 LINE",
"640.466 554 LINE"
);
},
{
closed = 1;
nodes = (
"295.215 747.552 LINE",
"306.347 778.375 OFFCURVE",
"325.115 792.295 OFFCURVE",
"348.115 792.295 CURVE SMOOTH",
"388.115 792.295 OFFCURVE",
"411.215 747.552 OFFCURVE",
"472.215 747.552 CURVE SMOOTH",
"543.215 747.552 OFFCURVE",
"603.72 790.306 OFFCURVE",
"641.882 896.697 CURVE",
"551.882 896.697 LINE",
"541.949 866.867 OFFCURVE",
"522.982 851.953 OFFCURVE",
"499.982 851.953 CURVE SMOOTH",
"459.982 851.953 OFFCURVE",
"437.08 897.691 OFFCURVE",
"377.08 897.691 CURVE SMOOTH",
"305.08 897.691 OFFCURVE",
"244.378 853.942 OFFCURVE",
"206.215 747.552 CURVE"
);
}
);
width = 614.99962;
},
{
anchors = (
{
name = bottom;
position = "{252.27, 0}";
},
{
name = ogonek;
position = "{449.27, 0}";
},
{
name = top;
position = "{407.912, 697}";
}
);
hints = (
{
place = "{252.82, -104.18}";
type = Stem;
},
{
horizontal = 1;
place = "{86.82, -20}";
target = down;
type = TopGhost;
},
{
horizontal = 1;
place = "{-170.18, 21}";
target = up;
type = BottomGhost;
},
{
horizontal = 1;
place = "{200.307, 21}";
target = up;
type = BottomGhost;
},
{
horizontal = 1;
place = "{225.362, -20}";
target = down;
type = TopGhost;
}
);
layerId = "9F107B1E-3A61-4335-981B-27DD48125C7E";
paths = (
{
closed = 1;
nodes = (
"638.509 700 LINE",
"179.509 700 LINE",
"40.27 0 LINE",
"499.27 0 LINE",
"513.194 70 LINE",
"134.194 70 LINE",
"184.121 321 LINE",
"473.121 321 LINE",
"487.045 391 LINE",
"198.045 391 LINE",
"245.585 630 LINE",
"624.585 630 LINE"
);
},
{
closed = 1;
nodes = (
"323.812 759.34 LINE",
"333.793 789.406 OFFCURVE",
"352.185 801.432 OFFCURVE",
"375.185 801.432 CURVE SMOOTH",
"415.185 801.432 OFFCURVE",
"425.015 755.331 OFFCURVE",
"479.015 755.331 CURVE SMOOTH",
"528.015 755.331 OFFCURVE",
"571.394 787.401 OFFCURVE",
"591.953 850.54 CURVE",
"544.953 850.54 LINE",
"535.172 821.476 OFFCURVE",
"514.78 809.45 OFFCURVE",
"492.78 809.45 CURVE SMOOTH",
"450.78 809.45 OFFCURVE",
"441.95 855.551 OFFCURVE",
"388.95 855.551 CURVE SMOOTH",
"339.95 855.551 OFFCURVE",
"298.571 823.481 OFFCURVE",
"276.812 759.34 CURVE"
);
}
);
width = 618.99375;
}
);
leftMetricsKey = E;
rightMetricsKey = E;
unicode = 1EBC;
},
{
glyphname = F;
lastChange = "2021-08-28 16:04:17 +0000";
layers = (
{
hints = (
{
place = "{-54.239, -25.239}";
type = Stem;
},
{
horizontal = 1;
place = "{166.761, -46.239}";
type = Stem;
},
{
horizontal = 1;
place = "{467.761, -46.239}";
type = Stem;
},
{
horizontal = 1;
place = "{-139.239, 21}";
target = up;
type = BottomGhost;
}
);
layerId = "0CF0EA28-C756-4A9E-9D7C-CFEF350B4CFE";
paths = (
{
closed = 1;
nodes = (
"35.271 0 LINE",
"149.271 0 LINE",
"210.337 307 LINE",
"480.337 307 LINE",
"499.234 402 LINE",
"229.234 402 LINE",
"269.613 605 LINE",
"629.613 605 LINE",
"648.51 700 LINE",
"174.51 700 LINE"
);
}
);
width = 602.286;
},
{
background = {
hints = (
{
horizontal = 1;
place = "{0, 21}";
type = Stem;
},
{
horizontal = 1;
place = "{317, 48}";
type = Stem;
},
{
horizontal = 1;
place = "{652, 48}";
type = Stem;
},
{
place = "{104, 52}";
type = Stem;
}
);
paths = (
{
closed = 1;
nodes = (
"690.51 652 LINE",
"690.51 700 LINE",
"197.51 700 LINE",
"197.51 0 LINE",
"249.51 0 LINE",
"249.51 317 LINE",
"645.51 317 LINE",
"645.51 365 LINE",
"249.51 365 LINE",
"249.51 652 LINE"
);
}
);
};
hints = (
{
place = "{-23.239, -117.239}";
type = Stem;
},
{
horizontal = 1;
place = "{545.761, -20}";
target = down;
type = TopGhost;
},
{
horizontal = 1;
place = "{-139.239, 21}";
target = up;
type = BottomGhost;
}
);
layerId = "6E968933-CD79-43C6-9231-80D77C940F4D";
paths = (
{
closed = 1;
nodes = (
"50.271 0 LINE",
"72.271 0 LINE",
"141.891 350 LINE",
"463.891 350 LINE",
"467.869 370 LINE",
"145.869 370 LINE",
"207.532 680 LINE",
"619.532 680 LINE",
"623.51 700 LINE",
"189.51 700 LINE"
);
}
);
width = 587.2825;
},
{
hints = (
{
place = "{-86.239, 36.761}";
type = Stem;
},
{
horizontal = 1;
place = "{141.761, -3.239}";
type = Stem;
},
{
horizontal = 1;
place = "{419.761, 1.761}";
type = Stem;
},
{
horizontal = 1;
place = "{-139.239, 21}";
target = up;
type = BottomGhost;
}
);
layerId = "BAF31694-0472-4296-B0EA-1654553C45D2";
paths = (
{
closed = 1;
nodes = (
"5.271 0 LINE",
"179.271 0 LINE",
"236.359 287 LINE",
"485.359 287 LINE",
"512.411 423 LINE",
"263.411 423 LINE",
"289.469 554 LINE",
"640.469 554 LINE",
"669.51 700 LINE",
"144.51 700 LINE"
);
}
);
width = 603.31045;
},
{
hints = (
{
place = "{283.761, -73.239}";
type = Stem;
},
{
horizontal = 1;
place = "{117.761, -20}";
target = down;
type = TopGhost;
},
{
horizontal = 1;
place = "{-139.239, 21}";
target = up;
type = BottomGhost;
}
);
layerId = "9F107B1E-3A61-4335-981B-27DD48125C7E";
paths = (
{
closed = 1;
nodes = (
"40.271 0 LINE",
"120.271 0 LINE",
"184.122 321 LINE",
"473.122 321 LINE",
"487.046 391 LINE",
"198.046 391 LINE",
"245.586 630 LINE",
"624.586 630 LINE",
"638.51 700 LINE",
"179.51 700 LINE"
);
}
);
width = 595.61935;
}
);
leftMetricsKey = H;
rightMetricsKey = "=E*0.666";
unicode = 0046;
},
{
glyphname = G;
lastChange = "2021-08-28 17:10:21 +0000";
layers = (
{
anchors = (
{
name = bottom;
position = "{341.769, 0}";
},
{
name = top;
position = "{481.207, 701}";
}
);
hints = (
{
place = "{-98.631, -23.631}";
type = Stem;
},
{
place = "{458.369, -18.631}";
type = Stem;
},
{
horizontal = 1;
place = "{-146.631, -37.631}";
type = Stem;
},
{
horizontal = 1;
place = "{151.369, -49.631}";
type = Stem;
},
{
horizontal = 1;
place = "{463.369, -36.631}";
type = Stem;
}
);
layerId = "0CF0EA28-C756-4A9E-9D7C-CFEF350B4CFE";
paths = (
{
closed = 1;
nodes = (
"765.203 520 LINE",
"735.272 641 OFFCURVE",
"621.4 707 OFFCURVE",
"488.4 707 CURVE SMOOTH",
"292.4 707 OFFCURVE",
"103.961 559 OFFCURVE",
"62.388 350 CURVE SMOOTH",
"20.617 140 OFFCURVE",
"150.377 -7 OFFCURVE",
"346.377 -7 CURVE SMOOTH",
"502.377 -7 OFFCURVE",
"646.472 89 OFFCURVE",
"719.336 214 CURVE",
"753.549 386 LINE",
"433.549 386 LINE",
"414.652 292 LINE",
"618.851 292 LINE",
"604.331 219 LINE",
"554.213 143 OFFCURVE",
"463.671 90 OFFCURVE",
"365.671 90 CURVE SMOOTH",
"227.671 90 OFFCURVE",
"147.756 196 OFFCURVE",
"178.388 350 CURVE SMOOTH",
"209.021 504 OFFCURVE",
"334.106 610 OFFCURVE",
"472.106 610 CURVE SMOOTH",
"560.781 610 OFFCURVE",
"626.373 573.242 OFFCURVE",
"657.844 483 CURVE"
);
}
);
width = 777.5;
},
{
anchors = (
{
name = bottom;
position = "{351.269, 0}";
},
{
name = top;
position = "{486.33, 679}";
}
);
background = {
hints = (
{
horizontal = 1;
place = "{-12, 46}";
type = Stem;
},
{
horizontal = 1;
place = "{315, 48}";
type = Stem;
},
{
horizontal = 1;
place = "{665, 47}";
type = Stem;
},
{
place = "{73, 54}";
type = Stem;
},
{
place = "{650, 50}";
type = Stem;
}
);
paths = (
{
closed = 1;
nodes = (
"792.9 363 LINE",
"508.9 363 LINE",
"508.9 315 LINE",
"742.9 315 LINE",
"742.9 114 LINE",
"691.9 71 OFFCURVE",
"608.9 34 OFFCURVE",
"519.9 34 CURVE SMOOTH",
"332.9 34 OFFCURVE",
"219.9 169 OFFCURVE",
"219.9 350 CURVE SMOOTH",
"219.9 352 LINE SMOOTH",
"219.9 521 OFFCURVE",
"338.9 665 OFFCURVE",
"508.9 665 CURVE SMOOTH",
"614.9 665 OFFCURVE",
"678.9 629 OFFCURVE",
"733.9 581 CURVE",
"767.9 620 LINE",
"697.9 678 OFFCURVE",
"625.9 712 OFFCURVE",
"511.9 712 CURVE SMOOTH",
"302.9 712 OFFCURVE",
"165.9 539 OFFCURVE",
"165.9 350 CURVE SMOOTH",
"165.9 348 LINE SMOOTH",
"165.9 151 OFFCURVE",
"296.9 -12 OFFCURVE",
"517.9 -12 CURVE SMOOTH",
"631.9 -12 OFFCURVE",
"729.9 37 OFFCURVE",
"792.9 93 CURVE"
);
}
);
};
hints = (
{
place = "{-76.631, -117.631}";
type = Stem;
},
{
horizontal = 1;
place = "{550.369, -20}";
target = down;
type = TopGhost;
},
{
horizontal = 1;
place = "{-148.631, 21}";
target = up;
type = BottomGhost;
}
);
layerId = "6E968933-CD79-43C6-9231-80D77C940F4D";
paths = (
{
closed = 1;
nodes = (
"741.515 509 LINE",
"714.385 629 OFFCURVE",
"625.9 707 OFFCURVE",
"477.9 707 CURVE SMOOTH",
"281.9 707 OFFCURVE",
"111.66 560 OFFCURVE",
"69.888 350 CURVE SMOOTH",
"28.117 140 OFFCURVE",
"139.877 -7 OFFCURVE",
"335.877 -7 CURVE SMOOTH",
"494.877 -7 OFFCURVE",
"637.37 91 OFFCURVE",
"707.008 240 CURVE",
"730.678 359 LINE",
"408.678 359 LINE",
"404.7 339 LINE",
"704.7 339 LINE",
"685.406 242 LINE",
"616.762 98 OFFCURVE",
"480.855 13 OFFCURVE",
"339.855 13 CURVE SMOOTH",
"164.855 13 OFFCURVE",
"50.316 141 OFFCURVE",
"91.888 350 CURVE SMOOTH",
"133.66 560 OFFCURVE",
"298.922 687 OFFCURVE",
"473.922 687 CURVE SMOOTH",
"613.922 687 OFFCURVE",
"700.407 609 OFFCURVE",
"722.123 502 CURVE"
);
}
);
width = 769.0006;
},
{
anchors = (
{
name = bottom;
position = "{325.968, 1}";
},
{
name = top;
position = "{465.405, 702}";
}
);
hints = (
{
place = "{-122.631, -90.631}";
type = Stem;
},
{
place = "{122.369, 40.369}";
type = Stem;
},
{
horizontal = 1;
place = "{-145.631, 15.369}";
type = Stem;
},
{
horizontal = 1;
place = "{126.369, -12.631}";
type = Stem;
},
{
horizontal = 1;
place = "{404.369, 21.369}";
type = Stem;
}
);
layerId = "BAF31694-0472-4296-B0EA-1654553C45D2";
paths = (
{
closed = 1;
nodes = (
"759.816 508 LINE",
"740.283 631 OFFCURVE",
"629.4 707 OFFCURVE",
"474.4 707 CURVE SMOOTH",
"263.4 707 OFFCURVE",
"88.961 559 OFFCURVE",
"47.388 350 CURVE SMOOTH",
"5.816 141 OFFCURVE",
"122.377 -7 OFFCURVE",
"334.377 -7 CURVE SMOOTH",
"505.377 -7 OFFCURVE",
"635.467 94 OFFCURVE",
"703.756 196 CURVE",
"744.533 401 LINE",
"416.533 401 LINE",
"389.481 265 LINE",
"557.481 265 LINE",
"551.712 236 LINE",
"507.374 179 OFFCURVE",
"447.816 141 OFFCURVE",
"376.816 141 CURVE SMOOTH",
"255.816 141 OFFCURVE",
"199.126 223 OFFCURVE",
"224.388 350 CURVE SMOOTH",
"247.86 468 OFFCURVE",
"342.961 559 OFFCURVE",
"450.961 559 CURVE SMOOTH",
"521.411 559 OFFCURVE",
"568.241 530.981 OFFCURVE",
"588.258 470 CURVE"
);
}
);
width = 747.50109;
},
{
anchors = (
{
name = bottom;
position = "{345.269, 0}";
},
{
name = top;
position = "{483.115, 693}";
}
);
hints = (
{
place = "{261.369, -66.631}";
type = Stem;
},
{
horizontal = 1;
place = "{118.369, -20}";
target = down;
type = TopGhost;
},
{
horizontal = 1;
place = "{-143.631, 21}";
target = up;
type = BottomGhost;
}
);
layerId = "9F107B1E-3A61-4335-981B-27DD48125C7E";
paths = (
{
closed = 1;
nodes = (
"757.908 516 LINE",
"728.976 637 OFFCURVE",
"622.9 707 OFFCURVE",
"484.9 707 CURVE SMOOTH",
"288.9 707 OFFCURVE",
"106.66 560 OFFCURVE",
"64.888 350 CURVE SMOOTH",
"23.117 140 OFFCURVE",
"146.877 -7 OFFCURVE",
"342.877 -7 CURVE SMOOTH",
"499.877 -7 OFFCURVE",
"644.171 90 OFFCURVE",
"715.825 224 CURVE",
"745.662 374 LINE",
"424.662 374 LINE",
"411.733 309 LINE",
"651.733 309 LINE",
"635.621 228 LINE",
"578.332 126 OFFCURVE",
"471.198 65 OFFCURVE",
"357.198 65 CURVE SMOOTH",
"205.198 65 OFFCURVE",
"111.278 176 OFFCURVE",
"145.888 350 CURVE SMOOTH",
"180.698 525 OFFCURVE",
"318.777 636 OFFCURVE",
"470.777 636 CURVE SMOOTH",
"573.777 636 OFFCURVE",
"653.186 590.513 OFFCURVE",
"682.736 490 CURVE"
);
}
);
width = 775.00073;
}
);
leftMetricsKey = O;
rightMetricsKey = "=O*1.2";
unicode = 0047;
},
{
glyphname = Gbreve;
lastChange = "2021-08-28 16:04:17 +0000";
layers = (
{
anchors = (
{
name = bottom;
position = "{341.769, 0}";
},
{
name = top;
position = "{481.207, 701}";
}
);
hints = (
{
place = "{-138.901, -63.901}";
type = Stem;
},
{
place = "{418.099, -58.901}";
type = Stem;
},
{
horizontal = 1;
place = "{-186.901, -77.901}";
type = Stem;
},
{
horizontal = 1;
place = "{111.099, -89.901}";
type = Stem;
},
{
horizontal = 1;
place = "{423.099, -76.901}";
type = Stem;
},
{
place = "{59.849, -115.446}";
type = Stem;
},
{
place = "{294.849, -114.439}";
type = Stem;
},
{
horizontal = 1;
place = "{566.421, -91.278}";
type = Stem;
},
{
horizontal = 1;
place = "{566.421, -18.774}";
type = Stem;
}
);
layerId = "0CF0EA28-C756-4A9E-9D7C-CFEF350B4CFE";
paths = (
{
closed = 1;
nodes = (
"765.204 520 LINE",
"735.272 641 OFFCURVE",
"621.4 707 OFFCURVE",
"488.4 707 CURVE SMOOTH",
"292.4 707 OFFCURVE",
"103.961 559 OFFCURVE",
"62.389 350 CURVE SMOOTH",
"20.617 140 OFFCURVE",
"150.377 -7 OFFCURVE",
"346.377 -7 CURVE SMOOTH",
"502.377 -7 OFFCURVE",
"646.473 89 OFFCURVE",
"719.337 214 CURVE",
"753.55 386 LINE",
"433.55 386 LINE",
"414.653 291 LINE",
"618.852 292 LINE",
"604.331 219 LINE",
"554.214 143 OFFCURVE",
"463.671 90 OFFCURVE",
"365.671 90 CURVE SMOOTH",
"227.671 90 OFFCURVE",
"147.756 196 OFFCURVE",
"178.389 350 CURVE SMOOTH",
"209.021 504 OFFCURVE",
"334.106 610 OFFCURVE",
"472.106 610 CURVE SMOOTH",
"560.781 610 OFFCURVE",
"626.373 573.242 OFFCURVE",
"657.844 483 CURVE"
);
},
{
closed = 1;
nodes = (
"673.67 909.449 LINE",
"607.67 909.449 LINE",
"598.656 864.134 OFFCURVE",
"573.248 836.945 OFFCURVE",
"508.248 836.945 CURVE SMOOTH",
"443.248 836.945 OFFCURVE",
"428.656 864.134 OFFCURVE",
"437.67 909.449 CURVE",
"372.67 909.449 LINE",
"368.464 888.302 LINE SMOOTH",
"351.838 804.721 OFFCURVE",
"396.421 747.322 OFFCURVE",
"490.421 747.322 CURVE SMOOTH",
"585.421 747.322 OFFCURVE",
"652.638 803.714 OFFCURVE",
"669.263 887.295 CURVE SMOOTH"
);
}
);
width = 777.5;
},
{
anchors = (
{
name = bottom;
position = "{351.275, 0}";
},
{
name = top;
position = "{486.336, 679}";
}
);
hints = (
{
place = "{-107.635, -148.635}";
type = Stem;
},
{
horizontal = 1;
place = "{519.365, -20}";
target = down;
type = TopGhost;
},
{
horizontal = 1;
place = "{-179.635, 21}";
target = up;
type = BottomGhost;
},
{
place = "{124.365, -150.755}";
type = Stem;
},
{
place = "{336.365, -148.766}";
type = Stem;
},
{
horizontal = 1;
place = "{569.928, 21}";
target = up;
type = BottomGhost;
},
{
horizontal = 1;
place = "{675.324, -20}";
target = down;
type = TopGhost;
}
);
layerId = "6E968933-CD79-43C6-9231-80D77C940F4D";
paths = (
{
closed = 1;
nodes = (
"741.521 509 LINE",
"714.391 629 OFFCURVE",
"625.906 707 OFFCURVE",
"477.906 707 CURVE SMOOTH",
"281.906 707 OFFCURVE",
"111.666 560 OFFCURVE",
"69.894 350 CURVE SMOOTH",
"28.123 140 OFFCURVE",
"139.883 -7 OFFCURVE",
"335.883 -7 CURVE SMOOTH",
"494.883 -7 OFFCURVE",
"637.376 91 OFFCURVE",
"707.014 240 CURVE",
"730.685 359 LINE",
"408.685 359 LINE",
"404.706 339 LINE",
"704.706 339 LINE",
"685.412 242 LINE",
"616.768 98 OFFCURVE",
"480.861 13 OFFCURVE",
"339.861 13 CURVE SMOOTH",
"164.861 13 OFFCURVE",
"50.322 141 OFFCURVE",
"91.894 350 CURVE SMOOTH",
"133.666 560 OFFCURVE",
"298.928 687 OFFCURVE",
"473.928 687 CURVE SMOOTH",
"613.928 687 OFFCURVE",
"700.413 609 OFFCURVE",
"722.129 502 CURVE"
);
},
{
closed = 1;
nodes = (
"642.91 862.867 LINE",
"621.91 862.867 LINE",
"610.637 806.192 OFFCURVE",
"568.11 773.38 OFFCURVE",
"506.11 773.38 CURVE",
"444.11 773.38 OFFCURVE",
"415.637 806.192 OFFCURVE",
"426.91 862.867 CURVE",
"405.91 862.867 LINE",
"404.921 857.896 LINE SMOOTH",
"395.428 810.17 OFFCURVE",
"417.352 754.489 OFFCURVE",
"502.352 754.489 CURVE",
"588.352 754.489 OFFCURVE",
"632.428 810.17 OFFCURVE",
"641.921 857.896 CURVE SMOOTH"
);
}
);
width = 769.0066;
},
{
anchors = (
{
name = bottom;
position = "{325.972, 1}";
},
{
name = top;
position = "{465.409, 702}";
}
);
hints = (
{
place = "{-168.077, -136.077}";
type = Stem;
},
{
place = "{76.923, -5.077}";
type = Stem;
},
{
horizontal = 1;
place = "{-191.077, -30.077}";
type = Stem;
},
{
horizontal = 1;
place = "{80.923, -58.077}";
type = Stem;
},
{
horizontal = 1;
place = "{358.923, -24.077}";
type = Stem;
},
{
place = "{15.923, -99.573}";
type = Stem;
},
{
place = "{272.923, -99.573}";
type = Stem;
},
{
horizontal = 1;
place = "{555.508, -57.813}";
type = Stem;
},
{
horizontal = 1;
place = "{555.508, 7.811}";
type = Stem;
}
);
layerId = "BAF31694-0472-4296-B0EA-1654553C45D2";
paths = (
{
closed = 1;
nodes = (
"759.82 508 LINE",
"740.286 631 OFFCURVE",
"629.404 707 OFFCURVE",
"474.404 707 CURVE SMOOTH",
"263.404 707 OFFCURVE",
"88.965 559 OFFCURVE",
"47.392 350 CURVE SMOOTH",
"5.819 141 OFFCURVE",
"122.38 -7 OFFCURVE",
"334.38 -7 CURVE SMOOTH",
"505.38 -7 OFFCURVE",
"635.47 94 OFFCURVE",
"703.759 196 CURVE",
"744.536 401 LINE",
"416.536 401 LINE",
"389.484 265 LINE",
"557.484 265 LINE",
"551.716 236 LINE",
"507.378 179 OFFCURVE",
"447.819 141 OFFCURVE",
"376.819 141 CURVE SMOOTH",
"255.819 141 OFFCURVE",
"199.13 223 OFFCURVE",
"224.392 350 CURVE SMOOTH",
"247.864 468 OFFCURVE",
"342.965 559 OFFCURVE",
"450.965 559 CURVE SMOOTH",
"521.415 559 OFFCURVE",
"568.244 530.981 OFFCURVE",
"588.261 470 CURVE"
);
},
{
closed = 1;
nodes = (
"683.6 935.474 LINE",
"596.6 935.474 LINE",
"588.293 893.714 OFFCURVE",
"563.349 868.856 OFFCURVE",
"498.349 868.856 CURVE SMOOTH",
"433.349 868.856 OFFCURVE",
"418.293 893.714 OFFCURVE",
"426.6 935.474 CURVE",
"339.6 935.474 LINE",
"335.842 916.582 LINE SMOOTH",
"313.098 802.238 OFFCURVE",
"373.033 741.586 OFFCURVE",
"473.033 741.586 CURVE SMOOTH",
"574.033 741.586 OFFCURVE",
"657.098 802.238 OFFCURVE",
"679.842 916.582 CURVE SMOOTH"
);
}
);
width = 747.50509;
},
{
anchors = (
{
name = bottom;
position = "{345.273, 0}";
},
{
name = top;
position = "{483.119, 693}";
}
);
hints = (
{
place = "{224.443, -103.557}";
type = Stem;
},
{
horizontal = 1;
place = "{81.443, -20}";
target = down;
type = TopGhost;
},
{
horizontal = 1;
place = "{-180.557, 21}";
target = up;
type = BottomGhost;
},
{
place = "{449.443, -113.417}";
type = Stem;
},
{
place = "{529.443, -68.318}";
type = Stem;
},
{
horizontal = 1;
place = "{193.94, 21}";
target = up;
type = BottomGhost;
},
{
horizontal = 1;
place = "{234.028, -20}";
target = down;
type = TopGhost;
}
);
layerId = "9F107B1E-3A61-4335-981B-27DD48125C7E";
paths = (
{
closed = 1;
nodes = (
"757.911 516 LINE",
"728.98 637 OFFCURVE",
"622.904 707 OFFCURVE",
"484.904 707 CURVE SMOOTH",
"288.904 707 OFFCURVE",
"106.664 560 OFFCURVE",
"64.892 350 CURVE SMOOTH",
"23.12 140 OFFCURVE",
"146.88 -7 OFFCURVE",
"342.88 -7 CURVE SMOOTH",
"499.88 -7 OFFCURVE",
"644.175 90 OFFCURVE",
"715.829 224 CURVE",
"745.666 374 LINE",
"424.666 374 LINE",
"411.737 309 LINE",
"651.737 309 LINE",
"635.625 228 LINE",
"578.336 126 OFFCURVE",
"471.202 65 OFFCURVE",
"357.202 65 CURVE SMOOTH",
"205.202 65 OFFCURVE",
"111.281 176 OFFCURVE",
"145.892 350 CURVE SMOOTH",
"180.702 525 OFFCURVE",
"318.781 636 OFFCURVE",
"470.781 636 CURVE SMOOTH",
"573.781 636 OFFCURVE",
"653.19 590.513 OFFCURVE",
"682.74 490 CURVE"
);
},
{
closed = 1;
nodes = (
"662.33 892.641 LINE",
"613.33 892.641 LINE",
"603.363 842.531 OFFCURVE",
"571.581 813.467 OFFCURVE",
"507.581 813.467 CURVE",
"443.581 813.467 OFFCURVE",
"423.363 842.531 OFFCURVE",
"433.33 892.641 CURVE",
"385.33 892.641 LINE",
"382.34 877.608 LINE SMOOTH",
"368.385 807.454 OFFCURVE",
"404.022 750.329 OFFCURVE",
"495.022 750.329 CURVE",
"587.022 750.329 OFFCURVE",
"645.186 806.452 OFFCURVE",
"659.14 876.606 CURVE SMOOTH"
);
}
);
width = 775.00248;
}
);
leftMetricsKey = G;
rightMetricsKey = G;
unicode = 011E;
},
{
glyphname = Gcommaaccent;
lastChange = "2021-08-28 16:04:17 +0000";
layers = (
{
anchors = (
{
name = _bottom;
position = "{336.269, 0}";
},
{
name = bottom;
position = "{341.769, 0}";
}
);
hints = (
{
place = "{191.369, -23.631}";
type = Stem;
},
{
place = "{195.369, -27.631}";
type = Stem;
},
{
place = "{244.369, -76.631}";
type = Stem;
},
{
horizontal = 1;
place = "{-283.631, -44.631}";
type = Stem;
},
{
horizontal = 1;
place = "{-412.631, 21}";
target = up;
type = BottomGhost;
},
{
place = "{-98.631, -23.631}";
type = Stem;
},
{
place = "{458.369, -18.631}";
type = Stem;
},
{
horizontal = 1;
place = "{-146.631, -37.631}";
type = Stem;
},
{
horizontal = 1;
place = "{151.369, -49.631}";
type = Stem;
},
{
horizontal = 1;
place = "{463.369, -36.631}";
type = Stem;
}
);
layerId = "0CF0EA28-C756-4A9E-9D7C-CFEF350B4CFE";
paths = (
{
closed = 1;
nodes = (
"272.92 -47 LINE",
"253.824 -143 LINE",
"306.824 -143 LINE",
"302.448 -165 LINE SMOOTH",
"294.889 -203.003 OFFCURVE",
"276.11 -222 OFFCURVE",
"242.11 -222 CURVE",
"232.165 -272 LINE",
"306.165 -272 OFFCURVE",
"353.519 -230 OFFCURVE",
"370.228 -146 CURVE SMOOTH",
"375.996 -117 OFFCURVE",
"377.56 -84 OFFCURVE",
"375.92 -47 CURVE"
);
},
{
closed = 1;
nodes = (
"765.203 520 LINE",
"735.272 641 OFFCURVE",
"621.4 707 OFFCURVE",
"488.4 707 CURVE SMOOTH",
"292.4 707 OFFCURVE",
"103.961 559 OFFCURVE",
"62.388 350 CURVE SMOOTH",
"20.617 140 OFFCURVE",
"150.377 -7 OFFCURVE",
"346.377 -7 CURVE SMOOTH",
"502.377 -7 OFFCURVE",
"646.472 89 OFFCURVE",
"719.336 214 CURVE",
"753.549 386 LINE",
"433.549 386 LINE",
"414.652 291 LINE",
"618.851 292 LINE",
"604.331 219 LINE",
"554.213 143 OFFCURVE",
"463.671 90 OFFCURVE",
"365.671 90 CURVE SMOOTH",
"227.671 90 OFFCURVE",
"147.756 196 OFFCURVE",
"178.388 350 CURVE SMOOTH",
"209.021 504 OFFCURVE",
"334.106 610 OFFCURVE",
"472.106 610 CURVE SMOOTH",
"560.781 610 OFFCURVE",
"626.373 573.242 OFFCURVE",
"657.844 483 CURVE"
);
}
);
width = 777.5;
},
{
anchors = (
{
name = _bottom;
position = "{344.678, -8}";
},
{
name = bottom;
position = "{351.269, 0}";
}
);
hints = (
{
place = "{255.369, -116.631}";
type = Stem;
},
{
horizontal = 1;
place = "{-198.631, -20}";
target = down;
type = TopGhost;
},
{
horizontal = 1;
place = "{-317.631, 21}";
target = up;
type = BottomGhost;
},
{
place = "{-76.631, -117.631}";
type = Stem;
},
{
horizontal = 1;
place = "{550.369, -20}";
target = down;
type = TopGhost;
},
{
horizontal = 1;
place = "{-148.631, 21}";
target = up;
type = BottomGhost;
}
);
layerId = "6E968933-CD79-43C6-9231-80D77C940F4D";
paths = (
{
closed = 1;
nodes = (
"314.732 -58 LINE",
"306.974 -97 LINE",
"338.974 -97 LINE",
"337.383 -105 LINE SMOOTH",
"330.819 -138 OFFCURVE",
"314.841 -158 OFFCURVE",
"282.841 -158 CURVE",
"279.061 -177 LINE",
"316.061 -177 OFFCURVE",
"348.045 -162 OFFCURVE",
"362.168 -91 CURVE SMOOTH",
"364.157 -81 OFFCURVE",
"365.743 -68 OFFCURVE",
"366.732 -58 CURVE"
);
},
{
closed = 1;
nodes = (
"741.515 509 LINE",
"714.385 629 OFFCURVE",
"625.9 707 OFFCURVE",
"477.9 707 CURVE SMOOTH",
"281.9 707 OFFCURVE",
"111.66 560 OFFCURVE",
"69.888 350 CURVE SMOOTH",
"28.117 140 OFFCURVE",
"139.877 -7 OFFCURVE",
"335.877 -7 CURVE SMOOTH",
"494.877 -7 OFFCURVE",
"637.37 91 OFFCURVE",
"707.008 240 CURVE",
"730.678 359 LINE",
"408.678 359 LINE",
"404.7 339 LINE",
"704.7 339 LINE",
"685.406 242 LINE",
"616.762 98 OFFCURVE",
"480.855 13 OFFCURVE",
"339.855 13 CURVE SMOOTH",
"164.855 13 OFFCURVE",
"50.316 141 OFFCURVE",
"91.888 350 CURVE SMOOTH",
"133.66 560 OFFCURVE",
"298.922 687 OFFCURVE",
"473.922 687 CURVE SMOOTH",
"613.922 687 OFFCURVE",
"700.407 609 OFFCURVE",
"722.123 502 CURVE"
);
}
);
width = 768.9966;
},
{
anchors = (
{
name = _bottom;
position = "{331.468, 1}";
},
{
name = bottom;
position = "{325.968, 1}";
}
);
hints = (
{
place = "{171.369, 13.369}";
type = Stem;
},
{
place = "{215.369, -29.631}";
type = Stem;
},
{
place = "{-173.631, -67.631}";
type = Stem;
},
{
horizontal = 1;
place = "{-304.631, -15.631}";
type = Stem;
},
{
horizontal = 1;
place = "{-255.631, 21}";
target = up;
type = BottomGhost;
},
{
place = "{-122.631, -90.631}";
type = Stem;
},
{
place = "{122.369, 40.369}";
type = Stem;
},
{
horizontal = 1;
place = "{-145.631, 15.369}";
type = Stem;
},
{
horizontal = 1;
place = "{126.369, -12.631}";
type = Stem;
},
{
horizontal = 1;
place = "{404.369, 21.369}";
type = Stem;
}
);
layerId = "BAF31694-0472-4296-B0EA-1654553C45D2";
paths = (
{
closed = 1;
nodes = (
"254.71 -38 LINE",
"229.647 -164 LINE",
"293.647 -164 LINE",
"290.863 -178 LINE SMOOTH",
"281.713 -224 OFFCURVE",
"259.535 -245 OFFCURVE",
"225.535 -245 CURVE",
"212.208 -312 LINE",
"309.208 -312 OFFCURVE",
"367.939 -248 OFFCURVE",
"385.841 -158 CURVE SMOOTH",
"393.201 -121 OFFCURVE",
"394.157 -81 OFFCURVE",
"388.71 -38 CURVE"
);
},
{
closed = 1;
nodes = (
"759.816 508 LINE",
"740.283 631 OFFCURVE",
"629.4 707 OFFCURVE",
"474.4 707 CURVE SMOOTH",
"263.4 707 OFFCURVE",
"88.961 559 OFFCURVE",
"47.388 350 CURVE SMOOTH",
"5.816 141 OFFCURVE",
"122.377 -7 OFFCURVE",
"334.377 -7 CURVE SMOOTH",
"505.377 -7 OFFCURVE",
"635.467 94 OFFCURVE",
"703.756 196 CURVE",
"744.533 401 LINE",
"416.533 401 LINE",
"389.481 265 LINE",
"557.481 265 LINE",
"551.712 236 LINE",
"507.374 179 OFFCURVE",
"447.816 141 OFFCURVE",
"376.816 141 CURVE SMOOTH",
"255.816 141 OFFCURVE",
"199.126 223 OFFCURVE",
"224.388 350 CURVE SMOOTH",
"247.86 468 OFFCURVE",
"342.961 559 OFFCURVE",
"450.961 559 CURVE SMOOTH",
"521.411 559 OFFCURVE",
"568.241 530.981 OFFCURVE",
"588.258 470 CURVE"
);
}
);
width = 747.49509;
},
{
anchors = (
{
name = _bottom;
position = "{339.672, -3}";
},
{
name = bottom;
position = "{345.269, 0}";
}
);
hints = (
{
place = "{-81.631, -71.631}";
type = Stem;
},
{
horizontal = 1;
place = "{-162.631, -20}";
target = down;
type = TopGhost;
},
{
horizontal = 1;
place = "{-376.631, 21}";
target = up;
type = BottomGhost;
},
{
place = "{261.369, -66.631}";
type = Stem;
},
{
horizontal = 1;
place = "{118.369, -20}";
target = down;
type = TopGhost;
},
{
horizontal = 1;
place = "{-143.631, 21}";
target = up;
type = BottomGhost;
}
);
layerId = "9F107B1E-3A61-4335-981B-27DD48125C7E";
paths = (
{
closed = 1;
nodes = (
"289.124 -51 LINE",
"274.206 -126 LINE",
"319.206 -126 LINE",
"315.824 -143 LINE SMOOTH",
"308.664 -179 OFFCURVE",
"290.884 -198 OFFCURVE",
"257.884 -198 CURVE",
"250.326 -236 LINE",
"310.326 -236 OFFCURVE",
"351.492 -205 OFFCURVE",
"367.405 -125 CURVE SMOOTH",
"371.582 -104 OFFCURVE",
"372.754 -78 OFFCURVE",
"372.124 -51 CURVE"
);
},
{
closed = 1;
nodes = (
"757.908 516 LINE",
"728.976 637 OFFCURVE",
"622.9 707 OFFCURVE",
"484.9 707 CURVE SMOOTH",
"288.9 707 OFFCURVE",
"106.66 560 OFFCURVE",
"64.888 350 CURVE SMOOTH",
"23.117 140 OFFCURVE",
"146.877 -7 OFFCURVE",
"342.877 -7 CURVE SMOOTH",
"499.877 -7 OFFCURVE",
"644.171 90 OFFCURVE",
"715.825 224 CURVE",
"745.662 374 LINE",
"424.662 374 LINE",
"411.733 309 LINE",
"651.733 309 LINE",
"635.621 228 LINE",
"578.332 126 OFFCURVE",
"471.198 65 OFFCURVE",
"357.198 65 CURVE SMOOTH",
"205.198 65 OFFCURVE",
"111.278 176 OFFCURVE",
"145.888 350 CURVE SMOOTH",
"180.698 525 OFFCURVE",
"318.777 636 OFFCURVE",
"470.777 636 CURVE SMOOTH",
"573.777 636 OFFCURVE",
"653.186 590.513 OFFCURVE",
"682.736 490 CURVE"
);
}
);
width = 774.99248;
}
);
leftMetricsKey = G;
rightMetricsKey = G;
unicode = 0122;
},
